<?xml version="1.0" encoding="UTF-8" standalone="no"?>
<!DOCTYPE svg PUBLIC "-//W3C//DTD SVG 1.1//EN"
 "http://www.w3.org/Graphics/SVG/1.1/DTD/svg11.dtd">
<!-- Generated by graphviz version 2.49.0 (20210828.1703)
 -->
<!-- Pages: 1 -->
<svg width="2075pt" height="332pt"
 viewBox="0.00 0.00 2075.39 332.00" xmlns="http://www.w3.org/2000/svg" xmlns:xlink="http://www.w3.org/1999/xlink">
<g id="graph0" class="graph" transform="scale(1 1) rotate(0) translate(4 328)">
<polygon fill="white" stroke="transparent" points="-4,4 -4,-328 2071.39,-328 2071.39,4 -4,4"/>
<!-- IN1000 -->
<g id="node1" class="node">
<title>IN1000</title>
<ellipse fill="none" stroke="black" cx="944.7" cy="-306" rx="37.89" ry="18"/>
<text text-anchor="middle" x="944.7" y="-302.3" font-family="Times New Roman,serif" font-size="14.00">IN1000</text>
</g>
<!-- IN1010 -->
<g id="node2" class="node">
<title>IN1010</title>
<ellipse fill="none" stroke="black" cx="667.7" cy="-234" rx="37.89" ry="18"/>
<text text-anchor="middle" x="667.7" y="-230.3" font-family="Times New Roman,serif" font-size="14.00">IN1010</text>
</g>
<!-- IN1000&#45;&gt;IN1010 -->
<g id="edge1" class="edge">
<title>IN1000&#45;&gt;IN1010</title>
<path fill="none" stroke="red" d="M914.02,-295.52C905.52,-292.99 896.27,-290.31 887.7,-288 826.64,-271.55 755.39,-254.83 710.9,-244.69"/>
<polygon fill="red" stroke="red" points="711.54,-241.24 701.01,-242.44 709.98,-248.07 711.54,-241.24"/>
</g>
<!-- IN1030 -->
<g id="node4" class="node">
<title>IN1030</title>
<ellipse fill="none" stroke="black" cx="840.7" cy="-162" rx="37.89" ry="18"/>
<text text-anchor="middle" x="840.7" y="-158.3" font-family="Times New Roman,serif" font-size="14.00">IN1030</text>
</g>
<!-- IN1000&#45;&gt;IN1030 -->
<g id="edge2" class="edge">
<title>IN1000&#45;&gt;IN1030</title>
<path fill="none" stroke="red" d="M932.77,-288.71C914.59,-263.89 879.82,-216.42 858.6,-187.45"/>
<polygon fill="red" stroke="red" points="861.22,-185.1 852.49,-179.1 855.57,-189.23 861.22,-185.1"/>
</g>
<!-- IN2090 -->
<g id="node12" class="node">
<title>IN2090</title>
<ellipse fill="none" stroke="black" cx="982.7" cy="-90" rx="37.89" ry="18"/>
<text text-anchor="middle" x="982.7" y="-86.3" font-family="Times New Roman,serif" font-size="14.00">IN2090</text>
</g>
<!-- IN1000&#45;&gt;IN2090 -->
<g id="edge5" class="edge">
<title>IN1000&#45;&gt;IN2090</title>
<path fill="none" stroke="red" d="M982.3,-303.46C1018.09,-299.76 1070.15,-288.04 1095.7,-252 1104.95,-238.95 1103.36,-230.04 1095.7,-216 1081.52,-190.03 1060.6,-200.94 1039.7,-180 1021.18,-161.45 1005.58,-135.89 995.4,-116.91"/>
<polygon fill="red" stroke="red" points="998.45,-115.18 990.72,-107.93 992.24,-118.41 998.45,-115.18"/>
</g>
<!-- IN2040 -->
<g id="node14" class="node">
<title>IN2040</title>
<ellipse fill="none" stroke="black" cx="1048.7" cy="-234" rx="37.89" ry="18"/>
<text text-anchor="middle" x="1048.7" y="-230.3" font-family="Times New Roman,serif" font-size="14.00">IN2040</text>
</g>
<!-- IN1000&#45;&gt;IN2040 -->
<g id="edge3" class="edge">
<title>IN1000&#45;&gt;IN2040</title>
<path fill="none" stroke="red" d="M965.74,-290.83C981.11,-280.49 1002.14,-266.33 1019.18,-254.86"/>
<polygon fill="red" stroke="red" points="1021.34,-257.63 1027.68,-249.14 1017.43,-251.82 1021.34,-257.63"/>
</g>
<!-- IN2060 -->
<g id="node15" class="node">
<title>IN2060</title>
<ellipse fill="none" stroke="black" cx="1611.7" cy="-234" rx="37.89" ry="18"/>
<text text-anchor="middle" x="1611.7" y="-230.3" font-family="Times New Roman,serif" font-size="14.00">IN2060</text>
</g>
<!-- IN1000&#45;&gt;IN2060 -->
<g id="edge4" class="edge">
<title>IN1000&#45;&gt;IN2060</title>
<path fill="none" stroke="red" d="M982.68,-305.28C1080.57,-305.25 1348.94,-300.37 1565.7,-252 1568.68,-251.34 1571.72,-250.52 1574.76,-249.62"/>
<polygon fill="red" stroke="red" points="1575.92,-252.92 1584.33,-246.48 1573.74,-246.27 1575.92,-252.92"/>
</g>
<!-- IN2100 -->
<g id="node19" class="node">
<title>IN2100</title>
<ellipse fill="none" stroke="black" cx="1890.7" cy="-234" rx="37.89" ry="18"/>
<text text-anchor="middle" x="1890.7" y="-230.3" font-family="Times New Roman,serif" font-size="14.00">IN2100</text>
</g>
<!-- IN1000&#45;&gt;IN2100 -->
<g id="edge6" class="edge">
<title>IN1000&#45;&gt;IN2100</title>
<path fill="none" stroke="red" d="M982.33,-304.26C1130.77,-301.11 1675.89,-287.35 1844.7,-252 1847.68,-251.37 1850.74,-250.59 1853.78,-249.71"/>
<polygon fill="red" stroke="red" points="1854.92,-253.01 1863.36,-246.6 1852.76,-246.35 1854.92,-253.01"/>
</g>
<!-- IN2120 -->
<g id="node22" class="node">
<title>IN2120</title>
<ellipse fill="none" stroke="black" cx="330.7" cy="-162" rx="37.89" ry="18"/>
<text text-anchor="middle" x="330.7" y="-158.3" font-family="Times New Roman,serif" font-size="14.00">IN2120</text>
</g>
<!-- IN1000&#45;&gt;IN2120 -->
<g id="edge7" class="edge">
<title>IN1000&#45;&gt;IN2120</title>
<path fill="none" stroke="red" d="M914.45,-295.03C905.88,-292.46 896.48,-289.89 887.7,-288 770.64,-262.81 737.62,-277.84 620.7,-252 567.99,-240.35 556.36,-231.64 504.7,-216 450.59,-199.62 436.68,-196.79 382.7,-180 378.67,-178.75 374.47,-177.42 370.28,-176.07"/>
<polygon fill="red" stroke="red" points="371.21,-172.7 360.62,-172.95 369.06,-179.36 371.21,-172.7"/>
</g>
<!-- IN3030 -->
<g id="node29" class="node">
<title>IN3030</title>
<ellipse fill="none" stroke="black" cx="750.7" cy="-90" rx="37.89" ry="18"/>
<text text-anchor="middle" x="750.7" y="-86.3" font-family="Times New Roman,serif" font-size="14.00">IN3030</text>
</g>
<!-- IN1000&#45;&gt;IN3030 -->
<g id="edge8" class="edge">
<title>IN1000&#45;&gt;IN3030</title>
<path fill="none" stroke="red" d="M922.52,-291.35C890.45,-270.68 830.92,-228.65 793.7,-180 779.02,-160.82 767.49,-135.84 760.08,-117.23"/>
<polygon fill="red" stroke="red" points="763.34,-115.96 756.48,-107.88 756.8,-118.47 763.34,-115.96"/>
</g>
<!-- IN3070 -->
<g id="node33" class="node">
<title>IN3070</title>
<ellipse fill="none" stroke="black" cx="1411.7" cy="-90" rx="37.89" ry="18"/>
<text text-anchor="middle" x="1411.7" y="-86.3" font-family="Times New Roman,serif" font-size="14.00">IN3070</text>
</g>
<!-- IN1000&#45;&gt;IN3070 -->
<g id="edge9" class="edge">
<title>IN1000&#45;&gt;IN3070</title>
<path fill="none" stroke="green" d="M980.97,-300.98C1081.69,-289 1360.92,-249.95 1414.7,-180 1428.12,-162.55 1425.68,-136.97 1420.87,-117.71"/>
<polygon fill="green" stroke="green" points="1424.22,-116.69 1418.13,-108.02 1417.48,-118.6 1424.22,-116.69"/>
</g>
<!-- IN3190 -->
<g id="node40" class="node">
<title>IN3190</title>
<ellipse fill="none" stroke="black" cx="457.7" cy="-234" rx="37.89" ry="18"/>
<text text-anchor="middle" x="457.7" y="-230.3" font-family="Times New Roman,serif" font-size="14.00">IN3190</text>
</g>
<!-- IN1000&#45;&gt;IN3190 -->
<g id="edge10" class="edge">
<title>IN1000&#45;&gt;IN3190</title>
<path fill="none" stroke="green" d="M914.8,-294.89C906.14,-292.29 896.62,-289.74 887.7,-288 722.05,-255.73 674.91,-286.43 509.7,-252 505.29,-251.08 500.73,-249.92 496.23,-248.64"/>
<polygon fill="green" stroke="green" points="497.13,-245.25 486.54,-245.68 495.09,-251.95 497.13,-245.25"/>
</g>
<!-- IN3240 -->
<g id="node44" class="node">
<title>IN3240</title>
<ellipse fill="none" stroke="black" cx="882.7" cy="-90" rx="37.89" ry="18"/>
<text text-anchor="middle" x="882.7" y="-86.3" font-family="Times New Roman,serif" font-size="14.00">IN3240</text>
</g>
<!-- IN1000&#45;&gt;IN3240 -->
<g id="edge11" class="edge">
<title>IN1000&#45;&gt;IN3240</title>
<path fill="none" stroke="red" d="M939.73,-287.85C928.95,-250.66 903.38,-162.37 890.45,-117.77"/>
<polygon fill="red" stroke="red" points="893.75,-116.57 887.6,-107.94 887.02,-118.51 893.75,-116.57"/>
</g>
<!-- IN1010&#45;&gt;IN1030 -->
<g id="edge12" class="edge">
<title>IN1010&#45;&gt;IN1030</title>
<path fill="none" stroke="green" d="M695.49,-221.75C724.75,-209.92 770.97,-191.21 803.39,-178.1"/>
<polygon fill="green" stroke="green" points="805.01,-181.21 812.97,-174.22 802.39,-174.73 805.01,-181.21"/>
</g>
<!-- IN2000 -->
<g id="node9" class="node">
<title>IN2000</title>
<ellipse fill="none" stroke="black" cx="393.7" cy="-18" rx="37.89" ry="18"/>
<text text-anchor="middle" x="393.7" y="-14.3" font-family="Times New Roman,serif" font-size="14.00">IN2000</text>
</g>
<!-- IN1010&#45;&gt;IN2000 -->
<g id="edge13" class="edge">
<title>IN1010&#45;&gt;IN2000</title>
<path fill="none" stroke="red" d="M632.85,-226.6C568.92,-214.7 437.71,-189.54 418.7,-180 397.02,-169.12 398.96,-155.66 377.7,-144 327.38,-116.41 288.16,-153.89 253.7,-108 244.09,-95.21 244.6,-85.17 253.7,-72 274.42,-42 314.49,-28.96 346.46,-23.31"/>
<polygon fill="red" stroke="red" points="347.2,-26.73 356.53,-21.72 346.1,-19.82 347.2,-26.73"/>
</g>
<!-- IN2010 -->
<g id="node11" class="node">
<title>IN2010</title>
<ellipse fill="none" stroke="black" cx="500.7" cy="-162" rx="37.89" ry="18"/>
<text text-anchor="middle" x="500.7" y="-158.3" font-family="Times New Roman,serif" font-size="14.00">IN2010</text>
</g>
<!-- IN1010&#45;&gt;IN2010 -->
<g id="edge14" class="edge">
<title>IN1010&#45;&gt;IN2010</title>
<path fill="none" stroke="red" d="M640.12,-221.44C612.12,-209.7 568.58,-191.45 537.61,-178.47"/>
<polygon fill="red" stroke="red" points="538.61,-175.1 528.04,-174.46 535.91,-181.55 538.61,-175.1"/>
</g>
<!-- IN2030 -->
<g id="node13" class="node">
<title>IN2030</title>
<ellipse fill="none" stroke="black" cx="670.7" cy="-162" rx="37.89" ry="18"/>
<text text-anchor="middle" x="670.7" y="-158.3" font-family="Times New Roman,serif" font-size="14.00">IN2030</text>
</g>
<!-- IN1010&#45;&gt;IN2030 -->
<g id="edge15" class="edge">
<title>IN1010&#45;&gt;IN2030</title>
<path fill="none" stroke="red" d="M668.44,-215.7C668.77,-207.98 669.17,-198.71 669.53,-190.11"/>
<polygon fill="red" stroke="red" points="673.03,-190.25 669.96,-180.1 666.04,-189.95 673.03,-190.25"/>
</g>
<!-- IN1010&#45;&gt;IN2120 -->
<g id="edge16" class="edge">
<title>IN1010&#45;&gt;IN2120</title>
<path fill="none" stroke="green" d="M631.82,-227.89C577.47,-219.79 471.2,-202.59 382.7,-180 378.56,-178.94 374.26,-177.73 370,-176.45"/>
<polygon fill="green" stroke="green" points="370.79,-173.03 360.2,-173.39 368.7,-179.71 370.79,-173.03"/>
</g>
<!-- IN1010&#45;&gt;IN3030 -->
<g id="edge17" class="edge">
<title>IN1010&#45;&gt;IN3030</title>
<path fill="none" stroke="red" d="M650.64,-217.87C632.18,-199.63 607.45,-168.39 623.7,-144 628.93,-136.14 676.16,-117.77 711.5,-104.87"/>
<polygon fill="red" stroke="red" points="712.9,-108.09 721.11,-101.39 710.52,-101.5 712.9,-108.09"/>
</g>
<!-- IN3040 -->
<g id="node30" class="node">
<title>IN3040</title>
<ellipse fill="none" stroke="black" cx="1086.7" cy="-90" rx="37.89" ry="18"/>
<text text-anchor="middle" x="1086.7" y="-86.3" font-family="Times New Roman,serif" font-size="14.00">IN3040</text>
</g>
<!-- IN1010&#45;&gt;IN3040 -->
<g id="edge18" class="edge">
<title>IN1010&#45;&gt;IN3040</title>
<path fill="none" stroke="red" d="M702.55,-226.67C746.41,-218.23 823.74,-201.8 887.7,-180 947.47,-159.63 1013.87,-128 1052.86,-108.45"/>
<polygon fill="red" stroke="red" points="1054.81,-111.38 1062.16,-103.75 1051.66,-105.13 1054.81,-111.38"/>
</g>
<!-- IN1010&#45;&gt;IN3070 -->
<g id="edge19" class="edge">
<title>IN1010&#45;&gt;IN3070</title>
<path fill="none" stroke="red" d="M705.13,-230.66C839.56,-222.15 1291.53,-192.74 1319.7,-180 1328.18,-176.16 1365.01,-139.18 1389.42,-114.11"/>
<polygon fill="red" stroke="red" points="1392.1,-116.38 1396.55,-106.76 1387.08,-111.5 1392.1,-116.38"/>
</g>
<!-- IN1010&#45;&gt;IN3240 -->
<g id="edge20" class="edge">
<title>IN1010&#45;&gt;IN3240</title>
<path fill="none" stroke="green" d="M687.44,-218.33C711.97,-200.28 755.29,-168.95 793.7,-144 812.15,-132.02 833.29,-119.38 850.34,-109.46"/>
<polygon fill="green" stroke="green" points="852.44,-112.28 859.34,-104.24 848.94,-106.22 852.44,-112.28"/>
</g>
<!-- IN3260 -->
<g id="node46" class="node">
<title>IN3260</title>
<ellipse fill="none" stroke="black" cx="393.7" cy="-90" rx="37.89" ry="18"/>
<text text-anchor="middle" x="393.7" y="-86.3" font-family="Times New Roman,serif" font-size="14.00">IN3260</text>
</g>
<!-- IN1010&#45;&gt;IN3260 -->
<g id="edge21" class="edge">
<title>IN1010&#45;&gt;IN3260</title>
<path fill="none" stroke="red" d="M632.42,-227.42C579.42,-218.53 482.4,-200.07 453.7,-180 431.25,-164.31 414.81,-137.3 404.87,-117.15"/>
<polygon fill="red" stroke="red" points="407.93,-115.44 400.51,-107.88 401.6,-118.42 407.93,-115.44"/>
</g>
<!-- IN1900 -->
<g id="node3" class="node">
<title>IN1900</title>
<ellipse fill="none" stroke="black" cx="733.7" cy="-306" rx="37.89" ry="18"/>
<text text-anchor="middle" x="733.7" y="-302.3" font-family="Times New Roman,serif" font-size="14.00">IN1900</text>
</g>
<!-- IN1900&#45;&gt;IN1010 -->
<g id="edge22" class="edge">
<title>IN1900&#45;&gt;IN1010</title>
<path fill="none" stroke="red" d="M718.72,-289.12C710.11,-279.99 699.15,-268.36 689.59,-258.22"/>
<polygon fill="red" stroke="red" points="692.02,-255.7 682.61,-250.82 686.93,-260.5 692.02,-255.7"/>
</g>
<!-- IN1900&#45;&gt;IN1030 -->
<g id="edge23" class="edge">
<title>IN1900&#45;&gt;IN1030</title>
<path fill="none" stroke="red" d="M745.97,-288.71C764.68,-263.89 800.44,-216.42 822.27,-187.45"/>
<polygon fill="red" stroke="red" points="825.34,-189.19 828.57,-179.1 819.75,-184.98 825.34,-189.19"/>
</g>
<!-- IN1900&#45;&gt;IN2090 -->
<g id="edge26" class="edge">
<title>IN1900&#45;&gt;IN2090</title>
<path fill="none" stroke="red" d="M752.89,-290.33C766.59,-279.79 785.4,-265.17 801.7,-252 840.47,-220.67 850.38,-213.05 887.7,-180 912.68,-157.87 940.44,-131.66 959.47,-113.44"/>
<polygon fill="red" stroke="red" points="962.02,-115.85 966.81,-106.4 957.18,-110.8 962.02,-115.85"/>
</g>
<!-- IN1900&#45;&gt;IN2040 -->
<g id="edge24" class="edge">
<title>IN1900&#45;&gt;IN2040</title>
<path fill="none" stroke="red" d="M764.68,-295.58C773.96,-292.93 784.2,-290.18 793.7,-288 883,-267.48 907.82,-274.29 996.7,-252 1000.84,-250.96 1005.14,-249.76 1009.4,-248.49"/>
<polygon fill="red" stroke="red" points="1010.7,-251.75 1019.21,-245.44 1008.62,-245.07 1010.7,-251.75"/>
</g>
<!-- IN1900&#45;&gt;IN2060 -->
<g id="edge25" class="edge">
<title>IN1900&#45;&gt;IN2060</title>
<path fill="none" stroke="red" d="M763.92,-294.98C773.35,-292.25 783.87,-289.6 793.7,-288 1132.72,-232.82 1229.08,-320.34 1565.7,-252 1568.69,-251.39 1571.74,-250.62 1574.79,-249.75"/>
<polygon fill="red" stroke="red" points="1575.92,-253.06 1584.37,-246.66 1573.78,-246.39 1575.92,-253.06"/>
</g>
<!-- IN1900&#45;&gt;IN2120 -->
<g id="edge27" class="edge">
<title>IN1900&#45;&gt;IN2120</title>
<path fill="none" stroke="red" d="M696.84,-302.04C622.93,-295.6 459.55,-278.73 410.7,-252 396.01,-243.96 368.09,-210.76 349.44,-187.27"/>
<polygon fill="red" stroke="red" points="351.96,-184.81 343.03,-179.12 346.46,-189.14 351.96,-184.81"/>
</g>
<!-- IN1900&#45;&gt;IN3030 -->
<g id="edge28" class="edge">
<title>IN1900&#45;&gt;IN3030</title>
<path fill="none" stroke="red" d="M699.31,-298.51C673.21,-291.65 638.82,-278.06 620.7,-252 593.25,-212.53 587.57,-183.69 614.7,-144 620.44,-135.6 672.53,-116.87 710.54,-104.09"/>
<polygon fill="red" stroke="red" points="711.97,-107.3 720.35,-100.81 709.75,-100.66 711.97,-107.3"/>
</g>
<!-- IN1900&#45;&gt;IN3070 -->
<g id="edge29" class="edge">
<title>IN1900&#45;&gt;IN3070</title>
<path fill="none" stroke="green" d="M761.3,-293.59C809.29,-274.27 911.58,-235.34 1001.7,-216 1078.36,-199.55 1285.6,-220.57 1352.7,-180 1376.25,-165.76 1392.33,-138.1 1401.68,-117.37"/>
<polygon fill="green" stroke="green" points="1404.92,-118.7 1405.62,-108.13 1398.48,-115.96 1404.92,-118.7"/>
</g>
<!-- IN1900&#45;&gt;IN3190 -->
<g id="edge30" class="edge">
<title>IN1900&#45;&gt;IN3190</title>
<path fill="none" stroke="green" d="M699.7,-297.88C655.6,-288.44 576.44,-270.77 509.7,-252 505.63,-250.86 501.41,-249.6 497.22,-248.3"/>
<polygon fill="green" stroke="green" points="498.13,-244.92 487.54,-245.23 496.01,-251.59 498.13,-244.92"/>
</g>
<!-- IN1030&#45;&gt;IN2000 -->
<g id="edge31" class="edge">
<title>IN1030&#45;&gt;IN2000</title>
<path fill="none" stroke="red" d="M837.49,-143.76C832.68,-123.12 821.48,-89.18 797.7,-72 741.67,-31.52 535.75,-21.96 441.44,-19.7"/>
<polygon fill="red" stroke="red" points="441.39,-16.2 431.32,-19.47 441.24,-23.2 441.39,-16.2"/>
</g>
<!-- IN1030&#45;&gt;IN2090 -->
<g id="edge32" class="edge">
<title>IN1030&#45;&gt;IN2090</title>
<path fill="none" stroke="green" d="M866.08,-148.49C889,-137.19 922.92,-120.47 948.27,-107.97"/>
<polygon fill="green" stroke="green" points="950.11,-110.97 957.53,-103.41 947.01,-104.69 950.11,-110.97"/>
</g>
<!-- IN1030&#45;&gt;IN3240 -->
<g id="edge33" class="edge">
<title>IN1030&#45;&gt;IN3240</title>
<path fill="none" stroke="green" d="M850.65,-144.41C855.72,-135.95 862,-125.49 867.65,-116.08"/>
<polygon fill="green" stroke="green" points="870.67,-117.85 872.81,-107.47 864.67,-114.24 870.67,-117.85"/>
</g>
<!-- IN1060 -->
<g id="node5" class="node">
<title>IN1060</title>
<ellipse fill="none" stroke="black" cx="117.7" cy="-162" rx="37.89" ry="18"/>
<text text-anchor="middle" x="117.7" y="-158.3" font-family="Times New Roman,serif" font-size="14.00">IN1060</text>
</g>
<!-- IN1060&#45;&gt;IN2000 -->
<g id="edge34" class="edge">
<title>IN1060&#45;&gt;IN2000</title>
<path fill="none" stroke="red" d="M135.06,-145.67C163.13,-120.93 215.86,-74.67 220.7,-72 261.23,-49.59 312.46,-35.42 348.62,-27.42"/>
<polygon fill="red" stroke="red" points="349.82,-30.74 358.87,-25.23 348.35,-23.9 349.82,-30.74"/>
</g>
<!-- IN2020 -->
<g id="node10" class="node">
<title>IN2020</title>
<ellipse fill="none" stroke="black" cx="37.7" cy="-90" rx="37.89" ry="18"/>
<text text-anchor="middle" x="37.7" y="-86.3" font-family="Times New Roman,serif" font-size="14.00">IN2020</text>
</g>
<!-- IN1060&#45;&gt;IN2020 -->
<g id="edge35" class="edge">
<title>IN1060&#45;&gt;IN2020</title>
<path fill="none" stroke="red" d="M100.34,-145.81C89.33,-136.18 74.91,-123.56 62.68,-112.86"/>
<polygon fill="red" stroke="red" points="64.85,-110.11 55.02,-106.16 60.24,-115.38 64.85,-110.11"/>
</g>
<!-- IN3220 -->
<g id="node42" class="node">
<title>IN3220</title>
<ellipse fill="none" stroke="black" cx="130.7" cy="-90" rx="37.89" ry="18"/>
<text text-anchor="middle" x="130.7" y="-86.3" font-family="Times New Roman,serif" font-size="14.00">IN3220</text>
</g>
<!-- IN1060&#45;&gt;IN3220 -->
<g id="edge36" class="edge">
<title>IN1060&#45;&gt;IN3220</title>
<path fill="none" stroke="red" d="M120.84,-144.05C122.28,-136.35 124.01,-127.03 125.61,-118.36"/>
<polygon fill="red" stroke="red" points="129.1,-118.75 127.49,-108.28 122.22,-117.47 129.1,-118.75"/>
</g>
<!-- IN1050 -->
<g id="node6" class="node">
<title>IN1050</title>
<ellipse fill="none" stroke="black" cx="80.7" cy="-234" rx="37.89" ry="18"/>
<text text-anchor="middle" x="80.7" y="-230.3" font-family="Times New Roman,serif" font-size="14.00">IN1050</text>
</g>
<!-- IN1050&#45;&gt;IN1060 -->
<g id="edge37" class="edge">
<title>IN1050&#45;&gt;IN1060</title>
<path fill="none" stroke="red" d="M89.47,-216.41C93.78,-208.25 99.08,-198.22 103.92,-189.07"/>
<polygon fill="red" stroke="red" points="107.16,-190.43 108.73,-179.96 100.97,-187.16 107.16,-190.43"/>
</g>
<!-- IN1050&#45;&gt;IN2020 -->
<g id="edge38" class="edge">
<title>IN1050&#45;&gt;IN2020</title>
<path fill="none" stroke="red" d="M75.6,-216.15C68.26,-191.94 54.67,-147.05 45.91,-118.13"/>
<polygon fill="red" stroke="red" points="49.17,-116.82 42.93,-108.27 42.47,-118.85 49.17,-116.82"/>
</g>
<!-- IN1080 -->
<g id="node7" class="node">
<title>IN1080</title>
<ellipse fill="none" stroke="black" cx="1518.7" cy="-234" rx="37.89" ry="18"/>
<text text-anchor="middle" x="1518.7" y="-230.3" font-family="Times New Roman,serif" font-size="14.00">IN1080</text>
</g>
<!-- IN3140 -->
<g id="node37" class="node">
<title>IN3140</title>
<ellipse fill="none" stroke="black" cx="1704.7" cy="-162" rx="37.89" ry="18"/>
<text text-anchor="middle" x="1704.7" y="-158.3" font-family="Times New Roman,serif" font-size="14.00">IN3140</text>
</g>
<!-- IN1080&#45;&gt;IN3140 -->
<g id="edge39" class="edge">
<title>IN1080&#45;&gt;IN3140</title>
<path fill="none" stroke="red" d="M1547.35,-222.22C1579.3,-210.19 1631.12,-190.69 1666.5,-177.38"/>
<polygon fill="red" stroke="red" points="1667.88,-180.59 1676.01,-173.8 1665.42,-174.04 1667.88,-180.59"/>
</g>
<!-- IN1910 -->
<g id="node8" class="node">
<title>IN1910</title>
<ellipse fill="none" stroke="black" cx="840.7" cy="-306" rx="37.89" ry="18"/>
<text text-anchor="middle" x="840.7" y="-302.3" font-family="Times New Roman,serif" font-size="14.00">IN1910</text>
</g>
<!-- IN1910&#45;&gt;IN1080 -->
<g id="edge40" class="edge">
<title>IN1910&#45;&gt;IN1080</title>
<path fill="none" stroke="red" d="M870.59,-294.83C879.24,-292.23 888.77,-289.69 897.7,-288 1108.65,-247.98 1365.69,-238.16 1470.62,-235.76"/>
<polygon fill="red" stroke="red" points="1470.96,-239.26 1480.88,-235.54 1470.81,-232.26 1470.96,-239.26"/>
</g>
<!-- IN1910&#45;&gt;IN2010 -->
<g id="edge41" class="edge">
<title>IN1910&#45;&gt;IN2010</title>
<path fill="none" stroke="red" d="M809.33,-295.76C800.13,-293.15 790.04,-290.37 780.7,-288 710.05,-270.06 686.96,-282.37 620.7,-252 583.78,-235.08 547.14,-205.58 524.25,-185.2"/>
<polygon fill="red" stroke="red" points="526.51,-182.53 516.74,-178.41 521.81,-187.72 526.51,-182.53"/>
</g>
<!-- IN2020&#45;&gt;IN2000 -->
<g id="edge42" class="edge">
<title>IN2020&#45;&gt;IN2000</title>
<path fill="none" stroke="red" d="M65.65,-77.74C71.55,-75.62 77.78,-73.59 83.7,-72 175.68,-47.37 286.22,-31.7 347.33,-24.21"/>
<polygon fill="red" stroke="red" points="347.92,-27.67 357.43,-23 347.08,-20.72 347.92,-27.67"/>
</g>
<!-- IN3010 -->
<g id="node26" class="node">
<title>IN3010</title>
<ellipse fill="none" stroke="black" cx="37.7" cy="-18" rx="37.89" ry="18"/>
<text text-anchor="middle" x="37.7" y="-14.3" font-family="Times New Roman,serif" font-size="14.00">IN3010</text>
</g>
<!-- IN2020&#45;&gt;IN3010 -->
<g id="edge43" class="edge">
<title>IN2020&#45;&gt;IN3010</title>
<path fill="none" stroke="red" d="M37.7,-71.7C37.7,-63.98 37.7,-54.71 37.7,-46.11"/>
<polygon fill="red" stroke="red" points="41.2,-46.1 37.7,-36.1 34.2,-46.1 41.2,-46.1"/>
</g>
<!-- IN2010&#45;&gt;IN2000 -->
<g id="edge44" class="edge">
<title>IN2010&#45;&gt;IN2000</title>
<path fill="none" stroke="red" d="M515.02,-145.09C530.07,-126.36 549.52,-94.92 533.7,-72 512.97,-42 472.91,-28.96 440.93,-23.31"/>
<polygon fill="red" stroke="red" points="441.29,-19.82 430.87,-21.72 440.2,-26.73 441.29,-19.82"/>
</g>
<!-- IN3000 -->
<g id="node25" class="node">
<title>IN3000</title>
<ellipse fill="none" stroke="black" cx="486.7" cy="-90" rx="37.89" ry="18"/>
<text text-anchor="middle" x="486.7" y="-86.3" font-family="Times New Roman,serif" font-size="14.00">IN3000</text>
</g>
<!-- IN2010&#45;&gt;IN3000 -->
<g id="edge45" class="edge">
<title>IN2010&#45;&gt;IN3000</title>
<path fill="none" stroke="red" d="M497.31,-144.05C495.77,-136.35 493.9,-127.03 492.17,-118.36"/>
<polygon fill="red" stroke="red" points="495.54,-117.39 490.15,-108.28 488.68,-118.77 495.54,-117.39"/>
</g>
<!-- IN3015 -->
<g id="node27" class="node">
<title>IN3015</title>
<ellipse fill="none" stroke="black" cx="1116.7" cy="-18" rx="37.89" ry="18"/>
<text text-anchor="middle" x="1116.7" y="-14.3" font-family="Times New Roman,serif" font-size="14.00">IN3015</text>
</g>
<!-- IN2010&#45;&gt;IN3015 -->
<g id="edge46" class="edge">
<title>IN2010&#45;&gt;IN3015</title>
<path fill="none" stroke="green" d="M530.93,-151.07C538.06,-148.74 545.65,-146.28 552.7,-144 602.86,-127.81 620.31,-134.8 665.7,-108 685.73,-96.17 682.68,-81.97 703.7,-72 767.59,-41.68 975.08,-26.75 1069.34,-21.39"/>
<polygon fill="green" stroke="green" points="1069.65,-24.88 1079.44,-20.83 1069.27,-17.89 1069.65,-24.88"/>
</g>
<!-- IN2010&#45;&gt;IN3030 -->
<g id="edge47" class="edge">
<title>IN2010&#45;&gt;IN3030</title>
<path fill="none" stroke="green" d="M530.55,-150.82C537.77,-148.47 545.48,-146.07 552.7,-144 616.95,-125.6 634.45,-126.4 698.7,-108 702.75,-106.84 706.97,-105.57 711.17,-104.26"/>
<polygon fill="green" stroke="green" points="712.37,-107.55 720.84,-101.18 710.25,-100.88 712.37,-107.55"/>
</g>
<!-- IN2010&#45;&gt;IN3040 -->
<g id="edge48" class="edge">
<title>IN2010&#45;&gt;IN3040</title>
<path fill="none" stroke="green" d="M536.16,-155.63C560.7,-152.03 594.14,-147.35 623.7,-144 803.7,-123.59 851.77,-142.06 1029.7,-108 1035.27,-106.93 1041.09,-105.54 1046.78,-104.01"/>
<polygon fill="green" stroke="green" points="1048.15,-107.26 1056.8,-101.15 1046.23,-100.53 1048.15,-107.26"/>
</g>
<!-- IN2010&#45;&gt;IN3070 -->
<g id="edge49" class="edge">
<title>IN2010&#45;&gt;IN3070</title>
<path fill="none" stroke="green" d="M535.86,-155.3C560.41,-151.52 593.97,-146.77 623.7,-144 951.55,-113.43 1040.63,-171.64 1363.7,-108 1367.19,-107.31 1370.76,-106.42 1374.31,-105.41"/>
<polygon fill="green" stroke="green" points="1375.68,-108.65 1384.16,-102.29 1373.57,-101.97 1375.68,-108.65"/>
</g>
<!-- IN3130 -->
<g id="node36" class="node">
<title>IN3130</title>
<ellipse fill="none" stroke="black" cx="618.7" cy="-90" rx="37.89" ry="18"/>
<text text-anchor="middle" x="618.7" y="-86.3" font-family="Times New Roman,serif" font-size="14.00">IN3130</text>
</g>
<!-- IN2010&#45;&gt;IN3130 -->
<g id="edge50" class="edge">
<title>IN2010&#45;&gt;IN3130</title>
<path fill="none" stroke="red" d="M523.45,-147.5C541.57,-136.75 567.14,-121.59 587.22,-109.67"/>
<polygon fill="red" stroke="red" points="589.2,-112.57 596.01,-104.46 585.63,-106.55 589.2,-112.57"/>
</g>
<!-- IN3230 -->
<g id="node43" class="node">
<title>IN3230</title>
<ellipse fill="none" stroke="black" cx="300.7" cy="-90" rx="37.89" ry="18"/>
<text text-anchor="middle" x="300.7" y="-86.3" font-family="Times New Roman,serif" font-size="14.00">IN3230</text>
</g>
<!-- IN2010&#45;&gt;IN3230 -->
<g id="edge51" class="edge">
<title>IN2010&#45;&gt;IN3230</title>
<path fill="none" stroke="green" d="M470.82,-150.94C439.74,-140.42 389.71,-123.35 346.7,-108 344.15,-107.09 341.53,-106.15 338.9,-105.19"/>
<polygon fill="green" stroke="green" points="339.96,-101.86 329.37,-101.71 337.56,-108.43 339.96,-101.86"/>
</g>
<!-- IN2010&#45;&gt;IN3260 -->
<g id="edge52" class="edge">
<title>IN2010&#45;&gt;IN3260</title>
<path fill="none" stroke="red" d="M479.3,-147C463.41,-136.61 441.52,-122.29 423.85,-110.73"/>
<polygon fill="red" stroke="red" points="425.34,-107.52 415.06,-104.97 421.51,-113.38 425.34,-107.52"/>
</g>
<!-- IN2090&#45;&gt;IN2000 -->
<g id="edge53" class="edge">
<title>IN2090&#45;&gt;IN2000</title>
<path fill="none" stroke="red" d="M953.56,-78.43C945.88,-75.99 937.55,-73.63 929.7,-72 752.09,-35.17 535.89,-23.72 441.56,-20.34"/>
<polygon fill="red" stroke="red" points="441.59,-16.84 431.47,-19.99 441.35,-23.83 441.59,-16.84"/>
</g>
<!-- IN2090&#45;&gt;IN3015 -->
<g id="edge54" class="edge">
<title>IN2090&#45;&gt;IN3015</title>
<path fill="none" stroke="red" d="M1007.27,-76.16C1028.62,-65.01 1059.72,-48.76 1083.32,-36.44"/>
<polygon fill="red" stroke="red" points="1085.03,-39.49 1092.27,-31.76 1081.79,-33.29 1085.03,-39.49"/>
</g>
<!-- IN2040&#45;&gt;IN3070 -->
<g id="edge55" class="edge">
<title>IN2040&#45;&gt;IN3070</title>
<path fill="none" stroke="green" d="M1086.38,-232.3C1165.87,-230.03 1346.97,-220.44 1390.7,-180 1407.49,-164.47 1412.03,-138.22 1412.79,-118.24"/>
<polygon fill="green" stroke="green" points="1416.29,-118.21 1412.89,-108.18 1409.29,-118.15 1416.29,-118.21"/>
</g>
<!-- IN2060&#45;&gt;IN3140 -->
<g id="edge56" class="edge">
<title>IN2060&#45;&gt;IN3140</title>
<path fill="none" stroke="green" d="M1630.97,-218.5C1644.31,-208.45 1662.27,-194.93 1677.12,-183.75"/>
<polygon fill="green" stroke="green" points="1679.57,-186.3 1685.45,-177.49 1675.36,-180.7 1679.57,-186.3"/>
</g>
<!-- IN2070 -->
<g id="node16" class="node">
<title>IN2070</title>
<ellipse fill="none" stroke="black" cx="1611.7" cy="-306" rx="37.89" ry="18"/>
<text text-anchor="middle" x="1611.7" y="-302.3" font-family="Times New Roman,serif" font-size="14.00">IN2070</text>
</g>
<!-- IN2070&#45;&gt;IN2060 -->
<g id="edge57" class="edge">
<title>IN2070&#45;&gt;IN2060</title>
<path fill="none" stroke="red" d="M1611.7,-287.7C1611.7,-279.98 1611.7,-270.71 1611.7,-262.11"/>
<polygon fill="red" stroke="red" points="1615.2,-262.1 1611.7,-252.1 1608.2,-262.1 1615.2,-262.1"/>
</g>
<!-- IN2080 -->
<g id="node17" class="node">
<title>IN2080</title>
<ellipse fill="none" stroke="black" cx="1184.7" cy="-90" rx="37.89" ry="18"/>
<text text-anchor="middle" x="1184.7" y="-86.3" font-family="Times New Roman,serif" font-size="14.00">IN2080</text>
</g>
<!-- IN1150 -->
<g id="node18" class="node">
<title>IN1150</title>
<ellipse fill="none" stroke="black" cx="1272.7" cy="-162" rx="37.89" ry="18"/>
<text text-anchor="middle" x="1272.7" y="-158.3" font-family="Times New Roman,serif" font-size="14.00">IN1150</text>
</g>
<!-- IN1150&#45;&gt;IN2080 -->
<g id="edge58" class="edge">
<title>IN1150&#45;&gt;IN2080</title>
<path fill="none" stroke="red" d="M1254.03,-146.15C1241.67,-136.32 1225.25,-123.26 1211.49,-112.32"/>
<polygon fill="red" stroke="red" points="1213.34,-109.31 1203.33,-105.82 1208.98,-114.79 1213.34,-109.31"/>
</g>
<!-- IN1150&#45;&gt;IN3015 -->
<g id="edge59" class="edge">
<title>IN1150&#45;&gt;IN3015</title>
<path fill="none" stroke="green" d="M1268.66,-143.84C1263.25,-124.22 1251.9,-92.21 1231.7,-72 1211.68,-51.98 1182.71,-38.69 1158.85,-30.43"/>
<polygon fill="green" stroke="green" points="1159.91,-27.09 1149.32,-27.29 1157.73,-33.74 1159.91,-27.09"/>
</g>
<!-- IN1150&#45;&gt;IN3040 -->
<g id="edge60" class="edge">
<title>IN1150&#45;&gt;IN3040</title>
<path fill="none" stroke="green" d="M1244.04,-150.22C1212.09,-138.19 1160.27,-118.69 1124.9,-105.38"/>
<polygon fill="green" stroke="green" points="1125.98,-102.04 1115.38,-101.8 1123.51,-108.59 1125.98,-102.04"/>
</g>
<!-- IN1150&#45;&gt;IN3070 -->
<g id="edge61" class="edge">
<title>IN1150&#45;&gt;IN3070</title>
<path fill="none" stroke="green" d="M1297.87,-148.32C1320.21,-137.07 1353.03,-120.54 1377.7,-108.12"/>
<polygon fill="green" stroke="green" points="1379.35,-111.21 1386.71,-103.58 1376.21,-104.95 1379.35,-111.21"/>
</g>
<!-- IN2110 -->
<g id="node20" class="node">
<title>IN2110</title>
<ellipse fill="none" stroke="black" cx="1936.7" cy="-306" rx="37.89" ry="18"/>
<text text-anchor="middle" x="1936.7" y="-302.3" font-family="Times New Roman,serif" font-size="14.00">IN2110</text>
</g>
<!-- IN2110&#45;&gt;IN2100 -->
<g id="edge62" class="edge">
<title>IN2110&#45;&gt;IN2100</title>
<path fill="none" stroke="red" d="M1925.8,-288.41C1920.24,-279.95 1913.36,-269.49 1907.18,-260.08"/>
<polygon fill="red" stroke="red" points="1909.94,-257.9 1901.52,-251.47 1904.09,-261.75 1909.94,-257.9"/>
</g>
<!-- IN1140 -->
<g id="node21" class="node">
<title>IN1140</title>
<ellipse fill="none" stroke="black" cx="1843.7" cy="-306" rx="37.89" ry="18"/>
<text text-anchor="middle" x="1843.7" y="-302.3" font-family="Times New Roman,serif" font-size="14.00">IN1140</text>
</g>
<!-- IN1140&#45;&gt;IN2100 -->
<g id="edge63" class="edge">
<title>IN1140&#45;&gt;IN2100</title>
<path fill="none" stroke="green" d="M1854.6,-288.76C1860.33,-280.23 1867.48,-269.58 1873.9,-260.02"/>
<polygon fill="green" stroke="green" points="1876.86,-261.89 1879.53,-251.63 1871.05,-257.98 1876.86,-261.89"/>
</g>
<!-- IN2140 -->
<g id="node23" class="node">
<title>IN2140</title>
<ellipse fill="none" stroke="black" cx="229.7" cy="-234" rx="37.89" ry="18"/>
<text text-anchor="middle" x="229.7" y="-230.3" font-family="Times New Roman,serif" font-size="14.00">IN2140</text>
</g>
<!-- IN2140&#45;&gt;IN2120 -->
<g id="edge64" class="edge">
<title>IN2140&#45;&gt;IN2120</title>
<path fill="none" stroke="red" d="M250.14,-218.83C265.06,-208.49 285.49,-194.33 302.04,-182.86"/>
<polygon fill="red" stroke="red" points="304.06,-185.72 310.29,-177.14 300.08,-179.96 304.06,-185.72"/>
</g>
<!-- IN2140&#45;&gt;IN3000 -->
<g id="edge65" class="edge">
<title>IN2140&#45;&gt;IN3000</title>
<path fill="none" stroke="green" d="M235.32,-216.06C242.96,-195.73 258.64,-162.09 283.7,-144 341.73,-102.09 372.09,-128.45 440.7,-108 443.28,-107.23 445.94,-106.39 448.6,-105.51"/>
<polygon fill="green" stroke="green" points="449.88,-108.77 458.18,-102.19 447.58,-102.15 449.88,-108.77"/>
</g>
<!-- IN2140&#45;&gt;IN3230 -->
<g id="edge66" class="edge">
<title>IN2140&#45;&gt;IN3230</title>
<path fill="none" stroke="red" d="M220.27,-216.5C210.94,-197.78 199.77,-166.87 212.7,-144 223.08,-125.62 242.68,-112.91 260.74,-104.55"/>
<polygon fill="red" stroke="red" points="262.19,-107.74 270,-100.57 259.43,-101.31 262.19,-107.74"/>
</g>
<!-- IN2140&#45;&gt;IN3260 -->
<g id="edge67" class="edge">
<title>IN2140&#45;&gt;IN3260</title>
<path fill="none" stroke="red" d="M229.17,-215.76C229.51,-196.07 233.03,-163.98 250.7,-144 250.81,-143.87 312.98,-120.85 355.3,-105.2"/>
<polygon fill="red" stroke="red" points="356.63,-108.44 364.79,-101.69 354.2,-101.88 356.63,-108.44"/>
</g>
<!-- IN1020 -->
<g id="node24" class="node">
<title>IN1020</title>
<ellipse fill="none" stroke="black" cx="325.7" cy="-234" rx="37.89" ry="18"/>
<text text-anchor="middle" x="325.7" y="-230.3" font-family="Times New Roman,serif" font-size="14.00">IN1020</text>
</g>
<!-- IN1020&#45;&gt;IN2120 -->
<g id="edge68" class="edge">
<title>IN1020&#45;&gt;IN2120</title>
<path fill="none" stroke="red" d="M326.93,-215.7C327.48,-207.98 328.15,-198.71 328.76,-190.11"/>
<polygon fill="red" stroke="red" points="332.25,-190.33 329.47,-180.1 325.27,-189.83 332.25,-190.33"/>
</g>
<!-- IN3020 -->
<g id="node28" class="node">
<title>IN3020</title>
<ellipse fill="none" stroke="black" cx="1316.7" cy="-90" rx="37.89" ry="18"/>
<text text-anchor="middle" x="1316.7" y="-86.3" font-family="Times New Roman,serif" font-size="14.00">IN3020</text>
</g>
<!-- IN3020&#45;&gt;IN3015 -->
<g id="edge69" class="edge">
<title>IN3020&#45;&gt;IN3015</title>
<path fill="none" stroke="red" d="M1287.19,-78.67C1252.47,-66.52 1194.71,-46.3 1156.17,-32.82"/>
<polygon fill="red" stroke="red" points="1156.92,-29.37 1146.33,-29.37 1154.61,-35.98 1156.92,-29.37"/>
</g>
<!-- IN3050 -->
<g id="node31" class="node">
<title>IN3050</title>
<ellipse fill="none" stroke="black" cx="1179.7" cy="-162" rx="37.89" ry="18"/>
<text text-anchor="middle" x="1179.7" y="-158.3" font-family="Times New Roman,serif" font-size="14.00">IN3050</text>
</g>
<!-- IN3050&#45;&gt;IN3040 -->
<g id="edge70" class="edge">
<title>IN3050&#45;&gt;IN3040</title>
<path fill="none" stroke="red" d="M1160.43,-146.5C1147.08,-136.45 1129.12,-122.93 1114.27,-111.75"/>
<polygon fill="red" stroke="red" points="1116.04,-108.7 1105.94,-105.49 1111.83,-114.3 1116.04,-108.7"/>
</g>
<!-- IN3060 -->
<g id="node32" class="node">
<title>IN3060</title>
<ellipse fill="none" stroke="black" cx="1086.7" cy="-162" rx="37.89" ry="18"/>
<text text-anchor="middle" x="1086.7" y="-158.3" font-family="Times New Roman,serif" font-size="14.00">IN3060</text>
</g>
<!-- IN3060&#45;&gt;IN3040 -->
<g id="edge71" class="edge">
<title>IN3060&#45;&gt;IN3040</title>
<path fill="none" stroke="red" d="M1086.7,-143.7C1086.7,-135.98 1086.7,-126.71 1086.7,-118.11"/>
<polygon fill="red" stroke="red" points="1090.2,-118.1 1086.7,-108.1 1083.2,-118.1 1090.2,-118.1"/>
</g>
<!-- IN3110 -->
<g id="node34" class="node">
<title>IN3110</title>
<ellipse fill="none" stroke="black" cx="1518.7" cy="-162" rx="37.89" ry="18"/>
<text text-anchor="middle" x="1518.7" y="-158.3" font-family="Times New Roman,serif" font-size="14.00">IN3110</text>
</g>
<!-- IN3110&#45;&gt;IN3070 -->
<g id="edge72" class="edge">
<title>IN3110&#45;&gt;IN3070</title>
<path fill="none" stroke="red" d="M1497.3,-147C1481.41,-136.61 1459.52,-122.29 1441.85,-110.73"/>
<polygon fill="red" stroke="red" points="1443.34,-107.52 1433.06,-104.97 1439.51,-113.38 1443.34,-107.52"/>
</g>
<!-- IN3120 -->
<g id="node35" class="node">
<title>IN3120</title>
<ellipse fill="none" stroke="black" cx="1611.7" cy="-162" rx="37.89" ry="18"/>
<text text-anchor="middle" x="1611.7" y="-158.3" font-family="Times New Roman,serif" font-size="14.00">IN3120</text>
</g>
<!-- IN3120&#45;&gt;IN3070 -->
<g id="edge73" class="edge">
<title>IN3120&#45;&gt;IN3070</title>
<path fill="none" stroke="red" d="M1583.02,-150.29C1577.29,-148.18 1571.31,-146 1565.7,-144 1526.89,-130.15 1482.36,-114.9 1451.2,-104.32"/>
<polygon fill="red" stroke="red" points="1452.17,-100.96 1441.58,-101.06 1449.92,-107.59 1452.17,-100.96"/>
</g>
<!-- IN3160 -->
<g id="node38" class="node">
<title>IN3160</title>
<ellipse fill="none" stroke="black" cx="1797.7" cy="-234" rx="37.89" ry="18"/>
<text text-anchor="middle" x="1797.7" y="-230.3" font-family="Times New Roman,serif" font-size="14.00">IN3160</text>
</g>
<!-- IN3160&#45;&gt;IN3140 -->
<g id="edge74" class="edge">
<title>IN3160&#45;&gt;IN3140</title>
<path fill="none" stroke="red" d="M1778.43,-218.5C1765.08,-208.45 1747.12,-194.93 1732.27,-183.75"/>
<polygon fill="red" stroke="red" points="1734.04,-180.7 1723.94,-177.49 1729.83,-186.3 1734.04,-180.7"/>
</g>
<!-- IN3170 -->
<g id="node39" class="node">
<title>IN3170</title>
<ellipse fill="none" stroke="black" cx="1704.7" cy="-234" rx="37.89" ry="18"/>
<text text-anchor="middle" x="1704.7" y="-230.3" font-family="Times New Roman,serif" font-size="14.00">IN3170</text>
</g>
<!-- IN3170&#45;&gt;IN3140 -->
<g id="edge75" class="edge">
<title>IN3170&#45;&gt;IN3140</title>
<path fill="none" stroke="red" d="M1704.7,-215.7C1704.7,-207.98 1704.7,-198.71 1704.7,-190.11"/>
<polygon fill="red" stroke="red" points="1708.2,-190.1 1704.7,-180.1 1701.2,-190.1 1708.2,-190.1"/>
</g>
<!-- IN3200 -->
<g id="node41" class="node">
<title>IN3200</title>
<ellipse fill="none" stroke="black" cx="457.7" cy="-306" rx="37.89" ry="18"/>
<text text-anchor="middle" x="457.7" y="-302.3" font-family="Times New Roman,serif" font-size="14.00">IN3200</text>
</g>
<!-- IN3200&#45;&gt;IN3190 -->
<g id="edge76" class="edge">
<title>IN3200&#45;&gt;IN3190</title>
<path fill="none" stroke="red" d="M457.7,-287.7C457.7,-279.98 457.7,-270.71 457.7,-262.11"/>
<polygon fill="red" stroke="red" points="461.2,-262.1 457.7,-252.1 454.2,-262.1 461.2,-262.1"/>
</g>
<!-- IN3250 -->
<g id="node45" class="node">
<title>IN3250</title>
<ellipse fill="none" stroke="black" cx="2029.7" cy="-306" rx="37.89" ry="18"/>
<text text-anchor="middle" x="2029.7" y="-302.3" font-family="Times New Roman,serif" font-size="14.00">IN3250</text>
</g>
</g>
</svg>
