<?xml version="1.0" encoding="UTF-8" standalone="no"?>
<!DOCTYPE svg PUBLIC "-//W3C//DTD SVG 1.1//EN"
 "http://www.w3.org/Graphics/SVG/1.1/DTD/svg11.dtd">
<!-- Generated by graphviz version 2.49.0 (20210828.1703)
 -->
<!-- Pages: 1 -->
<svg width="2927pt" height="620pt"
 viewBox="0.00 0.00 2927.20 620.00" xmlns="http://www.w3.org/2000/svg" xmlns:xlink="http://www.w3.org/1999/xlink">
<g id="graph0" class="graph" transform="scale(1 1) rotate(0) translate(4 616)">
<polygon fill="white" stroke="transparent" points="-4,4 -4,-616 2923.2,-616 2923.2,4 -4,4"/>
<!-- JUR5030 -->
<g id="node1" class="node">
<title>JUR5030</title>
<ellipse fill="none" stroke="black" cx="1800" cy="-162" rx="44.39" ry="18"/>
<text text-anchor="middle" x="1800" y="-158.3" font-family="Times New Roman,serif" font-size="14.00">JUR5030</text>
</g>
<!-- JUS1111 -->
<g id="node2" class="node">
<title>JUS1111</title>
<ellipse fill="none" stroke="black" cx="1414" cy="-594" rx="43.59" ry="18"/>
<text text-anchor="middle" x="1414" y="-590.3" font-family="Times New Roman,serif" font-size="14.00">JUS1111</text>
</g>
<!-- JUS1111&#45;&gt;JUR5030 -->
<g id="edge1" class="edge">
<title>JUS1111&#45;&gt;JUR5030</title>
<path fill="none" stroke="red" d="M1453.29,-585.96C1493.53,-577.92 1557.34,-562.84 1609,-540 1704.94,-497.58 1733.16,-479.99 1796,-396 1847.52,-327.14 1904.47,-293.41 1867,-216 1860.23,-202.01 1847.77,-190.59 1835.42,-181.98"/>
<polygon fill="red" stroke="red" points="1837.24,-178.99 1826.95,-176.47 1833.43,-184.86 1837.24,-178.99"/>
</g>
<!-- JUS1211 -->
<g id="node3" class="node">
<title>JUS1211</title>
<ellipse fill="none" stroke="black" cx="1414" cy="-522" rx="43.59" ry="18"/>
<text text-anchor="middle" x="1414" y="-518.3" font-family="Times New Roman,serif" font-size="14.00">JUS1211</text>
</g>
<!-- JUS1111&#45;&gt;JUS1211 -->
<g id="edge3" class="edge">
<title>JUS1111&#45;&gt;JUS1211</title>
<path fill="none" stroke="green" d="M1414,-575.7C1414,-567.98 1414,-558.71 1414,-550.11"/>
<polygon fill="green" stroke="green" points="1417.5,-550.1 1414,-540.1 1410.5,-550.1 1417.5,-550.1"/>
</g>
<!-- JUS2111 -->
<g id="node5" class="node">
<title>JUS2111</title>
<ellipse fill="none" stroke="black" cx="1233" cy="-450" rx="43.59" ry="18"/>
<text text-anchor="middle" x="1233" y="-446.3" font-family="Times New Roman,serif" font-size="14.00">JUS2111</text>
</g>
<!-- JUS1111&#45;&gt;JUS2111 -->
<g id="edge4" class="edge">
<title>JUS1111&#45;&gt;JUS2111</title>
<path fill="none" stroke="red" d="M1371.11,-590.11C1334.81,-585.34 1284.03,-572.81 1254,-540 1238.8,-523.4 1234,-497.9 1232.73,-478.44"/>
<polygon fill="red" stroke="red" points="1236.23,-478.21 1232.35,-468.35 1229.23,-478.47 1236.23,-478.21"/>
</g>
<!-- JUS2211 -->
<g id="node6" class="node">
<title>JUS2211</title>
<ellipse fill="none" stroke="black" cx="1489" cy="-378" rx="43.59" ry="18"/>
<text text-anchor="middle" x="1489" y="-374.3" font-family="Times New Roman,serif" font-size="14.00">JUS2211</text>
</g>
<!-- JUS1111&#45;&gt;JUS2211 -->
<g id="edge5" class="edge">
<title>JUS1111&#45;&gt;JUS2211</title>
<path fill="none" stroke="red" d="M1432.08,-577.47C1443.03,-567.48 1456.8,-553.82 1467,-540 1488.48,-510.88 1496.3,-503.12 1505,-468 1510.17,-447.14 1505.23,-423.14 1499.52,-405.32"/>
<polygon fill="red" stroke="red" points="1502.83,-404.16 1496.24,-395.87 1496.21,-406.46 1502.83,-404.16"/>
</g>
<!-- JUS3111 -->
<g id="node9" class="node">
<title>JUS3111</title>
<ellipse fill="none" stroke="black" cx="1318" cy="-306" rx="43.59" ry="18"/>
<text text-anchor="middle" x="1318" y="-302.3" font-family="Times New Roman,serif" font-size="14.00">JUS3111</text>
</g>
<!-- JUS1111&#45;&gt;JUS3111 -->
<g id="edge6" class="edge">
<title>JUS1111&#45;&gt;JUS3111</title>
<path fill="none" stroke="red" d="M1442.1,-580.06C1459.15,-570.97 1480.2,-557.34 1494,-540 1545.56,-475.22 1593.36,-424.94 1542,-360 1520.97,-333.41 1429.4,-318.78 1370.05,-311.94"/>
<polygon fill="red" stroke="red" points="1370.42,-308.46 1360.09,-310.83 1369.64,-315.42 1370.42,-308.46"/>
</g>
<!-- JUR5060 -->
<g id="node13" class="node">
<title>JUR5060</title>
<ellipse fill="none" stroke="black" cx="2180" cy="-162" rx="44.39" ry="18"/>
<text text-anchor="middle" x="2180" y="-158.3" font-family="Times New Roman,serif" font-size="14.00">JUR5060</text>
</g>
<!-- JUS1111&#45;&gt;JUR5060 -->
<g id="edge2" class="edge">
<title>JUS1111&#45;&gt;JUR5060</title>
<path fill="none" stroke="red" d="M1457.47,-592.09C1641.57,-587.25 2353.86,-558.16 2489,-396 2538.29,-336.86 2516.62,-297.83 2407,-216 2356.74,-178.48 2284.14,-166.97 2234.67,-163.72"/>
<polygon fill="red" stroke="red" points="2234.66,-160.21 2224.48,-163.14 2234.27,-167.2 2234.66,-160.21"/>
</g>
<!-- JUS3112 -->
<g id="node14" class="node">
<title>JUS3112</title>
<ellipse fill="none" stroke="black" cx="566" cy="-306" rx="43.59" ry="18"/>
<text text-anchor="middle" x="566" y="-302.3" font-family="Times New Roman,serif" font-size="14.00">JUS3112</text>
</g>
<!-- JUS1111&#45;&gt;JUS3112 -->
<g id="edge7" class="edge">
<title>JUS1111&#45;&gt;JUS3112</title>
<path fill="none" stroke="red" d="M1370.34,-593.11C1213.47,-592.53 681.66,-582.08 567,-468 532.01,-433.19 544.81,-369.81 556.12,-333.83"/>
<polygon fill="red" stroke="red" points="559.55,-334.62 559.38,-324.03 552.91,-332.41 559.55,-334.62"/>
</g>
<!-- JUS3212 -->
<g id="node15" class="node">
<title>JUS3212</title>
<ellipse fill="none" stroke="black" cx="612" cy="-234" rx="43.59" ry="18"/>
<text text-anchor="middle" x="612" y="-230.3" font-family="Times New Roman,serif" font-size="14.00">JUS3212</text>
</g>
<!-- JUS1111&#45;&gt;JUS3212 -->
<g id="edge8" class="edge">
<title>JUS1111&#45;&gt;JUS3212</title>
<path fill="none" stroke="red" d="M1370.44,-592.92C1147.73,-592.28 144.97,-586.83 100,-540 -53.26,-380.43 406.75,-274.63 562.44,-244.11"/>
<polygon fill="red" stroke="red" points="563.52,-247.46 572.68,-242.13 562.19,-240.59 563.52,-247.46"/>
</g>
<!-- JUS3213 -->
<g id="node16" class="node">
<title>JUS3213</title>
<ellipse fill="none" stroke="black" cx="1724" cy="-234" rx="43.59" ry="18"/>
<text text-anchor="middle" x="1724" y="-230.3" font-family="Times New Roman,serif" font-size="14.00">JUS3213</text>
</g>
<!-- JUS1111&#45;&gt;JUS3213 -->
<g id="edge9" class="edge">
<title>JUS1111&#45;&gt;JUS3213</title>
<path fill="none" stroke="red" d="M1448.45,-582.87C1531.15,-556.43 1739.78,-476.54 1817,-324 1824.23,-309.72 1825.04,-301.83 1817,-288 1806.3,-269.58 1786.53,-257.03 1767.97,-248.79"/>
<polygon fill="red" stroke="red" points="1769.29,-245.54 1758.71,-244.97 1766.62,-252.02 1769.29,-245.54"/>
</g>
<!-- JUS3220 -->
<g id="node17" class="node">
<title>JUS3220</title>
<ellipse fill="none" stroke="black" cx="756" cy="-234" rx="43.59" ry="18"/>
<text text-anchor="middle" x="756" y="-230.3" font-family="Times New Roman,serif" font-size="14.00">JUS3220</text>
</g>
<!-- JUS1111&#45;&gt;JUS3220 -->
<g id="edge10" class="edge">
<title>JUS1111&#45;&gt;JUS3220</title>
<path fill="none" stroke="red" d="M1370.39,-593.33C1225.18,-593.92 759.33,-591.66 620,-540 569.99,-521.46 558.62,-508.57 524,-468 471.15,-406.07 436.63,-349.49 490,-288 491.79,-285.93 631.26,-258.92 707.5,-244.28"/>
<polygon fill="red" stroke="red" points="708.2,-247.71 717.36,-242.39 706.88,-240.83 708.2,-247.71"/>
</g>
<!-- JUS4111 -->
<g id="node18" class="node">
<title>JUS4111</title>
<ellipse fill="none" stroke="black" cx="1432" cy="-90" rx="43.59" ry="18"/>
<text text-anchor="middle" x="1432" y="-86.3" font-family="Times New Roman,serif" font-size="14.00">JUS4111</text>
</g>
<!-- JUS1111&#45;&gt;JUS4111 -->
<g id="edge11" class="edge">
<title>JUS1111&#45;&gt;JUS4111</title>
<path fill="none" stroke="red" d="M1457.74,-592.76C1680.02,-591 2674,-576.13 2674,-451 2674,-451 2674,-451 2674,-377 2674,-236.09 2586.57,-203.83 2459,-144 2414.61,-123.18 1690.14,-99.06 1485.47,-92.64"/>
<polygon fill="red" stroke="red" points="1485.38,-89.14 1475.27,-92.32 1485.16,-96.13 1485.38,-89.14"/>
</g>
<!-- JUS4211 -->
<g id="node19" class="node">
<title>JUS4211</title>
<ellipse fill="none" stroke="black" cx="836" cy="-162" rx="43.59" ry="18"/>
<text text-anchor="middle" x="836" y="-158.3" font-family="Times New Roman,serif" font-size="14.00">JUS4211</text>
</g>
<!-- JUS1111&#45;&gt;JUS4211 -->
<g id="edge15" class="edge">
<title>JUS1111&#45;&gt;JUS4211</title>
<path fill="none" stroke="red" d="M1370.37,-592.92C1144.05,-591.93 114,-580.34 114,-451 114,-451 114,-451 114,-377 114,-237.26 617.46,-181.67 783.55,-167.14"/>
<polygon fill="red" stroke="red" points="783.87,-170.63 793.53,-166.28 783.27,-163.65 783.87,-170.63"/>
</g>
<!-- JUS4121 -->
<g id="node20" class="node">
<title>JUS4121</title>
<ellipse fill="none" stroke="black" cx="762" cy="-90" rx="43.59" ry="18"/>
<text text-anchor="middle" x="762" y="-86.3" font-family="Times New Roman,serif" font-size="14.00">JUS4121</text>
</g>
<!-- JUS1111&#45;&gt;JUS4121 -->
<g id="edge12" class="edge">
<title>JUS1111&#45;&gt;JUS4121</title>
<path fill="none" stroke="red" d="M1370.55,-592.62C1146.06,-590.49 125.92,-578.71 72,-540 37.6,-515.3 38,-493.34 38,-451 38,-451 38,-451 38,-377 38,-236.39 126.37,-207.14 252,-144 292.19,-123.8 586.8,-102.46 709.06,-94.37"/>
<polygon fill="red" stroke="red" points="709.55,-97.85 719.3,-93.7 709.09,-90.86 709.55,-97.85"/>
</g>
<!-- JUS4122 -->
<g id="node21" class="node">
<title>JUS4122</title>
<ellipse fill="none" stroke="black" cx="384" cy="-90" rx="43.59" ry="18"/>
<text text-anchor="middle" x="384" y="-86.3" font-family="Times New Roman,serif" font-size="14.00">JUS4122</text>
</g>
<!-- JUS1111&#45;&gt;JUS4122 -->
<g id="edge13" class="edge">
<title>JUS1111&#45;&gt;JUS4122</title>
<path fill="none" stroke="red" d="M1370.31,-592.6C1142.21,-590.36 96.4,-578.05 40,-540 4.05,-515.75 0,-494.37 0,-451 0,-451 0,-451 0,-233 0,-188.06 11.33,-169.98 48,-144 92.53,-112.46 247.85,-98.84 330.81,-93.7"/>
<polygon fill="red" stroke="red" points="331.03,-97.19 340.8,-93.1 330.61,-90.21 331.03,-97.19"/>
</g>
<!-- JUS4123 -->
<g id="node22" class="node">
<title>JUS4123</title>
<ellipse fill="none" stroke="black" cx="2056" cy="-90" rx="43.59" ry="18"/>
<text text-anchor="middle" x="2056" y="-86.3" font-family="Times New Roman,serif" font-size="14.00">JUS4123</text>
</g>
<!-- JUS1111&#45;&gt;JUS4123 -->
<g id="edge14" class="edge">
<title>JUS1111&#45;&gt;JUS4123</title>
<path fill="none" stroke="red" d="M1457.7,-592.83C1636.92,-591.82 2315.94,-585.03 2525,-540 2630.13,-517.35 2750,-558.54 2750,-451 2750,-451 2750,-451 2750,-233 2750,-190.33 2748.39,-169.26 2714,-144 2665.74,-108.56 2257.77,-95.66 2109.55,-92.12"/>
<polygon fill="red" stroke="red" points="2109.41,-88.62 2099.33,-91.88 2109.25,-95.61 2109.41,-88.62"/>
</g>
<!-- JUS1211&#45;&gt;JUR5030 -->
<g id="edge16" class="edge">
<title>JUS1211&#45;&gt;JUR5030</title>
<path fill="none" stroke="red" d="M1455.31,-515.99C1483.64,-512.58 1522.09,-507.97 1556,-504 1625.98,-495.81 1824.09,-520.57 1871,-468 1903.37,-431.72 1852.14,-224.79 1848,-216 1842.76,-204.88 1834.4,-194.44 1826.11,-185.81"/>
<polygon fill="red" stroke="red" points="1828.5,-183.25 1818.92,-178.72 1823.58,-188.23 1828.5,-183.25"/>
</g>
<!-- JUS1211&#45;&gt;JUS2111 -->
<g id="edge18" class="edge">
<title>JUS1211&#45;&gt;JUS2111</title>
<path fill="none" stroke="green" d="M1383.3,-509.13C1353,-497.41 1306.53,-479.44 1273.28,-466.58"/>
<polygon fill="green" stroke="green" points="1274.44,-463.28 1263.85,-462.93 1271.92,-469.8 1274.44,-463.28"/>
</g>
<!-- JUS1211&#45;&gt;JUS2211 -->
<g id="edge19" class="edge">
<title>JUS1211&#45;&gt;JUS2211</title>
<path fill="none" stroke="red" d="M1442.32,-508.09C1458.17,-499.24 1476.59,-485.85 1486,-468 1495.94,-449.13 1496.04,-424.76 1494.02,-406.29"/>
<polygon fill="red" stroke="red" points="1497.46,-405.62 1492.64,-396.19 1490.52,-406.57 1497.46,-405.62"/>
</g>
<!-- JUS1211&#45;&gt;JUS3111 -->
<g id="edge20" class="edge">
<title>JUS1211&#45;&gt;JUS3111</title>
<path fill="none" stroke="red" d="M1406.47,-504.21C1389.82,-467.11 1349.82,-377.92 1329.81,-333.32"/>
<polygon fill="red" stroke="red" points="1332.92,-331.7 1325.63,-324.01 1326.53,-334.57 1332.92,-331.7"/>
</g>
<!-- JUS1211&#45;&gt;JUR5060 -->
<g id="edge17" class="edge">
<title>JUS1211&#45;&gt;JUR5060</title>
<path fill="none" stroke="red" d="M1455.31,-515.92C1483.63,-512.47 1522.08,-507.85 1556,-504 1719.6,-485.42 2151.58,-486.68 2289,-396 2364.5,-346.18 2439.34,-287.56 2384,-216 2365.55,-192.14 2286.25,-177.03 2232.13,-169.3"/>
<polygon fill="red" stroke="red" points="2232.39,-165.8 2222,-167.89 2231.43,-172.73 2232.39,-165.8"/>
</g>
<!-- JUS1211&#45;&gt;JUS3112 -->
<g id="edge21" class="edge">
<title>JUS1211&#45;&gt;JUS3112</title>
<path fill="none" stroke="red" d="M1382.36,-509.56C1375.1,-507.35 1367.35,-505.32 1360,-504 1280.28,-489.72 698.12,-514.77 632,-468 609.21,-451.88 584.92,-375.11 573.18,-333.67"/>
<polygon fill="red" stroke="red" points="576.53,-332.65 570.47,-323.95 569.79,-334.53 576.53,-332.65"/>
</g>
<!-- JUS1211&#45;&gt;JUS3212 -->
<g id="edge22" class="edge">
<title>JUS1211&#45;&gt;JUS3212</title>
<path fill="none" stroke="red" d="M1382.36,-509.55C1375.1,-507.34 1367.35,-505.31 1360,-504 1277.21,-489.25 676.67,-510.32 604,-468 526.54,-422.88 466.94,-364.9 513,-288 524.62,-268.6 546.04,-255.89 565.99,-247.81"/>
<polygon fill="red" stroke="red" points="567.49,-250.98 575.62,-244.2 565.03,-244.43 567.49,-250.98"/>
</g>
<!-- JUS1211&#45;&gt;JUS3213 -->
<g id="edge23" class="edge">
<title>JUS1211&#45;&gt;JUS3213</title>
<path fill="none" stroke="red" d="M1450.55,-511.89C1463.01,-509.04 1477.05,-506.09 1490,-504 1568.93,-491.25 1794.36,-527.3 1848,-468 1908.11,-401.55 1804.05,-300.67 1751.54,-256.73"/>
<polygon fill="red" stroke="red" points="1753.53,-253.84 1743.59,-250.18 1749.08,-259.24 1753.53,-253.84"/>
</g>
<!-- JUS1211&#45;&gt;JUS3220 -->
<g id="edge24" class="edge">
<title>JUS1211&#45;&gt;JUS3220</title>
<path fill="none" stroke="red" d="M1381.34,-510.04C1374.34,-507.88 1366.96,-505.75 1360,-504 1109.06,-441.05 986.99,-561.33 788,-396 749.1,-363.68 748.75,-298.79 752.2,-262.03"/>
<polygon fill="red" stroke="red" points="755.69,-262.34 753.3,-252.02 748.73,-261.58 755.69,-262.34"/>
</g>
<!-- JUS1211&#45;&gt;JUS4111 -->
<g id="edge25" class="edge">
<title>JUS1211&#45;&gt;JUS4111</title>
<path fill="none" stroke="red" d="M1457.67,-521.47C1634.91,-522.53 2298.71,-518.14 2460,-396 2488.85,-374.16 2489.3,-359.12 2498,-324 2518.88,-239.71 2495.14,-190.81 2422,-144 2382.32,-118.61 1686.29,-97.88 1485.69,-92.41"/>
<polygon fill="red" stroke="red" points="1485.5,-88.91 1475.41,-92.13 1485.31,-95.9 1485.5,-88.91"/>
</g>
<!-- JUS1211&#45;&gt;JUS4211 -->
<g id="edge29" class="edge">
<title>JUS1211&#45;&gt;JUS4211</title>
<path fill="none" stroke="red" d="M1393.46,-506.06C1368.42,-488.01 1324.66,-456.95 1286,-432 1280.9,-428.71 971.16,-243.71 868.59,-182.46"/>
<polygon fill="red" stroke="red" points="870.26,-179.38 859.88,-177.26 866.67,-185.39 870.26,-179.38"/>
</g>
<!-- JUS1211&#45;&gt;JUS4121 -->
<g id="edge26" class="edge">
<title>JUS1211&#45;&gt;JUS4121</title>
<path fill="none" stroke="red" d="M1382.36,-509.53C1375.1,-507.32 1367.36,-505.3 1360,-504 1271.06,-488.31 627.48,-510.89 548,-468 421.27,-399.62 442.26,-239.54 550,-144 593.63,-105.31 661.31,-93.97 708.41,-91.09"/>
<polygon fill="red" stroke="red" points="708.62,-94.58 718.43,-90.59 708.27,-87.59 708.62,-94.58"/>
</g>
<!-- JUS1211&#45;&gt;JUS4122 -->
<g id="edge27" class="edge">
<title>JUS1211&#45;&gt;JUS4122</title>
<path fill="none" stroke="red" d="M1382.36,-509.52C1375.11,-507.31 1367.36,-505.29 1360,-504 1265.58,-487.46 585.6,-506.93 498,-468 375.08,-413.37 350.18,-370.22 286,-252 262.85,-209.36 243.9,-184.91 270,-144 284.39,-121.44 311.15,-108.33 335.12,-100.8"/>
<polygon fill="red" stroke="red" points="336.2,-104.13 344.83,-97.99 334.26,-97.4 336.2,-104.13"/>
</g>
<!-- JUS1211&#45;&gt;JUS4123 -->
<g id="edge28" class="edge">
<title>JUS1211&#45;&gt;JUS4123</title>
<path fill="none" stroke="red" d="M1457.63,-521.57C1590.62,-522.66 2002.35,-521.18 2338,-468 2462.36,-448.3 2513.39,-474.3 2612,-396 2703.62,-323.26 2767.19,-230.11 2688,-144 2649.2,-101.81 2255.29,-93.19 2109.71,-91.44"/>
<polygon fill="red" stroke="red" points="2109.7,-87.94 2099.66,-91.33 2109.62,-94.94 2109.7,-87.94"/>
</g>
<!-- JUR1000 -->
<g id="node4" class="node">
<title>JUR1000</title>
<ellipse fill="none" stroke="black" cx="1307" cy="-522" rx="44.39" ry="18"/>
<text text-anchor="middle" x="1307" y="-518.3" font-family="Times New Roman,serif" font-size="14.00">JUR1000</text>
</g>
<!-- JUR1000&#45;&gt;JUR5030 -->
<g id="edge30" class="edge">
<title>JUR1000&#45;&gt;JUR5030</title>
<path fill="none" stroke="red" d="M1340.63,-510.15C1347.36,-508.05 1354.39,-505.91 1361,-504 1569.87,-443.56 1834,-596.44 1834,-379 1834,-379 1834,-379 1834,-305 1834,-263.91 1820.37,-217.92 1810.37,-189.72"/>
<polygon fill="red" stroke="red" points="1813.6,-188.36 1806.88,-180.17 1807.03,-190.76 1813.6,-188.36"/>
</g>
<!-- JUR1000&#45;&gt;JUS2111 -->
<g id="edge32" class="edge">
<title>JUR1000&#45;&gt;JUS2111</title>
<path fill="none" stroke="red" d="M1290.21,-505.12C1280.46,-495.9 1268.02,-484.13 1257.23,-473.92"/>
<polygon fill="red" stroke="red" points="1259.4,-471.15 1249.73,-466.82 1254.58,-476.24 1259.4,-471.15"/>
</g>
<!-- JUR1000&#45;&gt;JUS2211 -->
<g id="edge33" class="edge">
<title>JUR1000&#45;&gt;JUS2211</title>
<path fill="none" stroke="red" d="M1326.48,-505.8C1358.96,-480.46 1424.28,-429.49 1461.46,-400.49"/>
<polygon fill="red" stroke="red" points="1463.66,-403.21 1469.39,-394.3 1459.35,-397.69 1463.66,-403.21"/>
</g>
<!-- JUR1000&#45;&gt;JUS3111 -->
<g id="edge34" class="edge">
<title>JUR1000&#45;&gt;JUS3111</title>
<path fill="none" stroke="red" d="M1307.88,-503.85C1309.78,-466.83 1314.29,-379.18 1316.59,-334.39"/>
<polygon fill="red" stroke="red" points="1320.1,-334.4 1317.11,-324.23 1313.11,-334.04 1320.1,-334.4"/>
</g>
<!-- JUR1000&#45;&gt;JUR5060 -->
<g id="edge31" class="edge">
<title>JUR1000&#45;&gt;JUR5060</title>
<path fill="none" stroke="red" d="M1339.24,-509.53C1346.33,-507.38 1353.86,-505.38 1361,-504 1567.58,-464.15 1628.75,-518.45 1833,-468 1989.54,-429.34 2035.71,-419 2166,-324 2200.36,-298.95 2214.04,-291.8 2229,-252 2234.63,-237.02 2234.83,-230.9 2229,-216 2224.48,-204.45 2216.13,-193.9 2207.58,-185.32"/>
<polygon fill="red" stroke="red" points="2209.8,-182.6 2200.11,-178.3 2205,-187.7 2209.8,-182.6"/>
</g>
<!-- JUR1000&#45;&gt;JUS3112 -->
<g id="edge35" class="edge">
<title>JUR1000&#45;&gt;JUS3112</title>
<path fill="none" stroke="red" d="M1262.83,-520.81C1114.92,-519.77 643.55,-512.91 594,-468 556.95,-434.41 557.65,-370.75 561.67,-334.35"/>
<polygon fill="red" stroke="red" points="565.2,-334.36 562.99,-323.99 558.26,-333.47 565.2,-334.36"/>
</g>
<!-- JUR1000&#45;&gt;JUS3212 -->
<g id="edge36" class="edge">
<title>JUR1000&#45;&gt;JUS3212</title>
<path fill="none" stroke="red" d="M1262.92,-520.43C1106.88,-518.08 586.68,-507.33 524,-468 449.53,-421.28 389.9,-358.81 442,-288 468.4,-252.11 518.96,-239.83 558.1,-235.96"/>
<polygon fill="red" stroke="red" points="558.62,-239.43 568.3,-235.11 558.04,-232.45 558.62,-239.43"/>
</g>
<!-- JUR1000&#45;&gt;JUS3213 -->
<g id="edge37" class="edge">
<title>JUR1000&#45;&gt;JUS3213</title>
<path fill="none" stroke="red" d="M1334.34,-507.56C1355.62,-497.01 1385.83,-481.85 1412,-468 1470.38,-437.11 1488.05,-434.11 1542,-396 1603.56,-352.51 1667.85,-291.3 1701.07,-258.29"/>
<polygon fill="red" stroke="red" points="1703.84,-260.46 1708.44,-250.92 1698.89,-255.51 1703.84,-260.46"/>
</g>
<!-- JUR1000&#45;&gt;JUS3220 -->
<g id="edge38" class="edge">
<title>JUR1000&#45;&gt;JUS3220</title>
<path fill="none" stroke="red" d="M1262.79,-520.58C1111.79,-518.75 622.75,-509.66 567,-468 500.1,-418 460.61,-353.05 513,-288 519.12,-280.4 637.7,-257.12 706.91,-244.08"/>
<polygon fill="red" stroke="red" points="707.97,-247.44 717.16,-242.16 706.68,-240.56 707.97,-247.44"/>
</g>
<!-- JUR1000&#45;&gt;JUS4111 -->
<g id="edge39" class="edge">
<title>JUR1000&#45;&gt;JUS4111</title>
<path fill="none" stroke="red" d="M1338.94,-509.56C1346.12,-507.38 1353.75,-505.36 1361,-504 1603.1,-458.69 1673.54,-521.29 1914,-468 2000.14,-448.91 2017.88,-430.7 2099,-396 2237.93,-336.56 2325.87,-379.49 2407,-252 2467.08,-157.58 2322.82,-160.69 2260,-144 2112.96,-104.93 1644.82,-94.25 1485.61,-91.71"/>
<polygon fill="red" stroke="red" points="1485.63,-88.21 1475.57,-91.56 1485.52,-95.21 1485.63,-88.21"/>
</g>
<!-- JUR1000&#45;&gt;JUS4211 -->
<g id="edge43" class="edge">
<title>JUR1000&#45;&gt;JUS4211</title>
<path fill="none" stroke="red" d="M1262.96,-520.18C1081.16,-516.6 397.17,-500.98 366,-468 272.67,-369.26 67.31,-495.45 546,-216 585.55,-192.91 711.51,-176.2 783.75,-168.24"/>
<polygon fill="red" stroke="red" points="784.44,-171.69 794,-167.13 783.68,-164.73 784.44,-171.69"/>
</g>
<!-- JUR1000&#45;&gt;JUS4121 -->
<g id="edge40" class="edge">
<title>JUR1000&#45;&gt;JUS4121</title>
<path fill="none" stroke="red" d="M1262.95,-519.85C1101.17,-515.38 545.41,-498 472,-468 336.07,-412.45 283.09,-385.53 222,-252 215.34,-237.45 212.96,-229.2 222,-216 272.11,-142.88 322.31,-166.7 408,-144 512.99,-116.19 639.63,-101.65 709.41,-95.22"/>
<polygon fill="red" stroke="red" points="710.06,-98.68 719.7,-94.29 709.43,-91.71 710.06,-98.68"/>
</g>
<!-- JUR1000&#45;&gt;JUS4122 -->
<g id="edge41" class="edge">
<title>JUR1000&#45;&gt;JUS4122</title>
<path fill="none" stroke="red" d="M1263.07,-519.85C1091.28,-515.15 470.4,-496.37 387,-468 225.59,-413.1 149.68,-402.72 70,-252 47.57,-209.57 39.01,-180.66 70,-144 102.66,-105.36 249.13,-94.88 329.97,-92.05"/>
<polygon fill="red" stroke="red" points="330.57,-95.53 340.45,-91.71 330.34,-88.53 330.57,-95.53"/>
</g>
<!-- JUR1000&#45;&gt;JUS4123 -->
<g id="edge42" class="edge">
<title>JUR1000&#45;&gt;JUS4123</title>
<path fill="none" stroke="red" d="M1338.94,-509.52C1346.11,-507.34 1353.75,-505.33 1361,-504 1632.92,-454.11 1710.73,-521.33 1982,-468 2272.44,-410.91 2439.95,-492.87 2612,-252 2621.3,-238.98 2621.36,-228.97 2612,-216 2553.07,-134.36 2236.41,-103.52 2109.07,-94.31"/>
<polygon fill="red" stroke="red" points="2109.01,-90.8 2098.79,-93.59 2108.52,-97.78 2109.01,-90.8"/>
</g>
<!-- JUS2111&#45;&gt;JUR5030 -->
<g id="edge44" class="edge">
<title>JUS2111&#45;&gt;JUR5030</title>
<path fill="none" stroke="red" d="M1245.37,-432.4C1260.19,-413.3 1286.47,-381.77 1314,-360 1326.95,-349.76 1428.49,-293.65 1444,-288 1522.29,-259.47 1552.79,-287.88 1628,-252 1650.5,-241.27 1649.67,-228.89 1671,-216 1697.92,-199.74 1730.74,-186.33 1756.53,-177.07"/>
<polygon fill="red" stroke="red" points="1757.78,-180.34 1766.05,-173.73 1755.46,-173.74 1757.78,-180.34"/>
</g>
<!-- JUS2111&#45;&gt;JUS2211 -->
<g id="edge46" class="edge">
<title>JUS2111&#45;&gt;JUS2211</title>
<path fill="none" stroke="green" d="M1268.33,-439.34C1314.01,-426.85 1393.64,-405.08 1443.72,-391.38"/>
<polygon fill="green" stroke="green" points="1444.9,-394.69 1453.62,-388.67 1443.06,-387.93 1444.9,-394.69"/>
</g>
<!-- JUS2111&#45;&gt;JUS3111 -->
<g id="edge47" class="edge">
<title>JUS2111&#45;&gt;JUS3111</title>
<path fill="none" stroke="red" d="M1233.05,-431.66C1233.85,-412.73 1237.39,-382.17 1251,-360 1259.26,-346.55 1272.23,-335.12 1284.57,-326.36"/>
<polygon fill="red" stroke="red" points="1286.6,-329.21 1292.95,-320.73 1282.7,-323.4 1286.6,-329.21"/>
</g>
<!-- JUS2111&#45;&gt;JUR5060 -->
<g id="edge45" class="edge">
<title>JUS2111&#45;&gt;JUR5060</title>
<path fill="none" stroke="red" d="M1275.55,-445.8C1429.99,-433.74 1960.13,-388.45 2116,-324 2165.29,-303.62 2188.15,-299.7 2212,-252 2222.48,-231.05 2211.34,-205.81 2199.42,-187.57"/>
<polygon fill="red" stroke="red" points="2202.2,-185.43 2193.6,-179.23 2196.45,-189.43 2202.2,-185.43"/>
</g>
<!-- JUS2111&#45;&gt;JUS3112 -->
<g id="edge48" class="edge">
<title>JUS2111&#45;&gt;JUS3112</title>
<path fill="none" stroke="red" d="M1189.77,-447.17C1080.74,-442.16 796.93,-426.49 708,-396 664.04,-380.93 619.66,-350.02 592.5,-328.9"/>
<polygon fill="red" stroke="red" points="594.32,-325.88 584.3,-322.42 589.98,-331.37 594.32,-325.88"/>
</g>
<!-- JUS2111&#45;&gt;JUS3212 -->
<g id="edge49" class="edge">
<title>JUS2111&#45;&gt;JUS3212</title>
<path fill="none" stroke="red" d="M1189.46,-447.66C1091.61,-444.04 857.41,-431.8 788,-396 730.4,-366.29 738.93,-330.51 690,-288 675.98,-275.82 659.07,-264.02 644.58,-254.67"/>
<polygon fill="red" stroke="red" points="646.24,-251.57 635.92,-249.17 642.49,-257.49 646.24,-251.57"/>
</g>
<!-- JUS2111&#45;&gt;JUS3213 -->
<g id="edge50" class="edge">
<title>JUS2111&#45;&gt;JUS3213</title>
<path fill="none" stroke="red" d="M1255.12,-434.21C1302.62,-403.06 1418.69,-330.08 1525,-288 1585.14,-264.19 1603.62,-269.1 1666,-252 1670.57,-250.75 1675.33,-249.41 1680.07,-248.05"/>
<polygon fill="red" stroke="red" points="1681.07,-251.41 1689.71,-245.27 1679.13,-244.68 1681.07,-251.41"/>
</g>
<!-- JUS2111&#45;&gt;JUS3220 -->
<g id="edge51" class="edge">
<title>JUS2111&#45;&gt;JUS3220</title>
<path fill="none" stroke="red" d="M1189.39,-448.77C1095.63,-447.44 878.77,-439.61 822,-396 779.59,-363.42 764.27,-298.91 758.86,-262.21"/>
<polygon fill="red" stroke="red" points="762.32,-261.66 757.53,-252.21 755.38,-262.59 762.32,-261.66"/>
</g>
<!-- JUS2111&#45;&gt;JUS4111 -->
<g id="edge52" class="edge">
<title>JUS2111&#45;&gt;JUS4111</title>
<path fill="none" stroke="red" d="M1210.68,-434.25C1143.57,-388.18 953.52,-244.13 1041,-144 1062.92,-118.91 1277.38,-101.34 1379.05,-94.36"/>
<polygon fill="red" stroke="red" points="1379.37,-97.84 1389.11,-93.67 1378.9,-90.86 1379.37,-97.84"/>
</g>
<!-- JUS2111&#45;&gt;JUS4211 -->
<g id="edge56" class="edge">
<title>JUS2111&#45;&gt;JUS4211</title>
<path fill="none" stroke="red" d="M1189.49,-448C1137.29,-445.01 1048.72,-434.17 984,-396 911,-352.95 898.43,-327.02 859,-252 848.82,-232.63 842.95,-208.49 839.69,-190.23"/>
<polygon fill="red" stroke="red" points="843.12,-189.55 838.06,-180.25 836.22,-190.68 843.12,-189.55"/>
</g>
<!-- JUS2111&#45;&gt;JUS4121 -->
<g id="edge53" class="edge">
<title>JUS2111&#45;&gt;JUS4121</title>
<path fill="none" stroke="red" d="M1189.5,-447.68C1084.69,-443.98 820.96,-431.32 741,-396 674.76,-366.74 679.12,-328.37 619,-288 588.97,-267.83 565.1,-282.72 546,-252 528.14,-223.27 569.4,-144.57 570,-144 607.19,-108.71 665.71,-96.52 708.38,-92.51"/>
<polygon fill="red" stroke="red" points="708.9,-95.98 718.59,-91.67 708.33,-89 708.9,-95.98"/>
</g>
<!-- JUS2111&#45;&gt;JUS4122 -->
<g id="edge54" class="edge">
<title>JUS2111&#45;&gt;JUS4122</title>
<path fill="none" stroke="red" d="M1189.72,-447.1C1070.63,-441.56 739.98,-424.04 635,-396 487.84,-356.69 435.59,-355.68 324,-252 286.5,-217.16 257.61,-187.86 284,-144 295.85,-124.31 317.75,-111.54 338.04,-103.49"/>
<polygon fill="red" stroke="red" points="339.33,-106.74 347.51,-100.01 336.92,-100.17 339.33,-106.74"/>
</g>
<!-- JUS2111&#45;&gt;JUS4123 -->
<g id="edge55" class="edge">
<title>JUS2111&#45;&gt;JUS4123</title>
<path fill="none" stroke="red" d="M1276.44,-448.64C1455.14,-446.47 2132.61,-431.19 2312,-324 2384.15,-280.89 2424.26,-208.19 2370,-144 2337.34,-105.36 2190.87,-94.88 2110.03,-92.05"/>
<polygon fill="red" stroke="red" points="2109.66,-88.53 2099.55,-91.71 2109.43,-95.53 2109.66,-88.53"/>
</g>
<!-- JUS2211&#45;&gt;JUR5030 -->
<g id="edge57" class="edge">
<title>JUS2211&#45;&gt;JUR5030</title>
<path fill="none" stroke="red" d="M1529.32,-370.95C1591.9,-359.38 1711.94,-328.14 1777,-252 1791.7,-234.8 1797.17,-209.36 1799.13,-190.08"/>
<polygon fill="red" stroke="red" points="1802.62,-190.33 1799.89,-180.09 1795.64,-189.8 1802.62,-190.33"/>
</g>
<!-- JUS2211&#45;&gt;JUS3111 -->
<g id="edge59" class="edge">
<title>JUS2211&#45;&gt;JUS3111</title>
<path fill="none" stroke="green" d="M1459.21,-364.81C1430.98,-353.25 1388.39,-335.81 1357.36,-323.11"/>
<polygon fill="green" stroke="green" points="1358.31,-319.72 1347.73,-319.17 1355.66,-326.2 1358.31,-319.72"/>
</g>
<!-- JUS2211&#45;&gt;JUR5060 -->
<g id="edge58" class="edge">
<title>JUS2211&#45;&gt;JUR5060</title>
<path fill="none" stroke="red" d="M1532.59,-377.88C1627.19,-378.71 1857.67,-374.81 2042,-324 2114.06,-304.14 2154.03,-315.17 2194,-252 2205.84,-233.29 2200.31,-208.06 2192.99,-189.24"/>
<polygon fill="red" stroke="red" points="2196.1,-187.62 2188.96,-179.79 2189.66,-190.36 2196.1,-187.62"/>
</g>
<!-- JUS2211&#45;&gt;JUS3112 -->
<g id="edge60" class="edge">
<title>JUS2211&#45;&gt;JUS3112</title>
<path fill="none" stroke="green" d="M1446.64,-373.79C1295.86,-362.35 785.46,-323.64 618.99,-311.02"/>
<polygon fill="green" stroke="green" points="618.76,-307.49 608.52,-310.23 618.23,-314.47 618.76,-307.49"/>
</g>
<!-- JUS2211&#45;&gt;JUS3212 -->
<g id="edge61" class="edge">
<title>JUS2211&#45;&gt;JUS3212</title>
<path fill="none" stroke="red" d="M1449.97,-369.93C1361.99,-354.11 1141.42,-315.14 956,-288 829.24,-269.45 795.43,-278.1 670,-252 665.18,-251 660.18,-249.79 655.23,-248.49"/>
<polygon fill="red" stroke="red" points="655.77,-245.01 645.2,-245.72 653.91,-251.76 655.77,-245.01"/>
</g>
<!-- JUS2211&#45;&gt;JUS3213 -->
<g id="edge62" class="edge">
<title>JUS2211&#45;&gt;JUS3213</title>
<path fill="none" stroke="red" d="M1499.46,-360.16C1512.66,-340.24 1537.15,-307.34 1566,-288 1575.78,-281.44 1637.03,-261.79 1680.33,-248.35"/>
<polygon fill="red" stroke="red" points="1681.56,-251.63 1690.08,-245.33 1679.5,-244.94 1681.56,-251.63"/>
</g>
<!-- JUS2211&#45;&gt;JUS4111 -->
<g id="edge63" class="edge">
<title>JUS2211&#45;&gt;JUS4111</title>
<path fill="none" stroke="red" d="M1532.55,-377.37C1720.02,-377.64 2439.5,-364.61 2233,-144 2207.42,-116.67 1660.61,-97.89 1485.46,-92.55"/>
<polygon fill="red" stroke="red" points="1485.55,-89.05 1475.45,-92.25 1485.34,-96.05 1485.55,-89.05"/>
</g>
<!-- JUS2211&#45;&gt;JUS4211 -->
<g id="edge67" class="edge">
<title>JUS2211&#45;&gt;JUS4211</title>
<path fill="none" stroke="red" d="M1472.98,-361.07C1451.62,-340.8 1411.75,-306.24 1371,-288 1295.74,-254.32 1269.27,-270.86 1189,-252 1129.8,-238.09 1115.91,-231.09 1057,-216 997.25,-200.69 928.07,-184.32 883.25,-173.89"/>
<polygon fill="red" stroke="red" points="883.77,-170.41 873.23,-171.56 882.18,-177.23 883.77,-170.41"/>
</g>
<!-- JUS2211&#45;&gt;JUS4121 -->
<g id="edge64" class="edge">
<title>JUS2211&#45;&gt;JUS4121</title>
<path fill="none" stroke="red" d="M1450,-369.87C1404.86,-361.14 1328.59,-344.9 1265,-324 1088.99,-266.15 1056.77,-222.6 889,-144 860.35,-130.58 827.36,-116.86 802.18,-106.74"/>
<polygon fill="red" stroke="red" points="803.18,-103.38 792.6,-102.92 800.59,-109.88 803.18,-103.38"/>
</g>
<!-- JUS2211&#45;&gt;JUS4122 -->
<g id="edge65" class="edge">
<title>JUS2211&#45;&gt;JUS4122</title>
<path fill="none" stroke="red" d="M1446.37,-373.93C1355.81,-367.15 1137.65,-349.46 956,-324 867.21,-311.55 643.19,-282.83 559,-252 498.8,-229.96 479.09,-225.58 434,-180 416.17,-161.98 402.65,-136.3 394.2,-117.16"/>
<polygon fill="red" stroke="red" points="397.36,-115.66 390.24,-107.82 390.92,-118.39 397.36,-115.66"/>
</g>
<!-- JUS2211&#45;&gt;JUS4123 -->
<g id="edge66" class="edge">
<title>JUS2211&#45;&gt;JUS4123</title>
<path fill="none" stroke="red" d="M1532.35,-375.77C1686.48,-371.16 2202.36,-353.65 2270,-324 2312.62,-305.32 2327.62,-294.74 2346,-252 2364.97,-207.91 2376.74,-180.87 2346,-144 2316.5,-108.62 2185.07,-96.79 2109.66,-92.88"/>
<polygon fill="red" stroke="red" points="2109.57,-89.38 2099.41,-92.38 2109.23,-96.37 2109.57,-89.38"/>
</g>
<!-- JUR2000 -->
<g id="node7" class="node">
<title>JUR2000</title>
<ellipse fill="none" stroke="black" cx="1037" cy="-378" rx="44.39" ry="18"/>
<text text-anchor="middle" x="1037" y="-374.3" font-family="Times New Roman,serif" font-size="14.00">JUR2000</text>
</g>
<!-- JUR2000&#45;&gt;JUR5030 -->
<g id="edge68" class="edge">
<title>JUR2000&#45;&gt;JUR5030</title>
<path fill="none" stroke="red" d="M1064.34,-363.74C1106.41,-343.93 1190.02,-306.94 1265,-288 1391.78,-255.98 1440.76,-311.89 1557,-252 1576.29,-242.06 1571.36,-227.12 1590,-216 1593.57,-213.87 1692.22,-189.44 1753.02,-174.5"/>
<polygon fill="red" stroke="red" points="1753.93,-177.88 1762.8,-172.1 1752.26,-171.09 1753.93,-177.88"/>
</g>
<!-- JUR2000&#45;&gt;JUS3111 -->
<g id="edge70" class="edge">
<title>JUR2000&#45;&gt;JUS3111</title>
<path fill="none" stroke="red" d="M1073.74,-367.85C1124.57,-355.18 1216.36,-332.32 1271.79,-318.51"/>
<polygon fill="red" stroke="red" points="1272.84,-321.86 1281.7,-316.04 1271.15,-315.06 1272.84,-321.86"/>
</g>
<!-- JUR2000&#45;&gt;JUR5060 -->
<g id="edge69" class="edge">
<title>JUR2000&#45;&gt;JUR5060</title>
<path fill="none" stroke="red" d="M1080.52,-374.85C1275.79,-364.84 2065.2,-320.4 2150,-252 2168.4,-237.16 2175.58,-210.59 2178.35,-190.34"/>
<polygon fill="red" stroke="red" points="2181.86,-190.45 2179.45,-180.13 2174.9,-189.7 2181.86,-190.45"/>
</g>
<!-- JUR2000&#45;&gt;JUS3112 -->
<g id="edge71" class="edge">
<title>JUR2000&#45;&gt;JUS3112</title>
<path fill="none" stroke="red" d="M996.03,-370.91C909.84,-358.1 710.06,-328.41 616.3,-314.48"/>
<polygon fill="red" stroke="red" points="616.62,-310.98 606.21,-312.98 615.59,-317.91 616.62,-310.98"/>
</g>
<!-- JUR2000&#45;&gt;JUS3212 -->
<g id="edge72" class="edge">
<title>JUR2000&#45;&gt;JUS3212</title>
<path fill="none" stroke="red" d="M1004.15,-365.83C979.35,-356.59 945.09,-342.08 918,-324 898.65,-311.08 900.8,-298.41 880,-288 795.32,-245.61 762.26,-273.35 670,-252 665.27,-250.9 660.35,-249.65 655.46,-248.33"/>
<polygon fill="red" stroke="red" points="656.14,-244.88 645.56,-245.55 654.25,-251.62 656.14,-244.88"/>
</g>
<!-- JUR2000&#45;&gt;JUS3213 -->
<g id="edge73" class="edge">
<title>JUR2000&#45;&gt;JUS3213</title>
<path fill="none" stroke="red" d="M1079.01,-372.2C1142.66,-364.51 1267.14,-347.83 1371,-324 1424.86,-311.64 1436.58,-302.11 1490,-288 1553.78,-271.15 1628.21,-254.86 1675.7,-244.89"/>
<polygon fill="red" stroke="red" points="1676.63,-248.27 1685.7,-242.8 1675.19,-241.42 1676.63,-248.27"/>
</g>
<!-- JUR2000&#45;&gt;JUS3220 -->
<g id="edge74" class="edge">
<title>JUR2000&#45;&gt;JUS3220</title>
<path fill="none" stroke="red" d="M1019.69,-361.15C997.56,-341.6 957.38,-308.46 918,-288 881.23,-268.9 836.22,-254.84 802.99,-246.02"/>
<polygon fill="red" stroke="red" points="803.63,-242.57 793.07,-243.45 801.87,-249.34 803.63,-242.57"/>
</g>
<!-- JUR2000&#45;&gt;JUS4111 -->
<g id="edge75" class="edge">
<title>JUR2000&#45;&gt;JUS4111</title>
<path fill="none" stroke="red" d="M1027.22,-360.22C1003.88,-317.75 950.98,-205.09 1008,-144 1032.95,-117.27 1270.91,-100.28 1379.02,-93.88"/>
<polygon fill="red" stroke="red" points="1379.29,-97.37 1389.07,-93.29 1378.88,-90.38 1379.29,-97.37"/>
</g>
<!-- JUR2000&#45;&gt;JUS4211 -->
<g id="edge79" class="edge">
<title>JUR2000&#45;&gt;JUS4211</title>
<path fill="none" stroke="red" d="M1025.77,-360.54C1012.01,-341.29 987.14,-309.34 960,-288 932.5,-266.38 915.59,-275.85 890,-252 871,-234.29 856.31,-208.42 847.09,-189.12"/>
<polygon fill="red" stroke="red" points="850.24,-187.6 842.88,-179.98 843.88,-190.53 850.24,-187.6"/>
</g>
<!-- JUR2000&#45;&gt;JUS4121 -->
<g id="edge76" class="edge">
<title>JUR2000&#45;&gt;JUS4121</title>
<path fill="none" stroke="red" d="M1003.97,-365.85C937.01,-343.3 789.63,-293.9 766,-288 720.7,-276.69 589.05,-287.73 559,-252 522.51,-208.62 607.03,-149.78 615,-144 644.39,-122.67 683.24,-109.15 713.62,-101.11"/>
<polygon fill="red" stroke="red" points="714.73,-104.44 723.57,-98.59 713.02,-97.65 714.73,-104.44"/>
</g>
<!-- JUR2000&#45;&gt;JUS4122 -->
<g id="edge77" class="edge">
<title>JUR2000&#45;&gt;JUS4122</title>
<path fill="none" stroke="red" d="M997.35,-370.02C944.41,-360.52 847.81,-342.58 766,-324 734.88,-316.93 518.05,-262.73 488,-252 416.08,-226.32 373.16,-244.32 332,-180 323.38,-166.52 325.95,-158.81 332,-144 336.91,-131.97 346.02,-121.2 355.25,-112.56"/>
<polygon fill="red" stroke="red" points="357.73,-115.04 362.95,-105.82 353.12,-109.78 357.73,-115.04"/>
</g>
<!-- JUR2000&#45;&gt;JUS4123 -->
<g id="edge78" class="edge">
<title>JUR2000&#45;&gt;JUS4123</title>
<path fill="none" stroke="red" d="M1080.66,-374.93C1247.15,-366.96 1836.9,-338.01 1920,-324 2036.55,-304.35 2071.79,-307.77 2176,-252 2229.61,-223.31 2297.2,-192.1 2260,-144 2241.49,-120.07 2161.79,-104.94 2107.67,-97.23"/>
<polygon fill="red" stroke="red" points="2107.93,-93.73 2097.54,-95.83 2106.97,-100.67 2107.93,-93.73"/>
</g>
<!-- JUR2000P -->
<g id="node8" class="node">
<title>JUR2000P</title>
<ellipse fill="none" stroke="black" cx="1988" cy="-234" rx="50.09" ry="18"/>
<text text-anchor="middle" x="1988" y="-230.3" font-family="Times New Roman,serif" font-size="14.00">JUR2000P</text>
</g>
<!-- JUR2000P&#45;&gt;JUR5030 -->
<g id="edge80" class="edge">
<title>JUR2000P&#45;&gt;JUR5030</title>
<path fill="none" stroke="red" d="M1954.39,-220.49C1922.67,-208.67 1875.03,-190.94 1841.07,-178.29"/>
<polygon fill="red" stroke="red" points="1842.04,-174.92 1831.44,-174.71 1839.59,-181.48 1842.04,-174.92"/>
</g>
<!-- JUR2000P&#45;&gt;JUR5060 -->
<g id="edge81" class="edge">
<title>JUR2000P&#45;&gt;JUR5060</title>
<path fill="none" stroke="red" d="M2021.88,-220.65C2054.46,-208.77 2103.75,-190.8 2138.62,-178.09"/>
<polygon fill="red" stroke="red" points="2139.85,-181.36 2148.05,-174.65 2137.46,-174.79 2139.85,-181.36"/>
</g>
<!-- JUR2000P&#45;&gt;JUS4121 -->
<g id="edge82" class="edge">
<title>JUR2000P&#45;&gt;JUS4121</title>
<path fill="none" stroke="red" d="M1979.88,-215.89C1968.78,-194.71 1946.68,-159.52 1916,-144 1866.37,-118.9 1036.08,-97.5 815.47,-92.24"/>
<polygon fill="red" stroke="red" points="815.51,-88.74 805.43,-92 815.34,-95.74 815.51,-88.74"/>
</g>
<!-- JUR2000P&#45;&gt;JUS4122 -->
<g id="edge83" class="edge">
<title>JUR2000P&#45;&gt;JUS4122</title>
<path fill="none" stroke="red" d="M1967.56,-217.5C1936.27,-194.14 1877.55,-151.79 1853,-144 1731.78,-105.55 836.06,-113.32 709,-108 613.15,-103.99 501.47,-97.82 437.13,-94.12"/>
<polygon fill="red" stroke="red" points="437.02,-90.61 426.83,-93.53 436.62,-97.6 437.02,-90.61"/>
</g>
<!-- JUR2000P&#45;&gt;JUS4123 -->
<g id="edge84" class="edge">
<title>JUR2000P&#45;&gt;JUS4123</title>
<path fill="none" stroke="red" d="M1996.07,-216.15C2007.83,-191.6 2029.77,-145.77 2043.59,-116.91"/>
<polygon fill="red" stroke="red" points="2046.78,-118.36 2047.94,-107.82 2040.47,-115.33 2046.78,-118.36"/>
</g>
<!-- JUS3111&#45;&gt;JUR5030 -->
<g id="edge85" class="edge">
<title>JUS3111&#45;&gt;JUR5030</title>
<path fill="none" stroke="red" d="M1351.56,-294.43C1359.52,-292.13 1368.02,-289.83 1376,-288 1470,-266.4 1501.36,-290.01 1590,-252 1614.51,-241.49 1614.34,-228.31 1638,-216 1648.74,-210.41 1711.93,-190.32 1756.14,-176.54"/>
<polygon fill="red" stroke="red" points="1757.3,-179.84 1765.81,-173.53 1755.22,-173.16 1757.3,-179.84"/>
</g>
<!-- JUS3111&#45;&gt;JUR5060 -->
<g id="edge86" class="edge">
<title>JUS3111&#45;&gt;JUR5060</title>
<path fill="none" stroke="red" d="M1361.55,-304.31C1518.88,-301.5 2051.99,-289.29 2118,-252 2142.49,-238.17 2159.5,-210.18 2169.43,-189.27"/>
<polygon fill="red" stroke="red" points="2172.72,-190.5 2173.62,-179.95 2166.33,-187.64 2172.72,-190.5"/>
</g>
<!-- JUS3111&#45;&gt;JUS3212 -->
<g id="edge87" class="edge">
<title>JUS3111&#45;&gt;JUS3212</title>
<path fill="none" stroke="green" d="M1279.84,-297.25C1262.29,-293.94 1241.16,-290.31 1222,-288 977.92,-258.52 912.09,-294.83 670,-252 664.96,-251.11 659.74,-249.94 654.59,-248.63"/>
<polygon fill="green" stroke="green" points="655.39,-245.23 644.83,-245.98 653.56,-251.98 655.39,-245.23"/>
</g>
<!-- JUS3111&#45;&gt;JUS3213 -->
<g id="edge88" class="edge">
<title>JUS3111&#45;&gt;JUS3213</title>
<path fill="none" stroke="green" d="M1357.65,-298.3C1416.62,-288.31 1530.91,-268.9 1628,-252 1643.17,-249.36 1659.69,-246.45 1674.68,-243.79"/>
<polygon fill="green" stroke="green" points="1675.54,-247.19 1684.77,-242 1674.32,-240.3 1675.54,-247.19"/>
</g>
<!-- JUS3111&#45;&gt;JUS3220 -->
<g id="edge89" class="edge">
<title>JUS3111&#45;&gt;JUS3220</title>
<path fill="none" stroke="green" d="M1279.32,-297.59C1261.85,-294.38 1240.93,-290.75 1222,-288 1072.36,-266.26 894.61,-248.17 808.27,-239.88"/>
<polygon fill="green" stroke="green" points="808.49,-236.38 798.2,-238.91 807.82,-243.35 808.49,-236.38"/>
</g>
<!-- JUS3111&#45;&gt;JUS4111 -->
<g id="edge90" class="edge">
<title>JUS3111&#45;&gt;JUS4111</title>
<path fill="none" stroke="red" d="M1361.63,-305.2C1511.74,-305.42 2000.25,-302.27 2047,-252 2106.23,-188.31 2006.58,-165.96 1950,-144 1866.23,-111.49 1600.2,-97.51 1485.49,-92.89"/>
<polygon fill="red" stroke="red" points="1485.33,-89.38 1475.2,-92.48 1485.05,-96.37 1485.33,-89.38"/>
</g>
<!-- JUS3111&#45;&gt;JUS4211 -->
<g id="edge94" class="edge">
<title>JUS3111&#45;&gt;JUS4211</title>
<path fill="none" stroke="red" d="M1280,-297.09C1235.57,-287.56 1159.94,-270.53 1096,-252 1017.6,-229.28 927.86,-197.17 876.96,-178.38"/>
<polygon fill="red" stroke="red" points="877.9,-175 867.31,-174.8 875.47,-181.56 877.9,-175"/>
</g>
<!-- JUS3111&#45;&gt;JUS4121 -->
<g id="edge91" class="edge">
<title>JUS3111&#45;&gt;JUS4121</title>
<path fill="none" stroke="red" d="M1284.15,-294.47C1250.75,-283.5 1202.74,-266 1189,-252 1152.93,-215.24 1187.42,-175.92 1147,-144 1096.73,-104.3 909.22,-94.34 815.72,-91.84"/>
<polygon fill="red" stroke="red" points="815.7,-88.33 805.61,-91.59 815.52,-95.33 815.7,-88.33"/>
</g>
<!-- JUS3111&#45;&gt;JUS4122 -->
<g id="edge92" class="edge">
<title>JUS3111&#45;&gt;JUS4122</title>
<path fill="none" stroke="red" d="M1275.31,-301.7C1138.03,-291.04 716.09,-257.88 703,-252 681.78,-242.47 685.39,-227.2 665,-216 607.56,-184.44 581.01,-208.51 522,-180 498.31,-168.55 496.86,-158.65 475,-144 456.93,-131.89 436,-119.59 418.78,-109.89"/>
<polygon fill="red" stroke="red" points="420.07,-106.6 409.63,-104.79 416.66,-112.72 420.07,-106.6"/>
</g>
<!-- JUS3111&#45;&gt;JUS4123 -->
<g id="edge93" class="edge">
<title>JUS3111&#45;&gt;JUS4123</title>
<path fill="none" stroke="red" d="M1361.73,-305.31C1515.18,-305.93 2022.52,-304.01 2071,-252 2104.94,-215.59 2084.66,-152.37 2069,-116.95"/>
<polygon fill="red" stroke="red" points="2072.12,-115.36 2064.75,-107.75 2065.76,-118.29 2072.12,-115.36"/>
</g>
<!-- JUS5011 -->
<g id="node24" class="node">
<title>JUS5011</title>
<ellipse fill="none" stroke="black" cx="1094" cy="-162" rx="43.59" ry="18"/>
<text text-anchor="middle" x="1094" y="-158.3" font-family="Times New Roman,serif" font-size="14.00">JUS5011</text>
</g>
<!-- JUS3111&#45;&gt;JUS5011 -->
<g id="edge95" class="edge">
<title>JUS3111&#45;&gt;JUS5011</title>
<path fill="none" stroke="red" d="M1283.71,-294.72C1275.93,-292.45 1267.69,-290.1 1260,-288 1197.19,-270.84 1164.38,-297.69 1118,-252 1101.74,-235.99 1096.15,-210.2 1094.39,-190.49"/>
<polygon fill="red" stroke="red" points="1097.86,-190.04 1093.76,-180.27 1090.88,-190.47 1097.86,-190.04"/>
</g>
<!-- JUS5012 -->
<g id="node25" class="node">
<title>JUS5012</title>
<ellipse fill="none" stroke="black" cx="1542" cy="-162" rx="43.59" ry="18"/>
<text text-anchor="middle" x="1542" y="-158.3" font-family="Times New Roman,serif" font-size="14.00">JUS5012</text>
</g>
<!-- JUS3111&#45;&gt;JUS5012 -->
<g id="edge96" class="edge">
<title>JUS3111&#45;&gt;JUS5012</title>
<path fill="none" stroke="red" d="M1345.71,-291.86C1365.28,-282.04 1391.69,-267.65 1413,-252 1431.75,-238.23 1432.38,-229.95 1451,-216 1468.29,-203.05 1488.99,-190.77 1506.29,-181.29"/>
<polygon fill="red" stroke="red" points="1508.35,-184.16 1515.5,-176.33 1505.03,-177.99 1508.35,-184.16"/>
</g>
<!-- JUS3211 -->
<g id="node10" class="node">
<title>JUS3211</title>
<ellipse fill="none" stroke="black" cx="1504" cy="-234" rx="43.59" ry="18"/>
<text text-anchor="middle" x="1504" y="-230.3" font-family="Times New Roman,serif" font-size="14.00">JUS3211</text>
</g>
<!-- JUS3211&#45;&gt;JUR5030 -->
<g id="edge97" class="edge">
<title>JUS3211&#45;&gt;JUR5030</title>
<path fill="none" stroke="red" d="M1537.91,-222.52C1545.78,-220.24 1554.15,-217.93 1562,-216 1641.22,-196.51 1662.78,-199.49 1742,-180 1746.6,-178.87 1751.38,-177.61 1756.13,-176.3"/>
<polygon fill="red" stroke="red" points="1757.12,-179.66 1765.79,-173.57 1755.21,-172.92 1757.12,-179.66"/>
</g>
<!-- JUS3211&#45;&gt;JUR5060 -->
<g id="edge98" class="edge">
<title>JUS3211&#45;&gt;JUR5060</title>
<path fill="none" stroke="red" d="M1545.78,-228.67C1663.49,-216.48 1997.74,-181.87 2127.55,-168.43"/>
<polygon fill="red" stroke="red" points="2128.05,-171.9 2137.64,-167.39 2127.33,-164.94 2128.05,-171.9"/>
</g>
<!-- JUS3211&#45;&gt;JUS4111 -->
<g id="edge99" class="edge">
<title>JUS3211&#45;&gt;JUS4111</title>
<path fill="none" stroke="red" d="M1538.49,-222.84C1584.89,-209 1662.12,-185.35 1666,-180 1675.39,-167.05 1675.99,-156.5 1666,-144 1643.71,-116.1 1546.32,-101.8 1484.42,-95.39"/>
<polygon fill="red" stroke="red" points="1484.72,-91.91 1474.43,-94.4 1484.03,-98.87 1484.72,-91.91"/>
</g>
<!-- JUS3211&#45;&gt;JUS4211 -->
<g id="edge103" class="edge">
<title>JUS3211&#45;&gt;JUS4211</title>
<path fill="none" stroke="green" d="M1466.05,-225.09C1449.77,-221.92 1430.51,-218.43 1413,-216 1361.83,-208.89 1021.21,-179.06 888.65,-167.55"/>
<polygon fill="green" stroke="green" points="888.61,-164.04 878.35,-166.66 888.01,-171.01 888.61,-164.04"/>
</g>
<!-- JUS3211&#45;&gt;JUS4121 -->
<g id="edge100" class="edge">
<title>JUS3211&#45;&gt;JUS4121</title>
<path fill="none" stroke="red" d="M1538.57,-222.92C1571.54,-212.53 1617.65,-195.68 1628,-180 1636.81,-166.65 1638.96,-155.65 1628,-144 1600.07,-114.3 999.83,-96.93 815.41,-92.27"/>
<polygon fill="red" stroke="red" points="815.49,-88.77 805.41,-92.02 815.32,-95.77 815.49,-88.77"/>
</g>
<!-- JUS3211&#45;&gt;JUS4122 -->
<g id="edge101" class="edge">
<title>JUS3211&#45;&gt;JUS4122</title>
<path fill="none" stroke="red" d="M1538.44,-222.65C1558.79,-214.56 1582.88,-201.08 1595,-180 1602.97,-166.13 1606.08,-155.54 1595,-144 1560.88,-108.47 758.21,-110.29 709,-108 613.17,-103.55 501.48,-97.52 437.14,-93.97"/>
<polygon fill="red" stroke="red" points="437.02,-90.46 426.84,-93.4 436.63,-97.45 437.02,-90.46"/>
</g>
<!-- JUS3211&#45;&gt;JUS4123 -->
<g id="edge102" class="edge">
<title>JUS3211&#45;&gt;JUS4123</title>
<path fill="none" stroke="red" d="M1538.72,-222.83C1590.54,-207.65 1682.28,-180.73 1684,-180 1713.67,-167.36 1716.65,-154.89 1747,-144 1833.63,-112.92 1940.62,-99.77 2003.29,-94.43"/>
<polygon fill="red" stroke="red" points="2003.65,-97.91 2013.33,-93.61 2003.08,-90.94 2003.65,-97.91"/>
</g>
<!-- JUS3211&#45;&gt;JUS5011 -->
<g id="edge104" class="edge">
<title>JUS3211&#45;&gt;JUS5011</title>
<path fill="none" stroke="red" d="M1465.06,-225.55C1448.96,-222.51 1430.09,-219.02 1413,-216 1317.95,-199.23 1206.69,-181.08 1143.86,-170.97"/>
<polygon fill="red" stroke="red" points="1144.26,-167.49 1133.83,-169.35 1143.15,-174.4 1144.26,-167.49"/>
</g>
<!-- JUS3211&#45;&gt;JUS5012 -->
<g id="edge105" class="edge">
<title>JUS3211&#45;&gt;JUS5012</title>
<path fill="none" stroke="red" d="M1513.2,-216.05C1517.63,-207.89 1523.05,-197.91 1527.98,-188.82"/>
<polygon fill="red" stroke="red" points="1531.19,-190.25 1532.89,-179.79 1525.04,-186.91 1531.19,-190.25"/>
</g>
<!-- JUR3000 -->
<g id="node11" class="node">
<title>JUR3000</title>
<ellipse fill="none" stroke="black" cx="1242" cy="-234" rx="44.39" ry="18"/>
<text text-anchor="middle" x="1242" y="-230.3" font-family="Times New Roman,serif" font-size="14.00">JUR3000</text>
</g>
<!-- JUR3000&#45;&gt;JUR5030 -->
<g id="edge106" class="edge">
<title>JUR3000&#45;&gt;JUR5030</title>
<path fill="none" stroke="red" d="M1274.23,-221.5C1281.02,-219.4 1288.19,-217.43 1295,-216 1380.33,-198.04 1635.34,-176.19 1746.83,-167.18"/>
<polygon fill="red" stroke="red" points="1747.16,-170.67 1756.85,-166.38 1746.6,-163.69 1747.16,-170.67"/>
</g>
<!-- JUR3000&#45;&gt;JUR5060 -->
<g id="edge107" class="edge">
<title>JUR3000&#45;&gt;JUR5060</title>
<path fill="none" stroke="red" d="M1273.9,-221.35C1280.78,-219.24 1288.07,-217.3 1295,-216 1335.95,-208.33 1940.77,-175.72 2126.3,-165.84"/>
<polygon fill="red" stroke="red" points="2126.56,-169.34 2136.36,-165.31 2126.19,-162.34 2126.56,-169.34"/>
</g>
<!-- JUR3000&#45;&gt;JUS4111 -->
<g id="edge108" class="edge">
<title>JUR3000&#45;&gt;JUS4111</title>
<path fill="none" stroke="red" d="M1262.33,-217.8C1296.33,-192.39 1364.8,-141.23 1403.56,-112.26"/>
<polygon fill="red" stroke="red" points="1405.9,-114.88 1411.81,-106.09 1401.71,-109.27 1405.9,-114.88"/>
</g>
<!-- JUR3000&#45;&gt;JUS4211 -->
<g id="edge112" class="edge">
<title>JUR3000&#45;&gt;JUS4211</title>
<path fill="none" stroke="red" d="M1208.15,-222.25C1200.28,-219.98 1191.89,-217.75 1184,-216 1079.86,-192.92 955.96,-176.67 887.65,-168.67"/>
<polygon fill="red" stroke="red" points="887.92,-165.18 877.58,-167.51 887.11,-172.13 887.92,-165.18"/>
</g>
<!-- JUR3000&#45;&gt;JUS4121 -->
<g id="edge109" class="edge">
<title>JUR3000&#45;&gt;JUS4121</title>
<path fill="none" stroke="red" d="M1242.67,-215.99C1242.47,-195.58 1238.73,-161.87 1218,-144 1187.97,-118.1 928.99,-100.44 815.22,-93.86"/>
<polygon fill="red" stroke="red" points="815.19,-90.35 805.01,-93.27 814.79,-97.34 815.19,-90.35"/>
</g>
<!-- JUR3000&#45;&gt;JUS4122 -->
<g id="edge110" class="edge">
<title>JUR3000&#45;&gt;JUS4122</title>
<path fill="none" stroke="red" d="M1230.1,-216.29C1213.98,-195.18 1183.05,-159.71 1147,-144 1114.49,-129.83 604.8,-102.4 437.06,-93.71"/>
<polygon fill="red" stroke="red" points="437.15,-90.21 426.98,-93.19 436.79,-97.2 437.15,-90.21"/>
</g>
<!-- JUR3000&#45;&gt;JUS4123 -->
<g id="edge111" class="edge">
<title>JUR3000&#45;&gt;JUS4123</title>
<path fill="none" stroke="red" d="M1269.91,-219.76C1292.01,-209.19 1323.61,-193.91 1351,-180 1381.49,-164.52 1386.18,-153.61 1419,-144 1527.87,-112.11 1869.18,-97.35 2002.18,-92.7"/>
<polygon fill="red" stroke="red" points="2002.65,-96.19 2012.52,-92.35 2002.41,-89.19 2002.65,-96.19"/>
</g>
<!-- JUR3000&#45;&gt;JUS5011 -->
<g id="edge113" class="edge">
<title>JUR3000&#45;&gt;JUS5011</title>
<path fill="none" stroke="red" d="M1214.16,-219.83C1190.52,-208.65 1156.42,-192.52 1130.57,-180.3"/>
<polygon fill="red" stroke="red" points="1132,-177.1 1121.46,-175.99 1129.01,-183.43 1132,-177.1"/>
</g>
<!-- JUR3000&#45;&gt;JUS5012 -->
<g id="edge114" class="edge">
<title>JUR3000&#45;&gt;JUS5012</title>
<path fill="none" stroke="red" d="M1274.93,-221.88C1281.54,-219.81 1288.46,-217.74 1295,-216 1362.99,-197.85 1442.78,-181.63 1492.87,-172.05"/>
<polygon fill="red" stroke="red" points="1493.61,-175.47 1502.79,-170.17 1492.31,-168.6 1493.61,-175.47"/>
</g>
<!-- JUR3000P -->
<g id="node12" class="node">
<title>JUR3000P</title>
<ellipse fill="none" stroke="black" cx="1354" cy="-234" rx="50.09" ry="18"/>
<text text-anchor="middle" x="1354" y="-230.3" font-family="Times New Roman,serif" font-size="14.00">JUR3000P</text>
</g>
<!-- JUR3000P&#45;&gt;JUR5030 -->
<g id="edge115" class="edge">
<title>JUR3000P&#45;&gt;JUR5030</title>
<path fill="none" stroke="red" d="M1397.91,-225.09C1414.52,-222.15 1433.62,-218.84 1451,-216 1556.85,-198.69 1681.09,-180.28 1749.1,-170.36"/>
<polygon fill="red" stroke="red" points="1749.73,-173.8 1759.12,-168.9 1748.72,-166.88 1749.73,-173.8"/>
</g>
<!-- JUR3000P&#45;&gt;JUR5060 -->
<g id="edge116" class="edge">
<title>JUR3000P&#45;&gt;JUR5060</title>
<path fill="none" stroke="red" d="M1396.84,-224.53C1413.66,-221.46 1433.18,-218.2 1451,-216 1581.98,-199.8 1981.4,-174.94 2126.55,-166.18"/>
<polygon fill="red" stroke="red" points="2126.79,-169.67 2136.56,-165.58 2126.37,-162.69 2126.79,-169.67"/>
</g>
<!-- JUR3000P&#45;&gt;JUS4111 -->
<g id="edge117" class="edge">
<title>JUR3000P&#45;&gt;JUS4111</title>
<path fill="none" stroke="red" d="M1363.25,-216.15C1376.74,-191.6 1401.91,-145.77 1417.77,-116.91"/>
<polygon fill="red" stroke="red" points="1421.01,-118.27 1422.76,-107.82 1414.88,-114.9 1421.01,-118.27"/>
</g>
<!-- JUR3000P&#45;&gt;JUS4211 -->
<g id="edge121" class="edge">
<title>JUR3000P&#45;&gt;JUS4211</title>
<path fill="none" stroke="red" d="M1317.72,-221.53C1310.26,-219.46 1302.42,-217.49 1295,-216 1218.2,-200.61 991.45,-177.86 888.24,-167.93"/>
<polygon fill="red" stroke="red" points="888.34,-164.43 878.05,-166.96 887.67,-171.39 888.34,-164.43"/>
</g>
<!-- JUR3000P&#45;&gt;JUS4121 -->
<g id="edge118" class="edge">
<title>JUR3000P&#45;&gt;JUS4121</title>
<path fill="none" stroke="red" d="M1347.75,-215.85C1339.14,-194.96 1321.52,-160.44 1294,-144 1214.33,-96.41 934.53,-90.83 815.86,-90.67"/>
<polygon fill="red" stroke="red" points="815.56,-87.17 805.56,-90.66 815.56,-94.17 815.56,-87.17"/>
</g>
<!-- JUR3000P&#45;&gt;JUS4122 -->
<g id="edge119" class="edge">
<title>JUR3000P&#45;&gt;JUS4122</title>
<path fill="none" stroke="red" d="M1332.46,-217.72C1301.66,-196.8 1242.52,-160.04 1186,-144 1149.97,-133.77 610.08,-103.41 436.98,-93.89"/>
<polygon fill="red" stroke="red" points="437.02,-90.39 426.84,-93.33 436.63,-97.38 437.02,-90.39"/>
</g>
<!-- JUR3000P&#45;&gt;JUS4123 -->
<g id="edge120" class="edge">
<title>JUR3000P&#45;&gt;JUS4123</title>
<path fill="none" stroke="red" d="M1372.07,-216.8C1396.59,-195.9 1442.65,-160.29 1489,-144 1582.92,-110.99 1879.94,-97.12 2002.41,-92.7"/>
<polygon fill="red" stroke="red" points="2002.79,-96.19 2012.66,-92.34 2002.54,-89.19 2002.79,-96.19"/>
</g>
<!-- JUS3112&#45;&gt;JUS4211 -->
<g id="edge123" class="edge">
<title>JUS3112&#45;&gt;JUS4211</title>
<path fill="none" stroke="red" d="M558.34,-288.14C550.71,-268.51 542.31,-236.19 559,-216 586.8,-182.37 710.16,-169.88 782.54,-165.39"/>
<polygon fill="red" stroke="red" points="783.06,-168.87 792.84,-164.79 782.65,-161.88 783.06,-168.87"/>
</g>
<!-- JUS3112&#45;&gt;JUS4122 -->
<g id="edge122" class="edge">
<title>JUS3112&#45;&gt;JUS4122</title>
<path fill="none" stroke="red" d="M525.04,-299.88C462.58,-289.62 345.39,-260.18 294,-180 285.37,-166.53 286.06,-157.89 294,-144 304.1,-126.33 322.64,-113.97 340.28,-105.66"/>
<polygon fill="red" stroke="red" points="342.16,-108.66 349.92,-101.45 339.36,-102.24 342.16,-108.66"/>
</g>
<!-- JUS3212&#45;&gt;JUS4111 -->
<g id="edge124" class="edge">
<title>JUS3212&#45;&gt;JUS4111</title>
<path fill="none" stroke="red" d="M627.92,-217.03C650,-196.04 692.18,-159.96 736,-144 853.89,-101.06 1236.43,-92.91 1378.36,-91.36"/>
<polygon fill="red" stroke="red" points="1378.59,-94.86 1388.55,-91.26 1378.52,-87.86 1378.59,-94.86"/>
</g>
<!-- JUS3212&#45;&gt;JUS4211 -->
<g id="edge128" class="edge">
<title>JUS3212&#45;&gt;JUS4211</title>
<path fill="none" stroke="green" d="M646.02,-222.37C685.31,-210.09 750.01,-189.87 792.81,-176.5"/>
<polygon fill="green" stroke="green" points="793.89,-179.83 802.39,-173.5 791.8,-173.14 793.89,-179.83"/>
</g>
<!-- JUS3212&#45;&gt;JUS4121 -->
<g id="edge125" class="edge">
<title>JUS3212&#45;&gt;JUS4121</title>
<path fill="none" stroke="red" d="M612.29,-215.86C613.5,-196.25 618.31,-164.25 636,-144 655.73,-121.42 686.68,-108.21 712.97,-100.64"/>
<polygon fill="red" stroke="red" points="714.03,-103.97 722.78,-98 712.21,-97.21 714.03,-103.97"/>
</g>
<!-- JUS3212&#45;&gt;JUS4122 -->
<g id="edge126" class="edge">
<title>JUS3212&#45;&gt;JUS4122</title>
<path fill="none" stroke="red" d="M578.17,-222.48C551.46,-213.37 513.86,-198.71 484,-180 454.45,-161.47 425.18,-134.08 406.01,-114.59"/>
<polygon fill="red" stroke="red" points="408.41,-112.03 398.94,-107.28 403.38,-116.9 408.41,-112.03"/>
</g>
<!-- JUS3212&#45;&gt;JUS4123 -->
<g id="edge127" class="edge">
<title>JUS3212&#45;&gt;JUS4123</title>
<path fill="none" stroke="red" d="M650.7,-225.69C721.32,-212.34 865.99,-184.92 889,-180 956.89,-165.47 972.28,-153.85 1041,-144 1229.37,-117 1820.83,-97.87 2002.43,-92.52"/>
<polygon fill="red" stroke="red" points="2002.65,-96.02 2012.54,-92.22 2002.44,-89.02 2002.65,-96.02"/>
</g>
<!-- JUS3212&#45;&gt;JUS5011 -->
<g id="edge129" class="edge">
<title>JUS3212&#45;&gt;JUS5011</title>
<path fill="none" stroke="red" d="M650.45,-225.38C666.64,-222.28 685.7,-218.79 703,-216 767.39,-205.63 952.31,-181.36 1042.83,-169.61"/>
<polygon fill="red" stroke="red" points="1043.4,-173.07 1052.87,-168.31 1042.5,-166.13 1043.4,-173.07"/>
</g>
<!-- JUS3220&#45;&gt;JUS4111 -->
<g id="edge130" class="edge">
<title>JUS3220&#45;&gt;JUS4111</title>
<path fill="none" stroke="red" d="M748.37,-216.16C740.63,-196.23 732.12,-163.32 750,-144 792.38,-98.2 1224.85,-91.88 1378.33,-91.08"/>
<polygon fill="red" stroke="red" points="1378.48,-94.58 1388.46,-91.04 1378.44,-87.58 1378.48,-94.58"/>
</g>
<!-- JUS3220&#45;&gt;JUS4211 -->
<g id="edge134" class="edge">
<title>JUS3220&#45;&gt;JUS4211</title>
<path fill="none" stroke="green" d="M773.75,-217.46C784.63,-207.95 798.72,-195.62 810.75,-185.1"/>
<polygon fill="green" stroke="green" points="813.07,-187.71 818.3,-178.49 808.46,-182.44 813.07,-187.71"/>
</g>
<!-- JUS3220&#45;&gt;JUS4121 -->
<g id="edge131" class="edge">
<title>JUS3220&#45;&gt;JUS4121</title>
<path fill="none" stroke="red" d="M737.9,-217.3C728.2,-207.65 717.2,-194.4 712,-180 706.57,-164.95 706.09,-158.87 712,-144 716.71,-132.15 725.46,-121.42 734.34,-112.76"/>
<polygon fill="red" stroke="red" points="736.72,-115.32 741.74,-105.99 732,-110.15 736.72,-115.32"/>
</g>
<!-- JUS3220&#45;&gt;JUS4122 -->
<g id="edge132" class="edge">
<title>JUS3220&#45;&gt;JUS4122</title>
<path fill="none" stroke="red" d="M724.92,-221.14C657.83,-195.52 499.42,-135.06 424.55,-106.48"/>
<polygon fill="red" stroke="red" points="425.58,-103.13 414.99,-102.83 423.08,-109.66 425.58,-103.13"/>
</g>
<!-- JUS3220&#45;&gt;JUS4123 -->
<g id="edge133" class="edge">
<title>JUS3220&#45;&gt;JUS4123</title>
<path fill="none" stroke="red" d="M755.73,-215.67C756.46,-194.94 761.17,-160.91 783,-144 795.25,-134.51 1762.15,-101 2002.41,-92.81"/>
<polygon fill="red" stroke="red" points="2002.77,-96.3 2012.64,-92.47 2002.53,-89.31 2002.77,-96.3"/>
</g>
<!-- JUS3220&#45;&gt;JUS5011 -->
<g id="edge135" class="edge">
<title>JUS3220&#45;&gt;JUS5011</title>
<path fill="none" stroke="red" d="M794.12,-225.11C856.03,-212.28 978.32,-186.96 1046.04,-172.93"/>
<polygon fill="red" stroke="red" points="1046.94,-176.32 1056.02,-170.86 1045.52,-169.47 1046.94,-176.32"/>
</g>
<!-- JUS5010 -->
<g id="node23" class="node">
<title>JUS5010</title>
<ellipse fill="none" stroke="black" cx="1379" cy="-18" rx="43.59" ry="18"/>
<text text-anchor="middle" x="1379" y="-14.3" font-family="Times New Roman,serif" font-size="14.00">JUS5010</text>
</g>
<!-- JUS4111&#45;&gt;JUS5010 -->
<g id="edge136" class="edge">
<title>JUS4111&#45;&gt;JUS5010</title>
<path fill="none" stroke="red" d="M1419.44,-72.41C1412.91,-63.78 1404.79,-53.06 1397.55,-43.5"/>
<polygon fill="red" stroke="red" points="1400.3,-41.33 1391.47,-35.47 1394.72,-45.56 1400.3,-41.33"/>
</g>
<!-- JUS5501 -->
<g id="node26" class="node">
<title>JUS5501</title>
<ellipse fill="none" stroke="black" cx="1484" cy="-18" rx="43.59" ry="18"/>
<text text-anchor="middle" x="1484" y="-14.3" font-family="Times New Roman,serif" font-size="14.00">JUS5501</text>
</g>
<!-- JUS4111&#45;&gt;JUS5501 -->
<g id="edge137" class="edge">
<title>JUS4111&#45;&gt;JUS5501</title>
<path fill="none" stroke="green" d="M1444.32,-72.41C1450.67,-63.87 1458.54,-53.28 1465.59,-43.79"/>
<polygon fill="green" stroke="green" points="1468.61,-45.58 1471.77,-35.47 1462.99,-41.41 1468.61,-45.58"/>
</g>
<!-- JUS4211&#45;&gt;JUS4111 -->
<g id="edge138" class="edge">
<title>JUS4211&#45;&gt;JUS4111</title>
<path fill="none" stroke="green" d="M874.67,-153.52C892.14,-150.3 913.06,-146.68 932,-144 1094.7,-121 1288.48,-103.17 1379.66,-95.34"/>
<polygon fill="green" stroke="green" points="1380.07,-98.82 1389.74,-94.48 1379.47,-91.84 1380.07,-98.82"/>
</g>
<!-- JUS4211&#45;&gt;JUS4121 -->
<g id="edge139" class="edge">
<title>JUS4211&#45;&gt;JUS4121</title>
<path fill="none" stroke="green" d="M819.21,-145.12C809.46,-135.9 797.02,-124.13 786.23,-113.92"/>
<polygon fill="green" stroke="green" points="788.4,-111.15 778.73,-106.82 783.58,-116.24 788.4,-111.15"/>
</g>
<!-- JUS4211&#45;&gt;JUS4122 -->
<g id="edge140" class="edge">
<title>JUS4211&#45;&gt;JUS4122</title>
<path fill="none" stroke="green" d="M795.89,-154.79C713.3,-142 524.43,-112.75 434.02,-98.75"/>
<polygon fill="green" stroke="green" points="434.44,-95.27 424.02,-97.2 433.37,-102.19 434.44,-95.27"/>
</g>
<!-- JUS4211&#45;&gt;JUS4123 -->
<g id="edge141" class="edge">
<title>JUS4211&#45;&gt;JUS4123</title>
<path fill="none" stroke="green" d="M874.14,-153.09C891.69,-149.75 912.82,-146.14 932,-144 1143.37,-120.4 1808.34,-98.6 2002.36,-92.62"/>
<polygon fill="green" stroke="green" points="2002.7,-96.11 2012.59,-92.3 2002.48,-89.11 2002.7,-96.11"/>
</g>
<!-- JUS5980 -->
<g id="node27" class="node">
<title>JUS5980</title>
<ellipse fill="none" stroke="black" cx="2822" cy="-522" rx="43.59" ry="18"/>
<text text-anchor="middle" x="2822" y="-518.3" font-family="Times New Roman,serif" font-size="14.00">JUS5980</text>
</g>
<!-- JUS5981 -->
<g id="node28" class="node">
<title>JUS5981</title>
<ellipse fill="none" stroke="black" cx="2769" cy="-594" rx="43.59" ry="18"/>
<text text-anchor="middle" x="2769" y="-590.3" font-family="Times New Roman,serif" font-size="14.00">JUS5981</text>
</g>
<!-- JUS5981&#45;&gt;JUS5980 -->
<g id="edge142" class="edge">
<title>JUS5981&#45;&gt;JUS5980</title>
<path fill="none" stroke="green" d="M2781.56,-576.41C2788.09,-567.78 2796.21,-557.06 2803.45,-547.5"/>
<polygon fill="green" stroke="green" points="2806.28,-549.56 2809.53,-539.47 2800.7,-545.33 2806.28,-549.56"/>
</g>
<!-- JUR4000 -->
<g id="node29" class="node">
<title>JUR4000</title>
<ellipse fill="none" stroke="black" cx="2875" cy="-594" rx="44.39" ry="18"/>
<text text-anchor="middle" x="2875" y="-590.3" font-family="Times New Roman,serif" font-size="14.00">JUR4000</text>
</g>
<!-- JUR4000&#45;&gt;JUS5980 -->
<g id="edge143" class="edge">
<title>JUR4000&#45;&gt;JUS5980</title>
<path fill="none" stroke="green" d="M2862.44,-576.41C2855.91,-567.78 2847.79,-557.06 2840.55,-547.5"/>
<polygon fill="green" stroke="green" points="2843.3,-545.33 2834.47,-539.47 2837.72,-549.56 2843.3,-545.33"/>
</g>
</g>
</svg>
