<?xml version="1.0" encoding="UTF-8" standalone="no"?>
<!DOCTYPE svg PUBLIC "-//W3C//DTD SVG 1.1//EN"
 "http://www.w3.org/Graphics/SVG/1.1/DTD/svg11.dtd">
<!-- Generated by graphviz version 2.49.0 (20210828.1703)
 -->
<!-- Pages: 1 -->
<svg width="1148pt" height="260pt"
 viewBox="0.00 0.00 1147.95 260.00" xmlns="http://www.w3.org/2000/svg" xmlns:xlink="http://www.w3.org/1999/xlink">
<g id="graph0" class="graph" transform="scale(1 1) rotate(0) translate(4 256)">
<polygon fill="white" stroke="transparent" points="-4,4 -4,-256 1143.95,-256 1143.95,4 -4,4"/>
<!-- IN1010 -->
<g id="node1" class="node">
<title>IN1010</title>
<ellipse fill="none" stroke="black" cx="390.26" cy="-162" rx="37.89" ry="18"/>
<text text-anchor="middle" x="390.26" y="-158.3" font-family="Times New Roman,serif" font-size="14.00">IN1010</text>
</g>
<!-- IN1030 -->
<g id="node3" class="node">
<title>IN1030</title>
<ellipse fill="none" stroke="black" cx="691.26" cy="-90" rx="37.89" ry="18"/>
<text text-anchor="middle" x="691.26" y="-86.3" font-family="Times New Roman,serif" font-size="14.00">IN1030</text>
</g>
<!-- IN1010&#45;&gt;IN1030 -->
<g id="edge1" class="edge">
<title>IN1010&#45;&gt;IN1030</title>
<path fill="none" stroke="green" d="M423.33,-153.31C478.05,-140.58 587.38,-115.16 648.1,-101.04"/>
<polygon fill="green" stroke="green" points="649.18,-104.38 658.13,-98.7 647.6,-97.56 649.18,-104.38"/>
</g>
<!-- IN2140 -->
<g id="node16" class="node">
<title>IN2140</title>
<ellipse fill="none" stroke="black" cx="193.26" cy="-90" rx="37.89" ry="18"/>
<text text-anchor="middle" x="193.26" y="-86.3" font-family="Times New Roman,serif" font-size="14.00">IN2140</text>
</g>
<!-- IN1010&#45;&gt;IN2140 -->
<g id="edge2" class="edge">
<title>IN1010&#45;&gt;IN2140</title>
<path fill="none" stroke="green" d="M361.57,-150.32C355.85,-148.21 349.87,-146.02 344.26,-144 306.45,-130.38 263.16,-115.23 232.65,-104.63"/>
<polygon fill="green" stroke="green" points="233.42,-101.19 222.82,-101.22 231.12,-107.8 233.42,-101.19"/>
</g>
<!-- IN3030 -->
<g id="node17" class="node">
<title>IN3030</title>
<ellipse fill="none" stroke="black" cx="297.26" cy="-90" rx="37.89" ry="18"/>
<text text-anchor="middle" x="297.26" y="-86.3" font-family="Times New Roman,serif" font-size="14.00">IN3030</text>
</g>
<!-- IN1010&#45;&gt;IN3030 -->
<g id="edge3" class="edge">
<title>IN1010&#45;&gt;IN3030</title>
<path fill="none" stroke="red" d="M370.99,-146.5C357.65,-136.45 339.69,-122.93 324.83,-111.75"/>
<polygon fill="red" stroke="red" points="326.6,-108.7 316.5,-105.49 322.39,-114.3 326.6,-108.7"/>
</g>
<!-- IN3110 -->
<g id="node19" class="node">
<title>IN3110</title>
<ellipse fill="none" stroke="black" cx="456.26" cy="-90" rx="37.89" ry="18"/>
<text text-anchor="middle" x="456.26" y="-86.3" font-family="Times New Roman,serif" font-size="14.00">IN3110</text>
</g>
<!-- IN1010&#45;&gt;IN3110 -->
<g id="edge4" class="edge">
<title>IN1010&#45;&gt;IN3110</title>
<path fill="none" stroke="green" d="M405.23,-145.12C413.84,-135.99 424.81,-124.36 434.37,-114.22"/>
<polygon fill="green" stroke="green" points="437.03,-116.5 441.34,-106.82 431.93,-111.7 437.03,-116.5"/>
</g>
<!-- IN3240 -->
<g id="node21" class="node">
<title>IN3240</title>
<ellipse fill="none" stroke="black" cx="625.26" cy="-18" rx="37.89" ry="18"/>
<text text-anchor="middle" x="625.26" y="-14.3" font-family="Times New Roman,serif" font-size="14.00">IN3240</text>
</g>
<!-- IN1010&#45;&gt;IN3240 -->
<g id="edge5" class="edge">
<title>IN1010&#45;&gt;IN3240</title>
<path fill="none" stroke="green" d="M388.91,-143.79C388.34,-123.81 390.67,-91.16 409.26,-72 432.48,-48.06 522.72,-32.3 578.95,-24.58"/>
<polygon fill="green" stroke="green" points="579.59,-28.02 589.03,-23.23 578.66,-21.08 579.59,-28.02"/>
</g>
<!-- IN1000 -->
<g id="node2" class="node">
<title>IN1000</title>
<ellipse fill="none" stroke="black" cx="615.26" cy="-234" rx="37.89" ry="18"/>
<text text-anchor="middle" x="615.26" y="-230.3" font-family="Times New Roman,serif" font-size="14.00">IN1000</text>
</g>
<!-- IN1000&#45;&gt;IN1010 -->
<g id="edge6" class="edge">
<title>IN1000&#45;&gt;IN1010</title>
<path fill="none" stroke="red" d="M584.27,-223.7C549.6,-213.25 491.82,-195.69 442.26,-180 438.29,-178.74 434.15,-177.42 430.02,-176.08"/>
<polygon fill="red" stroke="red" points="431.07,-172.74 420.47,-172.98 428.9,-179.4 431.07,-172.74"/>
</g>
<!-- IN1000&#45;&gt;IN1030 -->
<g id="edge7" class="edge">
<title>IN1000&#45;&gt;IN1030</title>
<path fill="none" stroke="red" d="M644.05,-222.33C662.31,-213.87 684.46,-200.11 695.26,-180 705.46,-161 703.36,-136.3 699.34,-117.74"/>
<polygon fill="red" stroke="red" points="702.7,-116.75 696.9,-107.88 695.9,-118.43 702.7,-116.75"/>
</g>
<!-- IN1080 -->
<g id="node4" class="node">
<title>IN1080</title>
<ellipse fill="none" stroke="black" cx="51.26" cy="-162" rx="37.89" ry="18"/>
<text text-anchor="middle" x="51.26" y="-158.3" font-family="Times New Roman,serif" font-size="14.00">IN1080</text>
</g>
<!-- IN1000&#45;&gt;IN1080 -->
<g id="edge8" class="edge">
<title>IN1000&#45;&gt;IN1080</title>
<path fill="none" stroke="green" d="M578.56,-229.85C498.77,-222.78 303.6,-204.37 141.26,-180 126.33,-177.76 110.09,-174.84 95.57,-172.06"/>
<polygon fill="green" stroke="green" points="95.83,-168.54 85.34,-170.07 94.49,-175.41 95.83,-168.54"/>
</g>
<!-- IN1910 -->
<g id="node6" class="node">
<title>IN1910</title>
<ellipse fill="none" stroke="black" cx="615.26" cy="-162" rx="37.89" ry="18"/>
<text text-anchor="middle" x="615.26" y="-158.3" font-family="Times New Roman,serif" font-size="14.00">IN1910</text>
</g>
<!-- IN1000&#45;&gt;IN1910 -->
<g id="edge9" class="edge">
<title>IN1000&#45;&gt;IN1910</title>
<path fill="none" stroke="red" d="M615.26,-215.7C615.26,-207.98 615.26,-198.71 615.26,-190.11"/>
<polygon fill="red" stroke="red" points="618.76,-190.1 615.26,-180.1 611.76,-190.1 618.76,-190.1"/>
</g>
<!-- IN2040 -->
<g id="node7" class="node">
<title>IN2040</title>
<ellipse fill="none" stroke="black" cx="522.26" cy="-162" rx="37.89" ry="18"/>
<text text-anchor="middle" x="522.26" y="-158.3" font-family="Times New Roman,serif" font-size="14.00">IN2040</text>
</g>
<!-- IN1000&#45;&gt;IN2040 -->
<g id="edge10" class="edge">
<title>IN1000&#45;&gt;IN2040</title>
<path fill="none" stroke="red" d="M595.99,-218.5C582.65,-208.45 564.69,-194.93 549.83,-183.75"/>
<polygon fill="red" stroke="red" points="551.6,-180.7 541.5,-177.49 547.39,-186.3 551.6,-180.7"/>
</g>
<!-- IN2060 -->
<g id="node8" class="node">
<title>IN2060</title>
<ellipse fill="none" stroke="black" cx="51.26" cy="-90" rx="37.89" ry="18"/>
<text text-anchor="middle" x="51.26" y="-86.3" font-family="Times New Roman,serif" font-size="14.00">IN2060</text>
</g>
<!-- IN1000&#45;&gt;IN2060 -->
<g id="edge11" class="edge">
<title>IN1000&#45;&gt;IN2060</title>
<path fill="none" stroke="green" d="M577.43,-232.88C504.21,-231.6 338.86,-223.66 208.26,-180 159.85,-163.82 109.47,-132.19 79.23,-111.32"/>
<polygon fill="green" stroke="green" points="81.09,-108.35 70.89,-105.49 77.08,-114.09 81.09,-108.35"/>
</g>
<!-- IN2070 -->
<g id="node9" class="node">
<title>IN2070</title>
<ellipse fill="none" stroke="black" cx="916.26" cy="-162" rx="37.89" ry="18"/>
<text text-anchor="middle" x="916.26" y="-158.3" font-family="Times New Roman,serif" font-size="14.00">IN2070</text>
</g>
<!-- IN1000&#45;&gt;IN2070 -->
<g id="edge12" class="edge">
<title>IN1000&#45;&gt;IN2070</title>
<path fill="none" stroke="red" d="M650.72,-227.35C700.36,-219.06 793.11,-202.14 870.26,-180 873.02,-179.21 875.85,-178.33 878.69,-177.4"/>
<polygon fill="red" stroke="red" points="879.95,-180.67 888.26,-174.1 877.66,-174.05 879.95,-180.67"/>
</g>
<!-- IN2090 -->
<g id="node11" class="node">
<title>IN2090</title>
<ellipse fill="none" stroke="black" cx="737.26" cy="-18" rx="37.89" ry="18"/>
<text text-anchor="middle" x="737.26" y="-14.3" font-family="Times New Roman,serif" font-size="14.00">IN2090</text>
</g>
<!-- IN1000&#45;&gt;IN2090 -->
<g id="edge13" class="edge">
<title>IN1000&#45;&gt;IN2090</title>
<path fill="none" stroke="red" d="M645.73,-222.96C667.01,-214.54 694.65,-200.54 712.26,-180 744.29,-142.63 744.33,-81.68 741.07,-46.47"/>
<polygon fill="red" stroke="red" points="744.53,-45.99 739.98,-36.42 737.57,-46.74 744.53,-45.99"/>
</g>
<!-- IN2100 -->
<g id="node12" class="node">
<title>IN2100</title>
<ellipse fill="none" stroke="black" cx="1009.26" cy="-162" rx="37.89" ry="18"/>
<text text-anchor="middle" x="1009.26" y="-158.3" font-family="Times New Roman,serif" font-size="14.00">IN2100</text>
</g>
<!-- IN1000&#45;&gt;IN2100 -->
<g id="edge14" class="edge">
<title>IN1000&#45;&gt;IN2100</title>
<path fill="none" stroke="green" d="M652.07,-229.87C716.12,-223.88 851.86,-208.75 963.26,-180 966.04,-179.28 968.89,-178.46 971.74,-177.57"/>
<polygon fill="green" stroke="green" points="972.96,-180.85 981.33,-174.35 970.73,-174.21 972.96,-180.85"/>
</g>
<!-- IN2110 -->
<g id="node14" class="node">
<title>IN2110</title>
<ellipse fill="none" stroke="black" cx="1102.26" cy="-162" rx="37.89" ry="18"/>
<text text-anchor="middle" x="1102.26" y="-158.3" font-family="Times New Roman,serif" font-size="14.00">IN2110</text>
</g>
<!-- IN1000&#45;&gt;IN2110 -->
<g id="edge15" class="edge">
<title>IN1000&#45;&gt;IN2110</title>
<path fill="none" stroke="red" d="M652.66,-231.46C729.34,-227.66 909.52,-215.41 1056.26,-180 1059.05,-179.33 1061.91,-178.53 1064.76,-177.67"/>
<polygon fill="red" stroke="red" points="1065.97,-180.96 1074.36,-174.49 1063.77,-174.31 1065.97,-180.96"/>
</g>
<!-- IN1000&#45;&gt;IN2140 -->
<g id="edge16" class="edge">
<title>IN1000&#45;&gt;IN2140</title>
<path fill="none" stroke="red" d="M577.63,-231.95C493.67,-228.95 294.18,-217.9 240.26,-180 219.35,-165.3 206.99,-138.34 200.23,-117.93"/>
<polygon fill="red" stroke="red" points="203.54,-116.78 197.28,-108.24 196.85,-118.82 203.54,-116.78"/>
</g>
<!-- IN1000&#45;&gt;IN3030 -->
<g id="edge17" class="edge">
<title>IN1000&#45;&gt;IN3030</title>
<path fill="none" stroke="red" d="M577.47,-233.45C492.86,-233.57 292.31,-228.6 250.26,-180 232.9,-159.94 252.67,-132.36 271.63,-113.25"/>
<polygon fill="red" stroke="red" points="274.26,-115.57 279.05,-106.12 269.41,-110.52 274.26,-115.57"/>
</g>
<!-- IN1000&#45;&gt;IN3110 -->
<g id="edge18" class="edge">
<title>IN1000&#45;&gt;IN3110</title>
<path fill="none" stroke="green" d="M579.02,-228.98C547,-223.46 501.42,-210.46 475.26,-180 460.67,-163.01 456.41,-137.55 455.51,-118.21"/>
<polygon fill="green" stroke="green" points="459.01,-118.11 455.32,-108.18 452.01,-118.25 459.01,-118.11"/>
</g>
<!-- IN3190 -->
<g id="node20" class="node">
<title>IN3190</title>
<ellipse fill="none" stroke="black" cx="823.26" cy="-162" rx="37.89" ry="18"/>
<text text-anchor="middle" x="823.26" y="-158.3" font-family="Times New Roman,serif" font-size="14.00">IN3190</text>
</g>
<!-- IN1000&#45;&gt;IN3190 -->
<g id="edge19" class="edge">
<title>IN1000&#45;&gt;IN3190</title>
<path fill="none" stroke="green" d="M645.06,-222.97C681.48,-210.71 743.25,-189.93 783.64,-176.33"/>
<polygon fill="green" stroke="green" points="784.81,-179.63 793.17,-173.12 782.58,-173 784.81,-179.63"/>
</g>
<!-- IN1000&#45;&gt;IN3240 -->
<g id="edge20" class="edge">
<title>IN1000&#45;&gt;IN3240</title>
<path fill="none" stroke="red" d="M634.08,-217.98C644.55,-208.38 656.59,-194.95 662.26,-180 667.94,-165.04 665.93,-159.57 662.26,-144 658.15,-126.59 650.17,-124.88 644.26,-108 637.17,-87.78 632.26,-64 629.21,-46.12"/>
<polygon fill="red" stroke="red" points="632.64,-45.39 627.59,-36.08 625.73,-46.51 632.64,-45.39"/>
</g>
<!-- IN1030&#45;&gt;IN2090 -->
<g id="edge21" class="edge">
<title>IN1030&#45;&gt;IN2090</title>
<path fill="none" stroke="green" d="M702.16,-72.41C707.72,-63.95 714.59,-53.49 720.78,-44.08"/>
<polygon fill="green" stroke="green" points="723.87,-45.75 726.43,-35.47 718.02,-41.9 723.87,-45.75"/>
</g>
<!-- IN1030&#45;&gt;IN3240 -->
<g id="edge22" class="edge">
<title>IN1030&#45;&gt;IN3240</title>
<path fill="none" stroke="green" d="M676.28,-73.12C667.67,-63.99 656.71,-52.36 647.15,-42.22"/>
<polygon fill="green" stroke="green" points="649.58,-39.7 640.18,-34.82 644.49,-44.5 649.58,-39.7"/>
</g>
<!-- IN1080&#45;&gt;IN2060 -->
<g id="edge23" class="edge">
<title>IN1080&#45;&gt;IN2060</title>
<path fill="none" stroke="green" d="M51.26,-143.7C51.26,-135.98 51.26,-126.71 51.26,-118.11"/>
<polygon fill="green" stroke="green" points="54.76,-118.1 51.26,-108.1 47.76,-118.1 54.76,-118.1"/>
</g>
<!-- IN1020 -->
<g id="node5" class="node">
<title>IN1020</title>
<ellipse fill="none" stroke="black" cx="51.26" cy="-234" rx="37.89" ry="18"/>
<text text-anchor="middle" x="51.26" y="-230.3" font-family="Times New Roman,serif" font-size="14.00">IN1020</text>
</g>
<!-- IN1020&#45;&gt;IN1080 -->
<g id="edge24" class="edge">
<title>IN1020&#45;&gt;IN1080</title>
<path fill="none" stroke="green" d="M51.26,-215.7C51.26,-207.98 51.26,-198.71 51.26,-190.11"/>
<polygon fill="green" stroke="green" points="54.76,-190.1 51.26,-180.1 47.76,-190.1 54.76,-190.1"/>
</g>
<!-- IN1020&#45;&gt;IN2060 -->
<g id="edge25" class="edge">
<title>IN1020&#45;&gt;IN2060</title>
<path fill="none" stroke="green" d="M32.43,-217.98C21.96,-208.38 9.93,-194.95 4.26,-180 -1.42,-165.04 -1.42,-158.96 4.26,-144 8.65,-132.44 16.84,-121.78 25.17,-113.11"/>
<polygon fill="green" stroke="green" points="27.72,-115.51 32.43,-106.02 22.83,-110.5 27.72,-115.51"/>
</g>
<!-- IN1020&#45;&gt;IN2140 -->
<g id="edge26" class="edge">
<title>IN1020&#45;&gt;IN2140</title>
<path fill="none" stroke="red" d="M66.72,-217.53C91.8,-192.46 141.44,-142.82 170.53,-113.72"/>
<polygon fill="red" stroke="red" points="173.21,-115.99 177.81,-106.45 168.26,-111.04 173.21,-115.99"/>
</g>
<!-- IN1910&#45;&gt;IN3110 -->
<g id="edge27" class="edge">
<title>IN1910&#45;&gt;IN3110</title>
<path fill="none" stroke="green" d="M588.29,-149.13C561.94,-137.53 521.66,-119.79 492.52,-106.96"/>
<polygon fill="green" stroke="green" points="493.66,-103.64 483.1,-102.82 490.84,-110.05 493.66,-103.64"/>
</g>
<!-- IN1105 -->
<g id="node10" class="node">
<title>IN1105</title>
<ellipse fill="none" stroke="black" cx="916.26" cy="-234" rx="37.89" ry="18"/>
<text text-anchor="middle" x="916.26" y="-230.3" font-family="Times New Roman,serif" font-size="14.00">IN1105</text>
</g>
<!-- IN1105&#45;&gt;IN2070 -->
<g id="edge28" class="edge">
<title>IN1105&#45;&gt;IN2070</title>
<path fill="none" stroke="red" d="M916.26,-215.7C916.26,-207.98 916.26,-198.71 916.26,-190.11"/>
<polygon fill="red" stroke="red" points="919.76,-190.1 916.26,-180.1 912.76,-190.1 919.76,-190.1"/>
</g>
<!-- IN1150 -->
<g id="node13" class="node">
<title>IN1150</title>
<ellipse fill="none" stroke="black" cx="1009.26" cy="-234" rx="37.89" ry="18"/>
<text text-anchor="middle" x="1009.26" y="-230.3" font-family="Times New Roman,serif" font-size="14.00">IN1150</text>
</g>
<!-- IN1150&#45;&gt;IN2100 -->
<g id="edge29" class="edge">
<title>IN1150&#45;&gt;IN2100</title>
<path fill="none" stroke="green" d="M1009.26,-215.7C1009.26,-207.98 1009.26,-198.71 1009.26,-190.11"/>
<polygon fill="green" stroke="green" points="1012.76,-190.1 1009.26,-180.1 1005.76,-190.1 1012.76,-190.1"/>
</g>
<!-- IN1140 -->
<g id="node15" class="node">
<title>IN1140</title>
<ellipse fill="none" stroke="black" cx="1102.26" cy="-234" rx="37.89" ry="18"/>
<text text-anchor="middle" x="1102.26" y="-230.3" font-family="Times New Roman,serif" font-size="14.00">IN1140</text>
</g>
<!-- IN1140&#45;&gt;IN2110 -->
<g id="edge30" class="edge">
<title>IN1140&#45;&gt;IN2110</title>
<path fill="none" stroke="green" d="M1102.26,-215.7C1102.26,-207.98 1102.26,-198.71 1102.26,-190.11"/>
<polygon fill="green" stroke="green" points="1105.76,-190.1 1102.26,-180.1 1098.76,-190.1 1105.76,-190.1"/>
</g>
<!-- IN2010 -->
<g id="node18" class="node">
<title>IN2010</title>
<ellipse fill="none" stroke="black" cx="297.26" cy="-162" rx="37.89" ry="18"/>
<text text-anchor="middle" x="297.26" y="-158.3" font-family="Times New Roman,serif" font-size="14.00">IN2010</text>
</g>
<!-- IN2010&#45;&gt;IN3030 -->
<g id="edge31" class="edge">
<title>IN2010&#45;&gt;IN3030</title>
<path fill="none" stroke="green" d="M297.26,-143.7C297.26,-135.98 297.26,-126.71 297.26,-118.11"/>
<polygon fill="green" stroke="green" points="300.76,-118.1 297.26,-108.1 293.76,-118.1 300.76,-118.1"/>
</g>
</g>
</svg>
