<?xml version="1.0" encoding="UTF-8" standalone="no"?>
<!DOCTYPE svg PUBLIC "-//W3C//DTD SVG 1.1//EN"
 "http://www.w3.org/Graphics/SVG/1.1/DTD/svg11.dtd">
<!-- Generated by graphviz version 2.49.0 (20210828.1703)
 -->
<!-- Pages: 1 -->
<svg width="1820pt" height="332pt"
 viewBox="0.00 0.00 1820.39 332.00" xmlns="http://www.w3.org/2000/svg" xmlns:xlink="http://www.w3.org/1999/xlink">
<g id="graph0" class="graph" transform="scale(1 1) rotate(0) translate(4 328)">
<polygon fill="white" stroke="transparent" points="-4,4 -4,-328 1816.39,-328 1816.39,4 -4,4"/>
<!-- IN1010 -->
<g id="node1" class="node">
<title>IN1010</title>
<ellipse fill="none" stroke="black" cx="1144.7" cy="-234" rx="37.89" ry="18"/>
<text text-anchor="middle" x="1144.7" y="-230.3" font-family="Times New Roman,serif" font-size="14.00">IN1010</text>
</g>
<!-- IN1030 -->
<g id="node3" class="node">
<title>IN1030</title>
<ellipse fill="none" stroke="black" cx="511.7" cy="-162" rx="37.89" ry="18"/>
<text text-anchor="middle" x="511.7" y="-158.3" font-family="Times New Roman,serif" font-size="14.00">IN1030</text>
</g>
<!-- IN1010&#45;&gt;IN1030 -->
<g id="edge1" class="edge">
<title>IN1010&#45;&gt;IN1030</title>
<path fill="none" stroke="green" d="M1108.21,-229.43C1025.49,-221.26 817.44,-200.37 643.7,-180 615.06,-176.64 582.97,-172.52 557.6,-169.17"/>
<polygon fill="green" stroke="green" points="557.9,-165.68 547.53,-167.84 556.98,-172.62 557.9,-165.68"/>
</g>
<!-- IN2000 -->
<g id="node9" class="node">
<title>IN2000</title>
<ellipse fill="none" stroke="black" cx="454.7" cy="-18" rx="37.89" ry="18"/>
<text text-anchor="middle" x="454.7" y="-14.3" font-family="Times New Roman,serif" font-size="14.00">IN2000</text>
</g>
<!-- IN1010&#45;&gt;IN2000 -->
<g id="edge2" class="edge">
<title>IN1010&#45;&gt;IN2000</title>
<path fill="none" stroke="red" d="M1106.96,-233.36C1010.3,-232.56 749.03,-219.5 572.7,-108 553.03,-95.57 552.91,-86.48 534.7,-72 519.33,-59.78 501.15,-47.58 486.01,-37.97"/>
<polygon fill="red" stroke="red" points="487.82,-34.97 477.49,-32.63 484.11,-40.9 487.82,-34.97"/>
</g>
<!-- IN2010 -->
<g id="node11" class="node">
<title>IN2010</title>
<ellipse fill="none" stroke="black" cx="1248.7" cy="-162" rx="37.89" ry="18"/>
<text text-anchor="middle" x="1248.7" y="-158.3" font-family="Times New Roman,serif" font-size="14.00">IN2010</text>
</g>
<!-- IN1010&#45;&gt;IN2010 -->
<g id="edge3" class="edge">
<title>IN1010&#45;&gt;IN2010</title>
<path fill="none" stroke="red" d="M1165.74,-218.83C1181.11,-208.49 1202.14,-194.33 1219.18,-182.86"/>
<polygon fill="red" stroke="red" points="1221.34,-185.63 1227.68,-177.14 1217.43,-179.82 1221.34,-185.63"/>
</g>
<!-- IN2030 -->
<g id="node13" class="node">
<title>IN2030</title>
<ellipse fill="none" stroke="black" cx="1155.7" cy="-162" rx="37.89" ry="18"/>
<text text-anchor="middle" x="1155.7" y="-158.3" font-family="Times New Roman,serif" font-size="14.00">IN2030</text>
</g>
<!-- IN1010&#45;&gt;IN2030 -->
<g id="edge4" class="edge">
<title>IN1010&#45;&gt;IN2030</title>
<path fill="none" stroke="red" d="M1147.42,-215.7C1148.63,-207.98 1150.08,-198.71 1151.44,-190.11"/>
<polygon fill="red" stroke="red" points="1154.91,-190.53 1153.01,-180.1 1148,-189.44 1154.91,-190.53"/>
</g>
<!-- IN2140 -->
<g id="node24" class="node">
<title>IN2140</title>
<ellipse fill="none" stroke="black" cx="1023.7" cy="-162" rx="37.89" ry="18"/>
<text text-anchor="middle" x="1023.7" y="-158.3" font-family="Times New Roman,serif" font-size="14.00">IN2140</text>
</g>
<!-- IN1010&#45;&gt;IN2140 -->
<g id="edge5" class="edge">
<title>IN1010&#45;&gt;IN2140</title>
<path fill="none" stroke="green" d="M1121.65,-219.67C1102.9,-208.82 1076.23,-193.39 1055.45,-181.37"/>
<polygon fill="green" stroke="green" points="1057.06,-178.26 1046.65,-176.28 1053.56,-184.32 1057.06,-178.26"/>
</g>
<!-- IN3015 -->
<g id="node27" class="node">
<title>IN3015</title>
<ellipse fill="none" stroke="black" cx="1511.7" cy="-162" rx="37.89" ry="18"/>
<text text-anchor="middle" x="1511.7" y="-158.3" font-family="Times New Roman,serif" font-size="14.00">IN3015</text>
</g>
<!-- IN1010&#45;&gt;IN3015 -->
<g id="edge6" class="edge">
<title>IN1010&#45;&gt;IN3015</title>
<path fill="none" stroke="green" d="M1175.73,-223.64C1185.57,-220.91 1196.53,-218.09 1206.7,-216 1320.53,-192.59 1352.98,-208.31 1465.7,-180 1468.48,-179.3 1471.34,-178.49 1474.19,-177.61"/>
<polygon fill="green" stroke="green" points="1475.4,-180.89 1483.78,-174.41 1473.19,-174.25 1475.4,-180.89"/>
</g>
<!-- IN3030 -->
<g id="node30" class="node">
<title>IN3030</title>
<ellipse fill="none" stroke="black" cx="1759.7" cy="-90" rx="37.89" ry="18"/>
<text text-anchor="middle" x="1759.7" y="-86.3" font-family="Times New Roman,serif" font-size="14.00">IN3030</text>
</g>
<!-- IN1010&#45;&gt;IN3030 -->
<g id="edge7" class="edge">
<title>IN1010&#45;&gt;IN3030</title>
<path fill="none" stroke="red" d="M1176.36,-224.17C1228.55,-209.59 1327.23,-181.89 1330.7,-180 1351.99,-168.39 1349.48,-153.73 1371.7,-144 1511.7,-82.7 1564.86,-142.76 1713.7,-108 1716.67,-107.31 1719.71,-106.47 1722.74,-105.55"/>
<polygon fill="red" stroke="red" points="1723.91,-108.85 1732.31,-102.39 1721.72,-102.21 1723.91,-108.85"/>
</g>
<!-- IN3060 -->
<g id="node33" class="node">
<title>IN3060</title>
<ellipse fill="none" stroke="black" cx="937.7" cy="-90" rx="37.89" ry="18"/>
<text text-anchor="middle" x="937.7" y="-86.3" font-family="Times New Roman,serif" font-size="14.00">IN3060</text>
</g>
<!-- IN1010&#45;&gt;IN3060 -->
<g id="edge8" class="edge">
<title>IN1010&#45;&gt;IN3060</title>
<path fill="none" stroke="red" d="M1107.6,-230.11C1070.34,-225.38 1013.33,-212.9 976.7,-180 958.72,-163.85 948.65,-137.91 943.26,-118.19"/>
<polygon fill="red" stroke="red" points="946.6,-117.11 940.8,-108.25 939.81,-118.8 946.6,-117.11"/>
</g>
<!-- IN3110 -->
<g id="node35" class="node">
<title>IN3110</title>
<ellipse fill="none" stroke="black" cx="1418.7" cy="-162" rx="37.89" ry="18"/>
<text text-anchor="middle" x="1418.7" y="-158.3" font-family="Times New Roman,serif" font-size="14.00">IN3110</text>
</g>
<!-- IN1010&#45;&gt;IN3110 -->
<g id="edge9" class="edge">
<title>IN1010&#45;&gt;IN3110</title>
<path fill="none" stroke="green" d="M1176.16,-224.07C1185.92,-221.38 1196.73,-218.49 1206.7,-216 1277.42,-198.36 1296.42,-199.35 1366.7,-180 1370.82,-178.87 1375.1,-177.6 1379.35,-176.3"/>
<polygon fill="green" stroke="green" points="1380.67,-179.55 1389.15,-173.2 1378.56,-172.88 1380.67,-179.55"/>
</g>
<!-- IN3120 -->
<g id="node36" class="node">
<title>IN3120</title>
<ellipse fill="none" stroke="black" cx="1666.7" cy="-90" rx="37.89" ry="18"/>
<text text-anchor="middle" x="1666.7" y="-86.3" font-family="Times New Roman,serif" font-size="14.00">IN3120</text>
</g>
<!-- IN1010&#45;&gt;IN3120 -->
<g id="edge10" class="edge">
<title>IN1010&#45;&gt;IN3120</title>
<path fill="none" stroke="red" d="M1175.76,-223.54C1213.55,-211.79 1274.87,-191.85 1295.7,-180 1317.36,-167.67 1315.86,-153.98 1338.7,-144 1454.47,-93.4 1497.98,-138.09 1620.7,-108 1623.49,-107.32 1626.34,-106.52 1629.19,-105.64"/>
<polygon fill="red" stroke="red" points="1630.4,-108.93 1638.79,-102.46 1628.2,-102.29 1630.4,-108.93"/>
</g>
<!-- IN3240 -->
<g id="node42" class="node">
<title>IN3240</title>
<ellipse fill="none" stroke="black" cx="355.7" cy="-90" rx="37.89" ry="18"/>
<text text-anchor="middle" x="355.7" y="-86.3" font-family="Times New Roman,serif" font-size="14.00">IN3240</text>
</g>
<!-- IN1010&#45;&gt;IN3240 -->
<g id="edge11" class="edge">
<title>IN1010&#45;&gt;IN3240</title>
<path fill="none" stroke="green" d="M1107.03,-233.06C982.08,-232.79 582.56,-228.09 464.7,-180 441.62,-170.58 440.97,-159.8 421.7,-144 408.77,-133.4 394.3,-121.76 382.21,-112.09"/>
<polygon fill="green" stroke="green" points="384.27,-109.25 374.27,-105.75 379.9,-114.72 384.27,-109.25"/>
</g>
<!-- IN3260 -->
<g id="node43" class="node">
<title>IN3260</title>
<ellipse fill="none" stroke="black" cx="1216.7" cy="-90" rx="37.89" ry="18"/>
<text text-anchor="middle" x="1216.7" y="-86.3" font-family="Times New Roman,serif" font-size="14.00">IN3260</text>
</g>
<!-- IN1010&#45;&gt;IN3260 -->
<g id="edge12" class="edge">
<title>IN1010&#45;&gt;IN3260</title>
<path fill="none" stroke="red" d="M1129.89,-217.43C1114.26,-199.04 1093.8,-167.91 1108.7,-144 1112.91,-137.24 1150.43,-119.73 1180.07,-106.67"/>
<polygon fill="red" stroke="red" points="1181.61,-109.82 1189.37,-102.61 1178.81,-103.41 1181.61,-109.82"/>
</g>
<!-- IN1000 -->
<g id="node2" class="node">
<title>IN1000</title>
<ellipse fill="none" stroke="black" cx="1144.7" cy="-306" rx="37.89" ry="18"/>
<text text-anchor="middle" x="1144.7" y="-302.3" font-family="Times New Roman,serif" font-size="14.00">IN1000</text>
</g>
<!-- IN1000&#45;&gt;IN1010 -->
<g id="edge13" class="edge">
<title>IN1000&#45;&gt;IN1010</title>
<path fill="none" stroke="red" d="M1144.7,-287.7C1144.7,-279.98 1144.7,-270.71 1144.7,-262.11"/>
<polygon fill="red" stroke="red" points="1148.2,-262.1 1144.7,-252.1 1141.2,-262.1 1148.2,-262.1"/>
</g>
<!-- IN1000&#45;&gt;IN1030 -->
<g id="edge14" class="edge">
<title>IN1000&#45;&gt;IN1030</title>
<path fill="none" stroke="red" d="M1107.33,-303.48C986.82,-298.31 613.62,-280.18 567.7,-252 544.7,-237.89 529.59,-210.4 520.92,-189.69"/>
<polygon fill="red" stroke="red" points="524.09,-188.18 517.18,-180.15 517.58,-190.74 524.09,-188.18"/>
</g>
<!-- IN1080 -->
<g id="node6" class="node">
<title>IN1080</title>
<ellipse fill="none" stroke="black" cx="341.7" cy="-234" rx="37.89" ry="18"/>
<text text-anchor="middle" x="341.7" y="-230.3" font-family="Times New Roman,serif" font-size="14.00">IN1080</text>
</g>
<!-- IN1000&#45;&gt;IN1080 -->
<g id="edge15" class="edge">
<title>IN1000&#45;&gt;IN1080</title>
<path fill="none" stroke="green" d="M1106.76,-305.59C995.86,-306.6 663.07,-304.7 393.7,-252 389.28,-251.14 384.71,-250.01 380.21,-248.74"/>
<polygon fill="green" stroke="green" points="381.1,-245.36 370.52,-245.81 379.07,-252.06 381.1,-245.36"/>
</g>
<!-- IN1910 -->
<g id="node8" class="node">
<title>IN1910</title>
<ellipse fill="none" stroke="black" cx="1253.7" cy="-234" rx="37.89" ry="18"/>
<text text-anchor="middle" x="1253.7" y="-230.3" font-family="Times New Roman,serif" font-size="14.00">IN1910</text>
</g>
<!-- IN1000&#45;&gt;IN1910 -->
<g id="edge16" class="edge">
<title>IN1000&#45;&gt;IN1910</title>
<path fill="none" stroke="red" d="M1166.23,-291.17C1182.65,-280.62 1205.47,-265.97 1223.68,-254.27"/>
<polygon fill="red" stroke="red" points="1225.68,-257.15 1232.21,-248.8 1221.9,-251.26 1225.68,-257.15"/>
</g>
<!-- IN2090 -->
<g id="node12" class="node">
<title>IN2090</title>
<ellipse fill="none" stroke="black" cx="487.7" cy="-90" rx="37.89" ry="18"/>
<text text-anchor="middle" x="487.7" y="-86.3" font-family="Times New Roman,serif" font-size="14.00">IN2090</text>
</g>
<!-- IN1000&#45;&gt;IN2090 -->
<g id="edge20" class="edge">
<title>IN1000&#45;&gt;IN2090</title>
<path fill="none" stroke="red" d="M1108.08,-301.62C1050.4,-295.63 935.31,-280.96 841.7,-252 718.07,-213.76 581.14,-142.54 520.11,-109.15"/>
<polygon fill="red" stroke="red" points="521.78,-106.07 511.33,-104.32 518.4,-112.2 521.78,-106.07"/>
</g>
<!-- IN2040 -->
<g id="node14" class="node">
<title>IN2040</title>
<ellipse fill="none" stroke="black" cx="1540.7" cy="-234" rx="37.89" ry="18"/>
<text text-anchor="middle" x="1540.7" y="-230.3" font-family="Times New Roman,serif" font-size="14.00">IN2040</text>
</g>
<!-- IN1000&#45;&gt;IN2040 -->
<g id="edge17" class="edge">
<title>IN1000&#45;&gt;IN2040</title>
<path fill="none" stroke="red" d="M1180.66,-300.41C1241.67,-292.35 1369.2,-274.4 1475.7,-252 1483.4,-250.38 1491.56,-248.43 1499.4,-246.44"/>
<polygon fill="red" stroke="red" points="1500.31,-249.82 1509.1,-243.92 1498.55,-243.05 1500.31,-249.82"/>
</g>
<!-- IN2060 -->
<g id="node15" class="node">
<title>IN2060</title>
<ellipse fill="none" stroke="black" cx="210.7" cy="-162" rx="37.89" ry="18"/>
<text text-anchor="middle" x="210.7" y="-158.3" font-family="Times New Roman,serif" font-size="14.00">IN2060</text>
</g>
<!-- IN1000&#45;&gt;IN2060 -->
<g id="edge18" class="edge">
<title>IN1000&#45;&gt;IN2060</title>
<path fill="none" stroke="green" d="M1107.11,-304.28C952.33,-301.07 368.92,-286.79 294.7,-252 286.67,-248.24 253.39,-211.54 231.21,-186.46"/>
<polygon fill="green" stroke="green" points="233.68,-183.97 224.44,-178.78 228.43,-188.59 233.68,-183.97"/>
</g>
<!-- IN2070 -->
<g id="node16" class="node">
<title>IN2070</title>
<ellipse fill="none" stroke="black" cx="1681.7" cy="-234" rx="37.89" ry="18"/>
<text text-anchor="middle" x="1681.7" y="-230.3" font-family="Times New Roman,serif" font-size="14.00">IN2070</text>
</g>
<!-- IN1000&#45;&gt;IN2070 -->
<g id="edge19" class="edge">
<title>IN1000&#45;&gt;IN2070</title>
<path fill="none" stroke="red" d="M1182.23,-303.54C1264.27,-299.79 1465.34,-287.45 1629.7,-252 1634.1,-251.05 1638.65,-249.87 1643.15,-248.58"/>
<polygon fill="red" stroke="red" points="1644.3,-251.89 1652.84,-245.61 1642.25,-245.19 1644.3,-251.89"/>
</g>
<!-- IN2100 -->
<g id="node20" class="node">
<title>IN2100</title>
<ellipse fill="none" stroke="black" cx="619.7" cy="-90" rx="37.89" ry="18"/>
<text text-anchor="middle" x="619.7" y="-86.3" font-family="Times New Roman,serif" font-size="14.00">IN2100</text>
</g>
<!-- IN1000&#45;&gt;IN2100 -->
<g id="edge21" class="edge">
<title>IN1000&#45;&gt;IN2100</title>
<path fill="none" stroke="green" d="M1111.6,-297.34C1043.48,-280.92 883.53,-238.97 758.7,-180 717.78,-160.67 674.46,-131.32 647.26,-111.67"/>
<polygon fill="green" stroke="green" points="649.16,-108.73 639.02,-105.66 645.03,-114.38 649.16,-108.73"/>
</g>
<!-- IN2110 -->
<g id="node21" class="node">
<title>IN2110</title>
<ellipse fill="none" stroke="black" cx="1774.7" cy="-234" rx="37.89" ry="18"/>
<text text-anchor="middle" x="1774.7" y="-230.3" font-family="Times New Roman,serif" font-size="14.00">IN2110</text>
</g>
<!-- IN1000&#45;&gt;IN2110 -->
<g id="edge22" class="edge">
<title>IN1000&#45;&gt;IN2110</title>
<path fill="none" stroke="red" d="M1182.46,-304.99C1276.17,-304.24 1526.37,-297.72 1728.7,-252 1731.67,-251.33 1734.72,-250.51 1737.75,-249.6"/>
<polygon fill="red" stroke="red" points="1738.92,-252.9 1747.32,-246.45 1736.73,-246.25 1738.92,-252.9"/>
</g>
<!-- IN1000&#45;&gt;IN2140 -->
<g id="edge23" class="edge">
<title>IN1000&#45;&gt;IN2140</title>
<path fill="none" stroke="red" d="M1130.16,-288.88C1120.81,-278.44 1108.43,-264.5 1097.7,-252 1079.13,-230.38 1058.43,-205.41 1043.65,-187.43"/>
<polygon fill="red" stroke="red" points="1045.96,-184.72 1036.91,-179.21 1040.55,-189.16 1045.96,-184.72"/>
</g>
<!-- IN3190 -->
<g id="node28" class="node">
<title>IN3190</title>
<ellipse fill="none" stroke="black" cx="1428.7" cy="-234" rx="37.89" ry="18"/>
<text text-anchor="middle" x="1428.7" y="-230.3" font-family="Times New Roman,serif" font-size="14.00">IN3190</text>
</g>
<!-- IN1000&#45;&gt;IN3190 -->
<g id="edge26" class="edge">
<title>IN1000&#45;&gt;IN3190</title>
<path fill="none" stroke="green" d="M1177.55,-296.9C1229.07,-284.2 1328.84,-259.61 1385.9,-245.55"/>
<polygon fill="green" stroke="green" points="1386.83,-248.92 1395.7,-243.13 1385.15,-242.13 1386.83,-248.92"/>
</g>
<!-- IN1000&#45;&gt;IN3030 -->
<g id="edge24" class="edge">
<title>IN1000&#45;&gt;IN3030</title>
<path fill="none" stroke="red" d="M1182.21,-303.5C1275.53,-299.3 1515.81,-285.47 1587.7,-252 1605.62,-243.65 1694.62,-156.04 1737.08,-113.68"/>
<polygon fill="red" stroke="red" points="1739.6,-116.11 1744.2,-106.57 1734.65,-111.16 1739.6,-116.11"/>
</g>
<!-- IN1000&#45;&gt;IN3110 -->
<g id="edge25" class="edge">
<title>IN1000&#45;&gt;IN3110</title>
<path fill="none" stroke="green" d="M1177.6,-297.1C1210.06,-288.57 1260.5,-273.28 1300.7,-252 1335.64,-233.5 1371.26,-205.03 1394.09,-185.29"/>
<polygon fill="green" stroke="green" points="1396.69,-187.67 1401.9,-178.45 1392.07,-182.41 1396.69,-187.67"/>
</g>
<!-- IN1000&#45;&gt;IN3240 -->
<g id="edge27" class="edge">
<title>IN1000&#45;&gt;IN3240</title>
<path fill="none" stroke="red" d="M1106.84,-304.17C990.25,-301.22 638.06,-289.37 530.7,-252 475.86,-232.92 463.85,-219.92 421.7,-180 401.53,-160.9 383.12,-135.04 370.9,-116.11"/>
<polygon fill="red" stroke="red" points="373.72,-114.02 365.41,-107.44 367.8,-117.76 373.72,-114.02"/>
</g>
<!-- IN1030&#45;&gt;IN2000 -->
<g id="edge28" class="edge">
<title>IN1030&#45;&gt;IN2000</title>
<path fill="none" stroke="red" d="M485.34,-149.11C469.24,-140.29 450,-126.56 440.7,-108 430.88,-88.42 435.99,-63.62 442.64,-45.18"/>
<polygon fill="red" stroke="red" points="445.98,-46.25 446.41,-35.66 439.47,-43.67 445.98,-46.25"/>
</g>
<!-- IN1030&#45;&gt;IN2090 -->
<g id="edge29" class="edge">
<title>IN1030&#45;&gt;IN2090</title>
<path fill="none" stroke="green" d="M505.89,-144.05C503.15,-136.06 499.81,-126.33 496.75,-117.4"/>
<polygon fill="green" stroke="green" points="500.01,-116.11 493.45,-107.79 493.39,-118.38 500.01,-116.11"/>
</g>
<!-- IN1030&#45;&gt;IN3240 -->
<g id="edge30" class="edge">
<title>IN1030&#45;&gt;IN3240</title>
<path fill="none" stroke="green" d="M485.23,-149.13C459.46,-137.56 420.1,-119.9 391.53,-107.08"/>
<polygon fill="green" stroke="green" points="392.85,-103.83 382.29,-102.93 389.98,-110.22 392.85,-103.83"/>
</g>
<!-- IN1060 -->
<g id="node4" class="node">
<title>IN1060</title>
<ellipse fill="none" stroke="black" cx="115.7" cy="-162" rx="37.89" ry="18"/>
<text text-anchor="middle" x="115.7" y="-158.3" font-family="Times New Roman,serif" font-size="14.00">IN1060</text>
</g>
<!-- IN1060&#45;&gt;IN2000 -->
<g id="edge31" class="edge">
<title>IN1060&#45;&gt;IN2000</title>
<path fill="none" stroke="red" d="M133.81,-145.93C146.29,-135.45 163.17,-121.07 177.7,-108 194.99,-92.44 195.15,-82.91 215.7,-72 276.84,-39.52 356.95,-26.91 407.13,-22.04"/>
<polygon fill="red" stroke="red" points="407.72,-25.5 417.37,-21.12 407.09,-18.53 407.72,-25.5"/>
</g>
<!-- IN2020 -->
<g id="node10" class="node">
<title>IN2020</title>
<ellipse fill="none" stroke="black" cx="37.7" cy="-90" rx="37.89" ry="18"/>
<text text-anchor="middle" x="37.7" y="-86.3" font-family="Times New Roman,serif" font-size="14.00">IN2020</text>
</g>
<!-- IN1060&#45;&gt;IN2020 -->
<g id="edge32" class="edge">
<title>IN1060&#45;&gt;IN2020</title>
<path fill="none" stroke="red" d="M98.77,-145.81C88.04,-136.18 73.98,-123.56 62.06,-112.86"/>
<polygon fill="red" stroke="red" points="64.37,-110.23 54.59,-106.16 59.69,-115.44 64.37,-110.23"/>
</g>
<!-- IN3220 -->
<g id="node40" class="node">
<title>IN3220</title>
<ellipse fill="none" stroke="black" cx="130.7" cy="-90" rx="37.89" ry="18"/>
<text text-anchor="middle" x="130.7" y="-86.3" font-family="Times New Roman,serif" font-size="14.00">IN3220</text>
</g>
<!-- IN1060&#45;&gt;IN3220 -->
<g id="edge33" class="edge">
<title>IN1060&#45;&gt;IN3220</title>
<path fill="none" stroke="red" d="M119.33,-144.05C121,-136.26 123.02,-126.82 124.89,-118.08"/>
<polygon fill="red" stroke="red" points="128.32,-118.79 126.99,-108.28 121.48,-117.32 128.32,-118.79"/>
</g>
<!-- IN1050 -->
<g id="node5" class="node">
<title>IN1050</title>
<ellipse fill="none" stroke="black" cx="59.7" cy="-234" rx="37.89" ry="18"/>
<text text-anchor="middle" x="59.7" y="-230.3" font-family="Times New Roman,serif" font-size="14.00">IN1050</text>
</g>
<!-- IN1050&#45;&gt;IN1060 -->
<g id="edge34" class="edge">
<title>IN1050&#45;&gt;IN1060</title>
<path fill="none" stroke="red" d="M72.68,-216.76C79.75,-207.93 88.63,-196.83 96.49,-187.01"/>
<polygon fill="red" stroke="red" points="99.26,-189.14 102.78,-179.15 93.8,-184.77 99.26,-189.14"/>
</g>
<!-- IN1050&#45;&gt;IN2020 -->
<g id="edge35" class="edge">
<title>IN1050&#45;&gt;IN2020</title>
<path fill="none" stroke="red" d="M57.04,-215.87C53.29,-191.67 46.41,-147.21 41.94,-118.39"/>
<polygon fill="red" stroke="red" points="45.35,-117.54 40.36,-108.19 38.43,-118.61 45.35,-117.54"/>
</g>
<!-- IN1080&#45;&gt;IN2060 -->
<g id="edge36" class="edge">
<title>IN1080&#45;&gt;IN2060</title>
<path fill="none" stroke="green" d="M317.36,-220C296.68,-208.95 266.8,-192.98 243.92,-180.75"/>
<polygon fill="green" stroke="green" points="245.37,-177.56 234.9,-175.93 242.07,-183.73 245.37,-177.56"/>
</g>
<!-- IN3160 -->
<g id="node38" class="node">
<title>IN3160</title>
<ellipse fill="none" stroke="black" cx="262.7" cy="-90" rx="37.89" ry="18"/>
<text text-anchor="middle" x="262.7" y="-86.3" font-family="Times New Roman,serif" font-size="14.00">IN3160</text>
</g>
<!-- IN1080&#45;&gt;IN3160 -->
<g id="edge37" class="edge">
<title>IN1080&#45;&gt;IN3160</title>
<path fill="none" stroke="green" d="M348.95,-216.06C355.83,-197.2 363.38,-166.44 350.7,-144 344.67,-133.33 319.77,-118.85 297.99,-107.72"/>
<polygon fill="green" stroke="green" points="299.42,-104.53 288.91,-103.18 296.29,-110.79 299.42,-104.53"/>
</g>
<!-- IN3170 -->
<g id="node39" class="node">
<title>IN3170</title>
<ellipse fill="none" stroke="black" cx="303.7" cy="-162" rx="37.89" ry="18"/>
<text text-anchor="middle" x="303.7" y="-158.3" font-family="Times New Roman,serif" font-size="14.00">IN3170</text>
</g>
<!-- IN1080&#45;&gt;IN3170 -->
<g id="edge38" class="edge">
<title>IN1080&#45;&gt;IN3170</title>
<path fill="none" stroke="red" d="M332.69,-216.41C328.21,-208.16 322.7,-198.01 317.69,-188.78"/>
<polygon fill="red" stroke="red" points="320.75,-187.07 312.9,-179.96 314.6,-190.41 320.75,-187.07"/>
</g>
<!-- IN1020 -->
<g id="node7" class="node">
<title>IN1020</title>
<ellipse fill="none" stroke="black" cx="275.7" cy="-306" rx="37.89" ry="18"/>
<text text-anchor="middle" x="275.7" y="-302.3" font-family="Times New Roman,serif" font-size="14.00">IN1020</text>
</g>
<!-- IN1020&#45;&gt;IN1080 -->
<g id="edge39" class="edge">
<title>IN1020&#45;&gt;IN1080</title>
<path fill="none" stroke="green" d="M290.67,-289.12C299.28,-279.99 310.25,-268.36 319.81,-258.22"/>
<polygon fill="green" stroke="green" points="322.47,-260.5 326.78,-250.82 317.37,-255.7 322.47,-260.5"/>
</g>
<!-- IN1020&#45;&gt;IN2060 -->
<g id="edge40" class="edge">
<title>IN1020&#45;&gt;IN2060</title>
<path fill="none" stroke="green" d="M240.98,-298.98C214.5,-292.37 179.78,-278.88 162.7,-252 148.69,-229.96 167.17,-203.48 185.11,-185.17"/>
<polygon fill="green" stroke="green" points="187.91,-187.32 192.67,-177.86 183.05,-182.29 187.91,-187.32"/>
</g>
<!-- IN2120 -->
<g id="node23" class="node">
<title>IN2120</title>
<ellipse fill="none" stroke="black" cx="209.7" cy="-234" rx="37.89" ry="18"/>
<text text-anchor="middle" x="209.7" y="-230.3" font-family="Times New Roman,serif" font-size="14.00">IN2120</text>
</g>
<!-- IN1020&#45;&gt;IN2120 -->
<g id="edge41" class="edge">
<title>IN1020&#45;&gt;IN2120</title>
<path fill="none" stroke="green" d="M260.72,-289.12C252.11,-279.99 241.15,-268.36 231.59,-258.22"/>
<polygon fill="green" stroke="green" points="234.02,-255.7 224.61,-250.82 228.93,-260.5 234.02,-255.7"/>
</g>
<!-- IN1020&#45;&gt;IN2140 -->
<g id="edge42" class="edge">
<title>IN1020&#45;&gt;IN2140</title>
<path fill="none" stroke="red" d="M310.27,-298.44C432.23,-275.28 842.26,-197.44 978.94,-171.5"/>
<polygon fill="red" stroke="red" points="979.88,-174.88 989.06,-169.58 978.58,-168 979.88,-174.88"/>
</g>
<!-- IN1910&#45;&gt;IN2010 -->
<g id="edge43" class="edge">
<title>IN1910&#45;&gt;IN2010</title>
<path fill="none" stroke="red" d="M1252.46,-215.7C1251.91,-207.98 1251.25,-198.71 1250.63,-190.11"/>
<polygon fill="red" stroke="red" points="1254.12,-189.83 1249.92,-180.1 1247.14,-190.33 1254.12,-189.83"/>
</g>
<!-- IN1910&#45;&gt;IN3015 -->
<g id="edge44" class="edge">
<title>IN1910&#45;&gt;IN3015</title>
<path fill="none" stroke="green" d="M1287.42,-225.76C1329.51,-216.46 1403.53,-199.2 1465.7,-180 1468.28,-179.2 1470.92,-178.34 1473.58,-177.45"/>
<polygon fill="green" stroke="green" points="1474.87,-180.7 1483.15,-174.1 1472.56,-174.1 1474.87,-180.7"/>
</g>
<!-- IN1910&#45;&gt;IN3110 -->
<g id="edge45" class="edge">
<title>IN1910&#45;&gt;IN3110</title>
<path fill="none" stroke="green" d="M1280.94,-221.44C1308.53,-209.74 1351.37,-191.56 1381.95,-178.59"/>
<polygon fill="green" stroke="green" points="1383.57,-181.7 1391.41,-174.58 1380.84,-175.26 1383.57,-181.7"/>
</g>
<!-- IN2020&#45;&gt;IN2000 -->
<g id="edge46" class="edge">
<title>IN2020&#45;&gt;IN2000</title>
<path fill="none" stroke="red" d="M65.62,-77.61C71.52,-75.51 77.75,-73.5 83.7,-72 198.07,-43.05 336.56,-28.52 407.61,-22.51"/>
<polygon fill="red" stroke="red" points="407.92,-25.99 417.6,-21.68 407.34,-19.02 407.92,-25.99"/>
</g>
<!-- IN3010 -->
<g id="node26" class="node">
<title>IN3010</title>
<ellipse fill="none" stroke="black" cx="37.7" cy="-18" rx="37.89" ry="18"/>
<text text-anchor="middle" x="37.7" y="-14.3" font-family="Times New Roman,serif" font-size="14.00">IN3010</text>
</g>
<!-- IN2020&#45;&gt;IN3010 -->
<g id="edge47" class="edge">
<title>IN2020&#45;&gt;IN3010</title>
<path fill="none" stroke="red" d="M37.7,-71.7C37.7,-63.98 37.7,-54.71 37.7,-46.11"/>
<polygon fill="red" stroke="red" points="41.2,-46.1 37.7,-36.1 34.2,-46.1 41.2,-46.1"/>
</g>
<!-- IN2010&#45;&gt;IN2000 -->
<g id="edge48" class="edge">
<title>IN2010&#45;&gt;IN2000</title>
<path fill="none" stroke="red" d="M1258.62,-144.55C1269.17,-124.7 1282.01,-91.56 1263.7,-72 1250.6,-58.02 674.13,-29.46 502.45,-21.25"/>
<polygon fill="red" stroke="red" points="502.36,-17.74 492.21,-20.76 502.03,-24.74 502.36,-17.74"/>
</g>
<!-- IN3000 -->
<g id="node25" class="node">
<title>IN3000</title>
<ellipse fill="none" stroke="black" cx="1030.7" cy="-90" rx="37.89" ry="18"/>
<text text-anchor="middle" x="1030.7" y="-86.3" font-family="Times New Roman,serif" font-size="14.00">IN3000</text>
</g>
<!-- IN2010&#45;&gt;IN3000 -->
<g id="edge49" class="edge">
<title>IN2010&#45;&gt;IN3000</title>
<path fill="none" stroke="red" d="M1220.1,-150.05C1214.37,-147.96 1208.36,-145.85 1202.7,-144 1147.34,-125.89 1132.05,-126.11 1076.7,-108 1074.13,-107.16 1071.49,-106.27 1068.84,-105.35"/>
<polygon fill="red" stroke="red" points="1069.88,-102 1059.29,-101.95 1067.54,-108.6 1069.88,-102"/>
</g>
<!-- IN3020 -->
<g id="node29" class="node">
<title>IN3020</title>
<ellipse fill="none" stroke="black" cx="871.7" cy="-18" rx="37.89" ry="18"/>
<text text-anchor="middle" x="871.7" y="-14.3" font-family="Times New Roman,serif" font-size="14.00">IN3020</text>
</g>
<!-- IN2010&#45;&gt;IN3020 -->
<g id="edge50" class="edge">
<title>IN2010&#45;&gt;IN3020</title>
<path fill="none" stroke="green" d="M1278.2,-150.64C1285.5,-148.27 1293.34,-145.9 1300.7,-144 1387.33,-121.64 1549.2,-137.92 1488.7,-72 1450.44,-30.31 1057.87,-21.35 919.58,-19.48"/>
<polygon fill="green" stroke="green" points="919.35,-15.97 909.3,-19.34 919.26,-22.97 919.35,-15.97"/>
</g>
<!-- IN2010&#45;&gt;IN3030 -->
<g id="edge51" class="edge">
<title>IN2010&#45;&gt;IN3030</title>
<path fill="none" stroke="green" d="M1282.76,-153.81C1299.55,-150.46 1320.12,-146.64 1338.7,-144 1504.46,-120.44 1550.48,-145.33 1713.7,-108 1716.67,-107.32 1719.72,-106.5 1722.75,-105.58"/>
<polygon fill="green" stroke="green" points="1723.92,-108.88 1732.32,-102.43 1721.73,-102.24 1723.92,-108.88"/>
</g>
<!-- IN3040 -->
<g id="node31" class="node">
<title>IN3040</title>
<ellipse fill="none" stroke="black" cx="1573.7" cy="-90" rx="37.89" ry="18"/>
<text text-anchor="middle" x="1573.7" y="-86.3" font-family="Times New Roman,serif" font-size="14.00">IN3040</text>
</g>
<!-- IN2010&#45;&gt;IN3040 -->
<g id="edge52" class="edge">
<title>IN2010&#45;&gt;IN3040</title>
<path fill="none" stroke="green" d="M1277.89,-150.58C1285.27,-148.19 1293.22,-145.82 1300.7,-144 1397.39,-120.47 1425,-131.53 1521.7,-108 1526.02,-106.95 1530.5,-105.71 1534.94,-104.4"/>
<polygon fill="green" stroke="green" points="1535.99,-107.73 1544.5,-101.42 1533.91,-101.05 1535.99,-107.73"/>
</g>
<!-- IN3050 -->
<g id="node32" class="node">
<title>IN3050</title>
<ellipse fill="none" stroke="black" cx="1348.7" cy="-90" rx="37.89" ry="18"/>
<text text-anchor="middle" x="1348.7" y="-86.3" font-family="Times New Roman,serif" font-size="14.00">IN3050</text>
</g>
<!-- IN2010&#45;&gt;IN3050 -->
<g id="edge53" class="edge">
<title>IN2010&#45;&gt;IN3050</title>
<path fill="none" stroke="green" d="M1269.42,-146.5C1283.99,-136.29 1303.7,-122.5 1319.82,-111.22"/>
<polygon fill="green" stroke="green" points="1322.16,-113.85 1328.35,-105.25 1318.15,-108.11 1322.16,-113.85"/>
</g>
<!-- IN2010&#45;&gt;IN3060 -->
<g id="edge54" class="edge">
<title>IN2010&#45;&gt;IN3060</title>
<path fill="none" stroke="green" d="M1220.75,-149.71C1214.85,-147.6 1208.62,-145.57 1202.7,-144 1107.33,-118.79 1079.06,-133.21 983.7,-108 980.92,-107.27 978.07,-106.43 975.23,-105.53"/>
<polygon fill="green" stroke="green" points="976.24,-102.18 965.64,-102.29 974,-108.81 976.24,-102.18"/>
</g>
<!-- IN2010&#45;&gt;IN3120 -->
<g id="edge55" class="edge">
<title>IN2010&#45;&gt;IN3120</title>
<path fill="none" stroke="green" d="M1277.56,-150.41C1285.02,-147.99 1293.09,-145.65 1300.7,-144 1440.55,-113.61 1481.45,-141.05 1620.7,-108 1623.49,-107.34 1626.35,-106.55 1629.21,-105.69"/>
<polygon fill="green" stroke="green" points="1630.41,-108.98 1638.81,-102.53 1628.22,-102.33 1630.41,-108.98"/>
</g>
<!-- IN3130 -->
<g id="node37" class="node">
<title>IN3130</title>
<ellipse fill="none" stroke="black" cx="1441.7" cy="-90" rx="37.89" ry="18"/>
<text text-anchor="middle" x="1441.7" y="-86.3" font-family="Times New Roman,serif" font-size="14.00">IN3130</text>
</g>
<!-- IN2010&#45;&gt;IN3130 -->
<g id="edge56" class="edge">
<title>IN2010&#45;&gt;IN3130</title>
<path fill="none" stroke="red" d="M1278.01,-150.51C1307.69,-139.87 1354.92,-122.88 1395.7,-108 1398.08,-107.13 1400.52,-106.24 1402.99,-105.33"/>
<polygon fill="red" stroke="red" points="1404.33,-108.57 1412.51,-101.83 1401.91,-102 1404.33,-108.57"/>
</g>
<!-- IN3230 -->
<g id="node41" class="node">
<title>IN3230</title>
<ellipse fill="none" stroke="black" cx="1123.7" cy="-90" rx="37.89" ry="18"/>
<text text-anchor="middle" x="1123.7" y="-86.3" font-family="Times New Roman,serif" font-size="14.00">IN3230</text>
</g>
<!-- IN2010&#45;&gt;IN3230 -->
<g id="edge57" class="edge">
<title>IN2010&#45;&gt;IN3230</title>
<path fill="none" stroke="green" d="M1225.19,-147.83C1205.75,-136.95 1177.95,-121.38 1156.36,-109.29"/>
<polygon fill="green" stroke="green" points="1157.96,-106.18 1147.53,-104.35 1154.54,-112.29 1157.96,-106.18"/>
</g>
<!-- IN2010&#45;&gt;IN3260 -->
<g id="edge58" class="edge">
<title>IN2010&#45;&gt;IN3260</title>
<path fill="none" stroke="red" d="M1240.95,-144.05C1237.26,-135.97 1232.75,-126.12 1228.63,-117.11"/>
<polygon fill="red" stroke="red" points="1231.71,-115.43 1224.37,-107.79 1225.35,-118.34 1231.71,-115.43"/>
</g>
<!-- IN2090&#45;&gt;IN2000 -->
<g id="edge59" class="edge">
<title>IN2090&#45;&gt;IN2000</title>
<path fill="none" stroke="red" d="M479.71,-72.05C475.9,-63.97 471.25,-54.12 467.01,-45.11"/>
<polygon fill="red" stroke="red" points="470.04,-43.34 462.61,-35.79 463.71,-46.33 470.04,-43.34"/>
</g>
<!-- IN2090&#45;&gt;IN3020 -->
<g id="edge60" class="edge">
<title>IN2090&#45;&gt;IN3020</title>
<path fill="none" stroke="red" d="M521.58,-82.05C537.14,-78.9 555.84,-75.18 572.7,-72 662.62,-55.04 768.06,-36.71 826.64,-26.67"/>
<polygon fill="red" stroke="red" points="827.4,-30.09 836.67,-24.95 826.22,-23.19 827.4,-30.09"/>
</g>
<!-- IN2040&#45;&gt;IN3120 -->
<g id="edge61" class="edge">
<title>IN2040&#45;&gt;IN3120</title>
<path fill="none" stroke="green" d="M1550.01,-216.56C1561.01,-197.88 1580.52,-167.02 1601.7,-144 1612.67,-132.07 1626.39,-120.5 1638.39,-111.22"/>
<polygon fill="green" stroke="green" points="1640.51,-114.01 1646.37,-105.19 1636.29,-108.43 1640.51,-114.01"/>
</g>
<!-- IN2060&#45;&gt;IN3160 -->
<g id="edge62" class="edge">
<title>IN2060&#45;&gt;IN3160</title>
<path fill="none" stroke="green" d="M222.76,-144.76C229.25,-136.02 237.4,-125.05 244.64,-115.31"/>
<polygon fill="green" stroke="green" points="247.55,-117.26 250.7,-107.15 241.93,-113.09 247.55,-117.26"/>
</g>
<!-- IN1105 -->
<g id="node17" class="node">
<title>IN1105</title>
<ellipse fill="none" stroke="black" cx="1681.7" cy="-306" rx="37.89" ry="18"/>
<text text-anchor="middle" x="1681.7" y="-302.3" font-family="Times New Roman,serif" font-size="14.00">IN1105</text>
</g>
<!-- IN1105&#45;&gt;IN2070 -->
<g id="edge63" class="edge">
<title>IN1105&#45;&gt;IN2070</title>
<path fill="none" stroke="red" d="M1681.7,-287.7C1681.7,-279.98 1681.7,-270.71 1681.7,-262.11"/>
<polygon fill="red" stroke="red" points="1685.2,-262.1 1681.7,-252.1 1678.2,-262.1 1685.2,-262.1"/>
</g>
<!-- IN2080 -->
<g id="node18" class="node">
<title>IN2080</title>
<ellipse fill="none" stroke="black" cx="712.7" cy="-90" rx="37.89" ry="18"/>
<text text-anchor="middle" x="712.7" y="-86.3" font-family="Times New Roman,serif" font-size="14.00">IN2080</text>
</g>
<!-- IN1150 -->
<g id="node19" class="node">
<title>IN1150</title>
<ellipse fill="none" stroke="black" cx="805.7" cy="-162" rx="37.89" ry="18"/>
<text text-anchor="middle" x="805.7" y="-158.3" font-family="Times New Roman,serif" font-size="14.00">IN1150</text>
</g>
<!-- IN1150&#45;&gt;IN2080 -->
<g id="edge64" class="edge">
<title>IN1150&#45;&gt;IN2080</title>
<path fill="none" stroke="red" d="M786.43,-146.5C773.08,-136.45 755.12,-122.93 740.27,-111.75"/>
<polygon fill="red" stroke="red" points="742.04,-108.7 731.94,-105.49 737.83,-114.3 742.04,-108.7"/>
</g>
<!-- IN1150&#45;&gt;IN2100 -->
<g id="edge65" class="edge">
<title>IN1150&#45;&gt;IN2100</title>
<path fill="none" stroke="green" d="M777.04,-150.22C745.09,-138.19 693.27,-118.69 657.9,-105.38"/>
<polygon fill="green" stroke="green" points="658.98,-102.04 648.38,-101.8 656.51,-108.59 658.98,-102.04"/>
</g>
<!-- IN1150&#45;&gt;IN3020 -->
<g id="edge66" class="edge">
<title>IN1150&#45;&gt;IN3020</title>
<path fill="none" stroke="green" d="M822.94,-145.94C833.11,-136.13 845.38,-122.49 852.7,-108 862.47,-88.67 867.22,-64.52 869.53,-46.25"/>
<polygon fill="green" stroke="green" points="873.01,-46.58 870.63,-36.26 866.06,-45.82 873.01,-46.58"/>
</g>
<!-- IN1150&#45;&gt;IN3060 -->
<g id="edge67" class="edge">
<title>IN1150&#45;&gt;IN3060</title>
<path fill="none" stroke="green" d="M829.91,-148.16C850.71,-137.13 880.92,-121.11 904.07,-108.83"/>
<polygon fill="green" stroke="green" points="906,-111.77 913.19,-103.99 902.72,-105.59 906,-111.77"/>
</g>
<!-- IN3070 -->
<g id="node34" class="node">
<title>IN3070</title>
<ellipse fill="none" stroke="black" cx="805.7" cy="-90" rx="37.89" ry="18"/>
<text text-anchor="middle" x="805.7" y="-86.3" font-family="Times New Roman,serif" font-size="14.00">IN3070</text>
</g>
<!-- IN1150&#45;&gt;IN3070 -->
<g id="edge68" class="edge">
<title>IN1150&#45;&gt;IN3070</title>
<path fill="none" stroke="green" d="M805.7,-143.7C805.7,-135.98 805.7,-126.71 805.7,-118.11"/>
<polygon fill="green" stroke="green" points="809.2,-118.1 805.7,-108.1 802.2,-118.1 809.2,-118.1"/>
</g>
<!-- IN1140 -->
<g id="node22" class="node">
<title>IN1140</title>
<ellipse fill="none" stroke="black" cx="1774.7" cy="-306" rx="37.89" ry="18"/>
<text text-anchor="middle" x="1774.7" y="-302.3" font-family="Times New Roman,serif" font-size="14.00">IN1140</text>
</g>
<!-- IN1140&#45;&gt;IN2110 -->
<g id="edge69" class="edge">
<title>IN1140&#45;&gt;IN2110</title>
<path fill="none" stroke="green" d="M1774.7,-287.7C1774.7,-279.98 1774.7,-270.71 1774.7,-262.11"/>
<polygon fill="green" stroke="green" points="1778.2,-262.1 1774.7,-252.1 1771.2,-262.1 1778.2,-262.1"/>
</g>
<!-- IN2140&#45;&gt;IN3000 -->
<g id="edge70" class="edge">
<title>IN2140&#45;&gt;IN3000</title>
<path fill="none" stroke="green" d="M1025.43,-143.7C1026.2,-135.98 1027.13,-126.71 1027.99,-118.11"/>
<polygon fill="green" stroke="green" points="1031.47,-118.4 1028.99,-108.1 1024.51,-117.71 1031.47,-118.4"/>
</g>
<!-- IN2140&#45;&gt;IN3230 -->
<g id="edge71" class="edge">
<title>IN2140&#45;&gt;IN3230</title>
<path fill="none" stroke="red" d="M1044.42,-146.5C1058.99,-136.29 1078.7,-122.5 1094.82,-111.22"/>
<polygon fill="red" stroke="red" points="1097.16,-113.85 1103.35,-105.25 1093.15,-108.11 1097.16,-113.85"/>
</g>
<!-- IN2140&#45;&gt;IN3260 -->
<g id="edge72" class="edge">
<title>IN2140&#45;&gt;IN3260</title>
<path fill="none" stroke="red" d="M1053.01,-150.51C1082.69,-139.87 1129.92,-122.88 1170.7,-108 1173.08,-107.13 1175.52,-106.24 1177.99,-105.33"/>
<polygon fill="red" stroke="red" points="1179.33,-108.57 1187.51,-101.83 1176.91,-102 1179.33,-108.57"/>
</g>
<!-- IN3190&#45;&gt;IN3015 -->
<g id="edge73" class="edge">
<title>IN3190&#45;&gt;IN3015</title>
<path fill="none" stroke="green" d="M1446.71,-217.81C1458.2,-208.11 1473.29,-195.39 1486.03,-184.64"/>
<polygon fill="green" stroke="green" points="1488.62,-187.04 1494.01,-177.92 1484.11,-181.69 1488.62,-187.04"/>
</g>
</g>
</svg>
